<svg width="26" height="26" viewBox="0 0 26 26" fill="none" xmlns="http://www.w3.org/2000/svg">
	<path fill-rule="evenodd" clip-rule="evenodd" d="M7.26563 8.5C7.26563 7.83696 7.52902 7.20107 7.99786 6.73223C8.4667 6.26339 9.10259 6 9.76563 6H18.5156C18.7145 6 18.9053 6.07902 19.046 6.21967C19.1866 6.36032 19.2656 6.55109 19.2656 6.75V19.25C19.2656 19.4489 19.1866 19.6397 19.046 19.7803C18.9053 19.921 18.7145 20 18.5156 20H16.0156C15.8167 20 15.6259 19.921 15.4853 19.7803C15.3446 19.6397 15.2656 19.4489 15.2656 19.25C15.2656 19.0511 15.3446 18.8603 15.4853 18.7197C15.6259 18.579 15.8167 18.5 16.0156 18.5H17.7656V16.5H9.76563C9.56871 16.5 9.37618 16.5582 9.21219 16.6672C9.0482 16.7762 8.92004 16.9312 8.84379 17.1128C8.76753 17.2943 8.74658 17.4943 8.78356 17.6878C8.82053 17.8812 8.91378 18.0594 9.05163 18.2C9.19087 18.3422 9.26793 18.5338 9.26587 18.7328C9.2638 18.9318 9.18278 19.1218 9.04063 19.261C8.89847 19.4002 8.70682 19.4773 8.50785 19.4752C8.30887 19.4732 8.11887 19.3922 7.97963 19.25C7.52134 18.7829 7.26492 18.1544 7.26563 17.5V8.5ZM17.7656 7.5V15H9.76563C9.40963 15 9.07163 15.074 8.76563 15.208V8.5C8.76563 8.23478 8.87098 7.98043 9.05852 7.79289C9.24606 7.60536 9.50041 7.5 9.76563 7.5H17.7656ZM10.2656 18.25V21.5C10.2656 21.5464 10.2786 21.5919 10.303 21.6314C10.3274 21.6709 10.3623 21.7028 10.4038 21.7236C10.4453 21.7444 10.4918 21.7532 10.5381 21.749C10.5843 21.7448 10.6285 21.7279 10.6656 21.7L12.1156 20.613C12.1589 20.5805 12.2115 20.563 12.2656 20.563C12.3197 20.563 12.3724 20.5805 12.4156 20.613L13.8656 21.7C13.9028 21.7279 13.9469 21.7448 13.9932 21.749C14.0394 21.7532 14.0859 21.7444 14.1274 21.7236C14.169 21.7028 14.2039 21.6709 14.2283 21.6314C14.2527 21.5919 14.2656 21.5464 14.2656 21.5V18.25C14.2656 18.1837 14.2393 18.1201 14.1924 18.0732C14.1455 18.0263 14.0819 18 14.0156 18H10.5156C10.4493 18 10.3857 18.0263 10.3388 18.0732C10.292 18.1201 10.2656 18.1837 10.2656 18.25Z" fill="currentColor" />
</svg>
