<svg width="240" height="40" viewBox="0 0 240 40" fill="none" xmlns="http://www.w3.org/2000/svg">
<path d="M26.6701 14.8849C26.6701 14.028 27.3649 13.3333 28.2182 13.3333H38.4484C39.3052 13.3333 39.9999 12.6386 39.9999 11.7817V1.55162C39.9999 0.694699 39.3052 0 38.4484 0H28.2182C27.3614 0 26.6667 0.694699 26.6667 1.55162V11.7817C26.6667 12.6386 25.972 13.3333 25.115 13.3333H14.885C14.028 13.3333 13.3333 12.6386 13.3333 11.7817V1.55162C13.3333 0.694699 12.6386 0 11.7817 0H1.55161C0.694699 0 0 0.694699 0 1.55162V38.4448C0 39.3017 0.694699 39.9964 1.55161 39.9964H11.7817C12.6386 39.9964 13.3333 39.3017 13.3333 38.4448V28.2147C13.3333 27.3578 14.028 26.6631 14.885 26.6631H25.115C25.972 26.6631 26.6667 27.3578 26.6667 28.2147V38.4448C26.6667 39.3017 27.3614 39.9964 28.2182 39.9964H38.4484C39.3052 39.9964 39.9999 39.3017 39.9999 38.4448V28.2147C39.9999 27.3578 39.3052 26.6631 38.4484 26.6631H28.2182C27.3614 26.6631 26.6701 25.9684 26.6701 25.1114V14.8849Z" fill="white"/>
<path d="M41.9406 1.94304H51.3984V11.4009H41.9406V1.94304ZM41.9406 28.6026H51.3984V38.0604H41.9406V28.6026ZM38.0651 24.7306H28.6073V15.2728H38.0651V24.7306ZM38.453 26.6666C39.3099 26.6666 40.0046 27.3613 40.0046 28.2183V38.4483C40.0046 39.3053 40.6993 40 41.5562 40H51.7863C52.6433 40 53.338 39.3053 53.338 38.4483V28.2183C53.338 27.3613 52.6433 26.6666 51.7863 26.6666H41.5562C40.6993 26.6666 40.0082 25.9719 40.0082 25.115V14.8849C40.0082 14.028 40.7028 13.3333 41.5562 13.3333H51.7863C52.6433 13.3333 53.338 12.6386 53.338 11.7817V1.55162C53.338 0.694699 52.6433 0 51.7863 0H41.5562C40.6993 0 40.0046 0.694699 40.0046 1.55162V11.7817C40.0046 12.6386 39.3099 13.3333 38.453 13.3333H28.2229C27.3661 13.3333 26.6748 14.028 26.6748 14.8849V25.115C26.6748 25.9719 27.3695 26.6666 28.2229 26.6666H38.453Z" fill="#0E7AE5"/>
<path d="M73.3404 12.4168V0.971533C73.3404 0.250322 73.5808 0.00991543 74.302 0.00991543H75.3181C76.0393 0.00991543 76.2822 0.250322 76.2822 0.971533V4.3149C76.2822 5.03612 76.5226 5.279 77.2463 5.279H78.4236C79.1448 5.279 79.4942 5.03859 79.814 4.58257L82.5427 0.597297C82.8103 0.223057 83.1053 0.00991543 83.6654 0.00991543H84.9492C85.6183 0.00991543 85.8042 0.171014 85.8042 0.570037C85.8042 0.837704 85.6704 1.02358 85.4846 1.29126L82.3295 5.78459C82.0098 6.23814 82.0098 6.72143 82.3295 7.14771L85.9133 11.988C86.2083 12.3895 86.342 12.5754 86.342 12.791C86.342 13.1381 86.181 13.3784 85.5935 13.3784H84.1214C83.5613 13.3784 83.2119 13.1901 82.9169 12.791L79.8685 8.67193C79.4943 8.16386 79.1993 7.97549 78.4236 7.97549H77.2463C76.5251 7.97549 76.2822 8.2159 76.2822 8.9396V12.4168C76.2822 13.1381 76.0418 13.3809 75.3181 13.3809H74.302C73.5808 13.3809 73.3404 13.1405 73.3404 12.4168ZM87.6755 9.7426C87.6755 10.439 87.7821 10.7588 88.2108 11.2668L89.4673 12.791C89.8961 13.299 90.1637 13.3784 91.0461 13.3784H97.5989C98.4292 13.3784 98.8035 13.2446 99.2297 12.791L100.541 11.3734C100.997 10.8926 101.076 10.6249 101.076 9.9037V3.48464C101.076 2.70889 101.022 2.46849 100.541 1.96042L99.2297 0.597297C98.8283 0.168532 98.5878 0.00991543 97.8121 0.00991543H90.9915C90.2158 0.00991543 89.8416 0.17101 89.4673 0.597297L88.1562 2.12152C87.7003 2.62959 87.6755 2.89726 87.6755 3.59121V9.7426ZM90.6173 4.23311C90.6173 3.35081 91.232 2.70889 92.1143 2.70889H96.6349C97.5172 2.70889 98.1319 3.32354 98.1319 4.20584V9.18C98.1319 10.0623 97.5172 10.677 96.6349 10.677H92.1416C91.2592 10.677 90.6173 10.0623 90.6173 9.18V4.23311ZM104.016 12.4168C104.016 13.1381 104.256 13.3809 104.98 13.3809H105.996C106.717 13.3809 106.96 13.1405 106.96 12.4168V3.59121C106.96 3.43011 107.067 3.35081 107.228 3.35081C107.389 3.35081 107.441 3.40533 107.522 3.56394L110.41 10.3845C110.623 10.8926 110.757 11.1057 111.426 11.1057H113.111C113.726 11.1057 113.914 10.8926 114.127 10.3845L117.015 3.56394C117.097 3.40284 117.149 3.35081 117.31 3.35081C117.498 3.35081 117.577 3.45738 117.577 3.59121V12.4168C117.577 13.1381 117.818 13.3809 118.541 13.3809H119.558C120.279 13.3809 120.519 13.1405 120.519 12.4168V0.971533C120.519 0.250322 120.306 0.00991543 119.558 0.00991543H116.482C115.867 0.00991543 115.545 0.277582 115.305 0.892227L112.551 7.63348C112.497 7.76731 112.39 7.84662 112.256 7.84662C112.095 7.84662 112.016 7.76731 111.961 7.63348L109.181 0.892227C108.94 0.277582 108.673 0.00991543 108.058 0.00991543H104.982C104.261 0.00991543 104.018 0.250322 104.018 0.971533V12.4168H104.016ZM124.262 12.4168C124.262 13.1381 124.502 13.3809 125.223 13.3809H126.239C126.961 13.3809 127.204 13.1405 127.204 12.4168V3.673C127.204 2.95178 127.444 2.70889 128.165 2.70889H132.792C133.513 2.70889 133.754 2.9493 133.754 3.673V12.4193C133.754 13.1405 133.994 13.3833 134.718 13.3833H135.734C136.455 13.3833 136.698 13.143 136.698 12.4193V0.971533C136.698 0.250322 136.458 0.00991543 135.734 0.00991543H125.223C124.502 0.00991543 124.262 0.250322 124.262 0.971533V12.4168ZM140.441 12.4168C140.441 13.1381 140.681 13.3809 141.405 13.3809H149.509C150.285 13.3809 150.714 13.1926 151.194 12.6845L152.211 11.6138C152.691 11.1057 152.798 10.8381 152.798 10.1441V7.36334C152.798 6.58759 152.719 6.21336 152.211 5.70529L151.14 4.63462C150.632 4.12654 150.285 3.96545 149.509 3.96545H144.347C143.625 3.96545 143.382 3.72504 143.382 3.00135V0.969055C143.382 0.247841 143.142 0.00496229 142.418 0.00496229H141.402C140.681 0.00496229 140.438 0.245363 140.438 0.969055V12.4168H140.441ZM144.347 10.7588C143.625 10.7588 143.382 10.5183 143.382 9.79713V7.46991C143.382 6.7487 143.623 6.50581 144.347 6.50581H148.438C149.321 6.50581 149.856 7.04114 149.856 7.92346V9.47494C149.856 10.3572 149.321 10.7588 148.438 10.7588H144.347ZM155.737 12.3895C155.737 13.1108 155.95 13.3784 156.674 13.3784H157.718C158.439 13.3784 158.682 13.1381 158.682 12.4143V8.85781C158.682 8.1366 158.87 7.94824 159.591 7.94824H160.179C160.9 7.94824 161.088 8.1366 161.088 8.85781V9.74012C161.088 10.4341 161.195 10.729 161.624 11.2643L162.88 12.7885C163.309 13.324 163.577 13.3759 164.459 13.3759H170.583C171.413 13.3759 171.787 13.2421 172.214 12.7885L173.525 11.3709C173.978 10.8901 174.06 10.6224 174.06 9.89875V3.47968C174.06 2.70394 174.006 2.46353 173.525 1.95546L172.214 0.592342C171.812 0.166057 171.572 0.00496229 170.796 0.00496229H164.404C163.629 0.00496229 163.254 0.166057 162.88 0.592342L161.569 2.11656C161.14 2.62463 161.088 2.89229 161.088 3.58624V4.33473C161.088 5.05595 160.9 5.2443 160.179 5.2443H159.591C158.87 5.2443 158.682 5.05595 158.682 4.33473V0.9641C158.682 0.242887 158.441 0 157.718 0H156.701C155.98 0 155.737 0.240409 155.737 0.9641V12.3895ZM164.03 4.23311C164.03 3.35081 164.645 2.70889 165.527 2.70889H169.619C170.501 2.70889 171.116 3.32354 171.116 4.20584V9.18C171.116 10.0623 170.501 10.677 169.619 10.677H165.554C164.672 10.677 164.03 10.0623 164.03 9.18V4.23311ZM180.397 12.4168C180.397 13.1381 180.638 13.3809 181.359 13.3809H182.375C183.096 13.3809 183.339 13.1405 183.339 12.4168V3.69777C183.339 2.97657 183.58 2.73616 184.301 2.73616H187.243C187.964 2.73616 188.204 2.49576 188.204 1.77454V0.971533C188.204 0.250322 187.964 0.00991543 187.243 0.00991543H176.358C175.636 0.00991543 175.393 0.250322 175.393 0.971533V1.77454C175.393 2.49576 175.634 2.73616 176.358 2.73616H179.354C180.075 2.73616 180.397 2.97657 180.397 3.69777V12.4168ZM190.024 2.12152C189.595 2.62959 189.543 2.89725 189.543 3.59368V9.74508C189.543 10.4415 189.649 10.7612 190.078 11.2693L191.335 12.7935C191.763 13.3015 192.031 13.3809 192.913 13.3809H201.553C202.274 13.3809 202.515 13.1405 202.515 12.4168V11.7476C202.515 11.0264 202.274 10.7835 201.553 10.7835H193.744C192.861 10.7835 192.487 10.4366 192.487 9.55424V8.96685C192.487 8.24565 192.7 8.03002 193.424 8.03002H202.249C202.971 8.03002 203.213 7.78963 203.213 7.06841V3.48464C203.213 2.70889 203.159 2.46849 202.678 1.96042L201.367 0.597297C200.938 0.143748 200.725 0.00991543 199.95 0.00991543H192.861C192.086 0.00991543 191.711 0.17101 191.337 0.597297L190.024 2.12152ZM193.421 5.57146C192.7 5.57146 192.485 5.35831 192.485 4.63462V4.12654C192.485 3.24423 193.099 2.60232 193.981 2.60232H198.767C199.65 2.60232 200.264 3.21697 200.264 4.09928V4.63462C200.264 5.35583 200.051 5.57146 199.328 5.57146H193.421ZM207.112 0.00743493C206.391 0.00743493 206.149 0.247845 206.149 0.996325V17.6314C206.149 18.3799 206.388 18.6202 207.112 18.6202H208.101C208.849 18.6202 209.091 18.3799 209.091 17.6314V13.3784V12.9249V12.6572C209.091 12.4168 209.224 12.3102 209.464 12.3102C209.678 12.3102 209.787 12.3648 210.052 12.6324L210.213 12.7935C210.641 13.2222 210.961 13.3809 211.736 13.3809H216.203C217.033 13.3809 217.408 13.247 217.834 12.7935L219.145 11.3759C219.599 10.8951 219.68 10.6274 219.68 9.9037V3.48464C219.68 2.70889 219.652 2.49576 219.145 1.96042L217.834 0.597297C217.405 0.17101 217.191 0.00991543 216.417 0.00991543H211.922C211.148 0.00991543 210.825 0.17101 210.399 0.597297L210.076 0.919498C209.888 1.10786 209.729 1.34825 209.434 1.34825C209.194 1.34825 209.033 1.26894 209.033 1.05332V1.00128C209.033 0.280062 208.793 0.0123973 208.069 0.0123973H207.112V0.00743493ZM210.589 10.6794C209.707 10.6794 209.092 10.1168 209.092 9.23453V4.15381C209.092 3.27149 209.707 2.70889 210.589 2.70889H215.243C216.126 2.70889 216.74 3.32354 216.74 4.20584V9.18C216.74 10.0623 216.126 10.677 215.243 10.677H210.589V10.6794ZM222.624 12.4168C222.624 13.1381 222.864 13.3809 223.588 13.3809H231.425C232.202 13.3809 232.63 13.1926 233.11 12.6845L234.126 11.6138C234.607 11.1057 234.714 10.8381 234.714 10.1416V7.36086C234.714 6.58512 234.635 6.21088 234.126 5.70281L233.056 4.63213C232.548 4.12406 232.202 3.96297 231.425 3.96297H226.53C225.809 3.96297 225.566 3.72257 225.566 3.00135V0.969055C225.566 0.247841 225.327 0.00743493 224.604 0.00743493H223.588C222.867 0.00743493 222.624 0.247841 222.624 0.969055V12.4168ZM225.566 7.46991C225.566 6.7487 225.806 6.50581 226.53 6.50581H230.354C231.237 6.50581 231.773 7.04114 231.773 7.92346V9.47494C231.773 10.3572 231.237 10.7588 230.354 10.7588H226.53C225.809 10.7588 225.566 10.5183 225.566 9.79465V7.46991ZM236.452 12.4168C236.452 13.1381 236.692 13.3809 237.413 13.3809H238.429C239.15 13.3809 239.393 13.1405 239.393 12.4168V0.971533C239.393 0.250322 239.153 0.00991543 238.429 0.00991543H237.413C236.692 0.00991543 236.452 0.250322 236.452 0.971533V12.4168ZM73.3404 38.8092C73.3404 39.5306 73.5808 39.7734 74.302 39.7734H76.8969C77.5115 39.7734 77.8585 39.5602 78.1262 39.0522L82.9144 29.9862C82.9938 29.8523 83.0483 29.7459 83.2341 29.7459C83.4225 29.7459 83.5018 29.8796 83.5018 30.0134V38.8117C83.5018 39.5329 83.7422 39.7759 84.4634 39.7759H85.4796C86.2008 39.7759 86.4436 39.5354 86.4436 38.8117V27.3641C86.4436 26.6429 86.2033 26.4024 85.4796 26.4024H82.3518C81.8165 26.4024 81.6034 26.5363 81.3877 26.965L76.8671 36.1649C76.7878 36.2987 76.7333 36.4326 76.5474 36.4326C76.3591 36.4326 76.2798 36.326 76.2798 36.1376V27.3641C76.2798 26.6429 76.0394 26.4024 75.3157 26.4024H74.2995C73.5783 26.4024 73.3379 26.6429 73.3379 27.3641V38.8092H73.3404ZM99.2025 37.072C98.3201 37.072 97.6782 36.4574 97.6782 35.575V30.6281C97.6782 29.7459 98.293 29.1038 99.1752 29.1038H105.862C106.583 29.1038 106.826 28.7569 106.826 28.1398V27.3641C106.826 26.6429 106.586 26.3999 105.862 26.3999H98.0525C97.2768 26.3999 96.9025 26.5338 96.5283 26.9873L95.2173 28.5115C94.7884 29.0197 94.7364 29.2873 94.7364 29.9812V36.1326C94.7364 36.829 94.843 37.1488 95.2718 37.6568L96.5283 39.1811C96.957 39.6891 97.2247 39.7684 98.1071 39.7684H105.864C106.586 39.7684 106.829 39.5281 106.829 38.8069V38.0311C106.829 37.3099 106.588 37.067 105.864 37.067H99.2025V37.072ZM109.446 28.514C109.017 29.0222 108.965 29.2897 108.965 29.9862V36.1376C108.965 36.834 109.071 37.1538 109.5 37.6618L110.757 39.186C111.186 39.6941 111.453 39.7734 112.336 39.7734H120.975C121.696 39.7734 121.937 39.5329 121.937 38.8092V38.1401C121.937 37.4189 121.696 37.1761 120.975 37.1761H113.166C112.284 37.1761 111.909 36.829 111.909 35.9467V35.3594C111.909 34.6382 112.122 34.4225 112.846 34.4225H121.672C122.393 34.4225 122.636 34.1822 122.636 33.461V29.8771C122.636 29.1013 122.581 28.861 122.1 28.3529L120.789 26.9898C120.361 26.5363 120.147 26.4024 119.372 26.4024H112.284C111.508 26.4024 111.134 26.5636 110.759 26.9898L109.446 28.514ZM112.841 31.964C112.12 31.964 111.904 31.7508 111.904 31.0271V30.5191C111.904 29.6368 112.519 28.9949 113.401 28.9949H118.19C119.072 28.9949 119.687 29.6095 119.687 30.4918V31.0271C119.687 31.7483 119.473 31.964 118.75 31.964H112.841ZM128.968 38.8092C128.968 39.5306 129.208 39.7734 129.93 39.7734H130.946C131.667 39.7734 131.91 39.5329 131.91 38.8092V30.0903C131.91 29.3691 132.15 29.1286 132.874 29.1286H135.816C136.537 29.1286 136.778 28.8883 136.778 28.1671V27.3641C136.778 26.6429 136.537 26.4024 135.816 26.4024H124.931C124.21 26.4024 123.967 26.6429 123.967 27.3641V28.1671C123.967 28.8883 124.207 29.1286 124.931 29.1286H127.927C128.648 29.1286 128.971 29.3691 128.971 30.0903V38.8092H128.968ZM138.916 38.8092C138.916 39.5306 139.157 39.7734 139.878 39.7734H142.473C143.088 39.7734 143.435 39.5602 143.702 39.0522L148.49 29.9862C148.57 29.8523 148.624 29.7459 148.81 29.7459C148.999 29.7459 149.078 29.8796 149.078 30.0134V38.8117C149.078 39.5329 149.318 39.7759 150.039 39.7759H151.056C151.777 39.7759 152.017 39.5354 152.017 38.8117V27.3641C152.017 26.6429 151.777 26.4024 151.056 26.4024H147.925C147.39 26.4024 147.177 26.5363 146.964 26.965L142.443 36.1649C142.364 36.2987 142.309 36.4326 142.123 36.4326C141.935 36.4326 141.856 36.326 141.856 36.1376V27.3641C141.856 26.6429 141.615 26.4024 140.892 26.4024H139.876C139.154 26.4024 138.914 26.6429 138.914 27.3641V38.8092" fill="white"/>
</svg>
