<svg width="80" height="80" viewBox="0 0 80 80" fill="none" xmlns="http://www.w3.org/2000/svg">
	<rect width="80" height="80" fill="none" />
	<path fill-rule="evenodd" clip-rule="evenodd" d="M17.101 30.4593C14.913 30.4593 13.6592 28.528 13.6592 26.8303V21.8404C13.6592 20.1427 14.9129 18.2114 17.101 18.2114H47.3891C49.5771 18.2114 50.8309 20.1427 50.8309 21.8404V26.8303C50.8309 28.528 49.5771 30.4593 47.3891 30.4593H17.101ZM17.7894 26.3767H46.7007V22.294H17.7894V26.3767Z" fill="#C4C8D6" />
	<path d="M28.1148 32.5007C26.9743 32.5007 26.0498 33.4146 26.0498 34.542C26.0498 35.6694 26.9743 36.5833 28.1148 36.5833H36.3752C37.5157 36.5833 38.4403 35.6694 38.4403 34.542C38.4403 33.4146 37.5157 32.5007 36.3752 32.5007H28.1148Z" fill="#C4C8D6" />
	<path d="M17.7894 37.9469C17.7894 36.8195 16.8648 35.9055 15.7243 35.9055C14.5838 35.9055 13.6592 36.8195 13.6592 37.9469V51.5557C13.6592 54.6842 16.355 56.9992 19.3956 56.9992L32.245 56.9966C33.3856 56.9966 34.3101 56.0827 34.3101 54.9553C34.3101 53.8279 33.3856 52.9139 32.245 52.9139L19.3956 52.9166C18.3809 52.9166 17.7894 52.1852 17.7894 51.5557V37.9469Z" fill="#C4C8D6" />
	<g clip-path="url(#clip0_2310_10999)">
		<path d="M54.0635 39.2216C61.2041 39.2216 66.9928 45.0102 66.9928 52.1508C66.9928 56.9345 64.3957 61.1134 60.5269 63.3514C59.7543 63.7984 59.4903 64.787 59.9372 65.5596C60.3842 66.3323 61.3728 66.5963 62.1455 66.1493C66.972 63.3574 70.2251 58.135 70.2251 52.1508C70.2251 43.225 62.9893 35.9892 54.0635 35.9892C53.1709 35.9892 52.4473 36.7128 52.4473 37.6054C52.4473 38.498 53.1709 39.2216 54.0635 39.2216Z" fill="#6F9BFF" />
		<path d="M54.0635 68.3158C54.9561 68.3158 55.6796 67.5922 55.6796 66.6996C55.6796 65.807 54.9561 65.0834 54.0635 65.0834C53.1979 65.0834 52.3538 64.9986 51.5384 64.8373C50.6628 64.6641 49.8125 65.2335 49.6393 66.1091C49.4661 66.9847 50.0355 67.835 50.9111 68.0082C51.932 68.2101 52.9862 68.3158 54.0635 68.3158Z" fill="#6F9BFF" />
		<path d="M49.2153 40.1641C50.0427 39.8292 50.4419 38.887 50.107 38.0596C49.7721 37.2322 48.8299 36.833 48.0025 37.1679C46.506 37.7737 45.1218 38.5965 43.8887 39.5968C43.1955 40.1591 43.0894 41.1769 43.6517 41.8701C44.214 42.5633 45.2317 42.6694 45.9249 42.1071C46.9127 41.3059 48.02 40.6479 49.2153 40.1641Z" fill="#6F9BFF" />
		<path d="M45.0827 65.5926C45.8244 66.0892 46.8282 65.8905 47.3248 65.1487C47.8213 64.407 47.6226 63.4032 46.8809 62.9067C45.4702 61.9623 44.2554 60.7474 43.311 59.3367C42.8144 58.595 41.8106 58.3963 41.0689 58.8928C40.3272 59.3894 40.1284 60.3932 40.625 61.1349C41.8045 62.8967 43.3209 64.4132 45.0827 65.5926Z" fill="#6F9BFF" />
		<path d="M41.6954 48.3731C41.956 47.5194 41.4752 46.6161 40.6215 46.3555C39.7678 46.0949 38.8645 46.5756 38.6039 47.4293C38.147 48.9258 37.9019 50.5128 37.9019 52.1541C37.9019 53.2314 38.0075 54.2857 38.2094 55.3065C38.3827 56.1821 39.2329 56.7515 40.1085 56.5783C40.9841 56.4051 41.5535 55.5548 41.3803 54.6792C41.219 53.8638 41.1342 53.0197 41.1342 52.1541C41.1342 50.8362 41.3309 49.5671 41.6954 48.3731Z" fill="#6F9BFF" />
		<path d="M52.4473 44.07C53.3399 44.07 54.0635 44.7936 54.0635 45.6862V52.7679L59.6348 55.5538C60.4331 55.953 60.7567 56.9238 60.3575 57.7222C59.9583 58.5205 58.9875 58.844 58.1891 58.4448L51.7674 55.2336C51.2145 54.9769 50.8311 54.4167 50.8311 53.767V45.6862C50.8311 44.7936 51.5547 44.07 52.4473 44.07Z" fill="#6F9BFF" />
	</g>
	<defs>
		<clipPath id="clip0_2310_10999">
			<rect width="38.7879" height="38.7879" fill="white" transform="translate(34.6694 32.7569)" />
		</clipPath>
	</defs>
</svg>
