<svg width="18" height="18" viewBox="0 0 18 18" fill="none" xmlns="http://www.w3.org/2000/svg">
<path d="M9 6C9.55228 6 10 5.55228 10 5C10 4.44772 9.55228 4 9 4C8.44771 4 8 4.44772 8 5C8 5.55228 8.44771 6 9 6Z" fill="#9CA4BA"/>
<path d="M10 8C10 7.44772 9.55229 7 9 7C8.44771 7 8 7.44772 8 8V13C8 13.5523 8.44772 14 9 14C9.55229 14 10 13.5523 10 13V8Z" fill="#9CA4BA"/>
<path fill-rule="evenodd" clip-rule="evenodd" d="M0 9C0 4.02944 4.02944 0 9 0C13.9706 0 18 4.02944 18 9C18 13.9706 13.9706 18 9 18C4.02944 18 0 13.9706 0 9ZM9 2C5.13401 2 2 5.13401 2 9C2 12.866 5.13401 16 9 16C12.866 16 16 12.866 16 9C16 5.13401 12.866 2 9 2Z" fill="#9CA4BA"/>
</svg>
