<svg width="393" height="492" viewBox="0 0 393 492" fill="none" xmlns="http://www.w3.org/2000/svg">
	<g clip-path="url(#clip0_2373_6256)">
		<rect width="393" height="492" fill="none" />
		<path d="M157.195 243.445L66.1642 299.144C58.9362 303.567 60.1402 314.412 68.1621 317.141L229.537 372.051C232.35 373.008 235.443 372.665 237.977 371.114L329.008 315.415C336.236 310.993 335.032 300.148 327.01 297.418L165.635 242.508C162.822 241.551 159.729 241.895 157.195 243.445Z" fill="white" />
		<path d="M157.195 243.445L66.1642 299.144C58.9362 303.567 60.1402 314.412 68.1621 317.141L229.537 372.051C232.35 373.008 235.443 372.665 237.977 371.114L329.008 315.415C336.236 310.993 335.032 300.148 327.01 297.418L165.635 242.508C162.822 241.551 159.729 241.895 157.195 243.445Z" fill="#9BB9FF" fill-opacity="0.1" />
		<path d="M157.195 243.445L66.1642 299.144C58.9362 303.567 60.1402 314.412 68.1621 317.141L229.537 372.051C232.35 373.008 235.443 372.665 237.977 371.114L329.008 315.415C336.236 310.993 335.032 300.148 327.01 297.418L165.635 242.508C162.822 241.551 159.729 241.895 157.195 243.445Z" stroke="#DEE4F2" stroke-width="1.9714" />
		<path d="M83.7734 312.579L231.549 362.614" stroke="#DEE4F2" stroke-opacity="0.68" stroke-width="1.9714" />
		<path d="M91.3008 310.21L239.076 360.246" stroke="#DEE4F2" stroke-opacity="0.68" stroke-width="1.9714" />
		<path d="M97.3008 307.21L245.076 357.246" stroke="#DEE4F2" stroke-opacity="0.68" stroke-width="1.9714" />
		<path d="M103.302 303.579L251.077 353.614" stroke="#DEE4F2" stroke-opacity="0.68" stroke-width="1.9714" />
		<path d="M110.829 301.21L258.604 351.246" stroke="#DEE4F2" stroke-opacity="0.68" stroke-width="1.9714" />
		<path d="M116.829 298.21L264.604 348.246" stroke="#DEE4F2" stroke-opacity="0.68" stroke-width="1.9714" />
		<path d="M123.301 294.579L271.076 344.614" stroke="#DEE4F2" stroke-opacity="0.68" stroke-width="1.9714" />
		<path d="M129.829 291.21L277.604 341.246" stroke="#DEE4F2" stroke-opacity="0.68" stroke-width="1.9714" />
		<path d="M135.829 288.21L283.604 338.246" stroke="#DEE4F2" stroke-opacity="0.68" stroke-width="1.9714" />
		<path d="M141.829 284.579L289.604 334.614" stroke="#DEE4F2" stroke-opacity="0.68" stroke-width="1.9714" />
		<path d="M147.301 281.21L295.076 331.246" stroke="#DEE4F2" stroke-opacity="0.68" stroke-width="1.9714" />
		<path d="M153.301 278.21L301.076 328.246" stroke="#DEE4F2" stroke-opacity="0.68" stroke-width="1.9714" />
		<path d="M141.828 284.579L289.604 334.614" stroke="#DEE4F2" stroke-opacity="0.68" stroke-width="1.9714" />
		<path d="M147.301 281.21L295.076 331.246" stroke="#DEE4F2" stroke-opacity="0.68" stroke-width="1.9714" />
		<path d="M153.301 278.21L301.076 328.246" stroke="#DEE4F2" stroke-opacity="0.68" stroke-width="1.9714" />
		<path d="M158.773 273.998L306.549 324.033" stroke="#DEE4F2" stroke-opacity="0.68" stroke-width="1.9714" />
		<path d="M164.246 270.629L312.021 320.665" stroke="#DEE4F2" stroke-opacity="0.68" stroke-width="1.9714" />
		<path d="M330.006 317.084L328.704 316.642L161.063 259.789L160.395 259.561L160.395 241.655L161.693 242.091L329.334 298.282L330.006 298.507L330.006 317.084Z" fill="#F5F8FF" stroke="#DEE4F2" stroke-width="1.9714" />
		<path d="M235.516 383.046C235.516 383.572 234.172 383.998 232.516 383.998C230.859 383.998 229.516 383.572 229.516 383.046C229.516 382.521 230.859 382.095 232.516 382.095C234.172 382.095 235.516 382.521 235.516 383.046Z" fill="#D9D9D9" />
		<path d="M235.516 345.949C235.516 346.474 234.172 346.9 232.516 346.9C230.859 346.9 229.516 346.474 229.516 345.949C229.516 345.424 230.859 344.998 232.516 344.998C234.172 344.998 235.516 345.424 235.516 345.949Z" fill="#D9D9D9" />
		<path d="M229.516 345.968L235.516 345.949L235.516 383.046L229.516 383.046L229.516 345.968Z" fill="#D9D9D9" />
		<ellipse cx="232.516" cy="345.949" rx="3" ry="0.95122" fill="#B7B7B7" />
		<path d="M326.516 334.046C326.516 334.572 325.172 334.998 323.516 334.998C321.859 334.998 320.516 334.572 320.516 334.046C320.516 333.521 321.859 333.095 323.516 333.095C325.172 333.095 326.516 333.521 326.516 334.046Z" fill="#D9D9D9" />
		<path d="M326.516 296.949C326.516 297.474 325.172 297.9 323.516 297.9C321.859 297.9 320.516 297.474 320.516 296.949C320.516 296.424 321.859 295.998 323.516 295.998C325.172 295.998 326.516 296.424 326.516 296.949Z" fill="#D9D9D9" />
		<path d="M320.516 296.968L326.516 296.949L326.516 334.046L320.516 334.046L320.516 296.968Z" fill="#D9D9D9" />
		<ellipse cx="323.516" cy="296.949" rx="3" ry="0.95122" fill="#B7B7B7" />
		<path d="M159.876 260.025L159.876 240.998L58.5205 301.888L59.8768 319.998L159.876 260.025Z" fill="#F5F8FF" stroke="#DEE4F2" stroke-width="1.9714" />
		<path d="M76.5205 321.046C76.5205 321.572 75.1774 321.998 73.5205 321.998C71.8637 321.998 70.5205 321.572 70.5205 321.046C70.5205 320.521 71.8637 320.095 73.5205 320.095C75.1774 320.095 76.5205 320.521 76.5205 321.046Z" fill="#D9D9D9" />
		<path d="M76.5205 283.949C76.5205 284.474 75.1774 284.9 73.5205 284.9C71.8637 284.9 70.5205 284.474 70.5205 283.949C70.5205 283.424 71.8637 282.998 73.5205 282.998C75.1774 282.998 76.5205 283.424 76.5205 283.949Z" fill="#D9D9D9" />
		<path d="M70.5211 283.968L76.5205 283.949L76.5205 321.046L70.5205 321.046L70.5211 283.968Z" fill="#D9D9D9" />
		<ellipse cx="73.5205" cy="283.949" rx="3" ry="0.95122" fill="#B7B7B7" />
		<path d="M333.506 333.787L333.024 334.073L235.875 391.93L234.386 392.818L234.386 371.497L234.867 371.21L323.345 318.515L331.729 307.252L333.506 304.867L333.506 333.787Z" fill="white" />
		<path d="M333.506 333.787L333.024 334.073L235.875 391.93L234.386 392.818L234.386 371.497L234.867 371.21L323.345 318.515L331.729 307.252L333.506 304.867L333.506 333.787Z" fill="#9BB9FF" fill-opacity="0.1" />
		<path d="M333.506 333.787L333.024 334.073L235.875 391.93L234.386 392.818L234.386 371.497L234.867 371.21L323.345 318.515L331.729 307.252L333.506 304.867L333.506 333.787Z" stroke="#DEE4F2" stroke-width="1.9714" />
		<path d="M232.243 393.17L230.938 392.724L61.7021 334.873L61.0352 334.645L61.0352 306.156L62.5654 307.171L86.959 323.346L231.57 371.866L232.243 372.092L232.243 393.17Z" fill="white" />
		<path d="M232.243 393.17L230.938 392.724L61.7021 334.873L61.0352 334.645L61.0352 306.156L62.5654 307.171L86.959 323.346L231.57 371.866L232.243 372.092L232.243 393.17Z" fill="#9BB9FF" fill-opacity="0.1" />
		<path d="M232.243 393.17L230.938 392.724L61.7021 334.873L61.0352 334.645L61.0352 306.156L62.5654 307.171L86.959 323.346L231.57 371.866L232.243 372.092L232.243 393.17Z" stroke="#DEE4F2" stroke-width="1.9714" />
		<path d="M157.196 187.305L66.1651 243.004C58.9372 247.427 60.1412 258.272 68.1631 261.001L229.538 315.911C232.351 316.868 235.444 316.525 237.978 314.974L329.009 259.275C336.237 254.853 335.033 244.008 327.011 241.278L165.636 186.368C162.823 185.411 159.73 185.755 157.196 187.305Z" fill="white" />
		<path d="M157.196 187.305L66.1651 243.004C58.9372 247.427 60.1412 258.272 68.1631 261.001L229.538 315.911C232.351 316.868 235.444 316.525 237.978 314.974L329.009 259.275C336.237 254.853 335.033 244.008 327.011 241.278L165.636 186.368C162.823 185.411 159.73 185.755 157.196 187.305Z" fill="#9BB9FF" fill-opacity="0.1" />
		<path d="M157.196 187.305L66.1651 243.004C58.9372 247.427 60.1412 258.272 68.1631 261.001L229.538 315.911C232.351 316.868 235.444 316.525 237.978 314.974L329.009 259.275C336.237 254.853 335.033 244.008 327.011 241.278L165.636 186.368C162.823 185.411 159.73 185.755 157.196 187.305Z" stroke="#DEE4F2" stroke-width="1.9714" />
		<path d="M135.441 256.017C135.759 255.948 136.157 256.085 136.951 256.356L166.65 266.522C167.083 266.671 167.3 266.745 167.462 266.877C167.624 267.009 167.749 267.183 167.821 267.38C167.894 267.576 167.894 267.806 167.894 268.264L167.894 269.942C167.894 270.782 167.894 271.202 167.727 271.48C167.56 271.758 167.285 271.954 166.969 272.022C166.651 272.091 166.254 271.955 165.46 271.684L162.731 270.752L162.729 270.791C162.687 271.589 162.665 271.988 162.492 272.252C162.32 272.515 162.049 272.697 161.741 272.759C161.432 272.821 161.053 272.692 160.297 272.434L159.187 272.055L159.187 272.17C159.187 273.009 159.187 273.428 159.02 273.707C158.853 273.984 158.579 274.181 158.263 274.249C157.945 274.318 157.547 274.182 156.753 273.911L140.698 268.43C140.265 268.282 140.048 268.207 139.886 268.075C139.723 267.943 139.598 267.769 139.525 267.572C139.453 267.376 139.453 267.146 139.453 266.689L139.453 265.317L138.69 265.058C138.257 264.91 138.04 264.835 137.878 264.703C137.715 264.571 137.59 264.397 137.518 264.2C137.445 264.004 137.445 263.774 137.445 263.315L137.445 262.119L135.761 261.545C135.327 261.397 135.111 261.323 134.948 261.19C134.785 261.058 134.661 260.884 134.588 260.688C134.515 260.491 134.516 260.262 134.516 259.804L134.516 258.097C134.516 257.257 134.516 256.836 134.684 256.558C134.851 256.28 135.125 256.085 135.441 256.017Z" fill="#2B2D33" />
		<path d="M124.516 262.599L128.958 278.981L153.34 264.459L135.597 255.999L124.516 262.599Z" fill="#2B2D33" />
		<path d="M332.007 242.943L330.705 242.502L163.064 185.648L162.396 185.421L162.396 167.515L163.694 167.95L331.335 224.142L332.007 224.366L332.007 242.943Z" fill="#F5F8FF" stroke="#DEE4F2" stroke-width="1.9714" />
		<path d="M229.379 268.124L229.903 268.303" stroke="#DEE4F2" stroke-width="1.9714" stroke-linecap="round" />
		<path d="M232.379 269.124L232.903 269.303" stroke="#DEE4F2" stroke-width="1.9714" stroke-linecap="round" />
		<path d="M226.379 270.124L226.903 270.303" stroke="#DEE4F2" stroke-width="1.9714" stroke-linecap="round" />
		<path d="M229.379 271.124L229.903 271.303" stroke="#DEE4F2" stroke-width="1.9714" stroke-linecap="round" />
		<path d="M223.379 272.124L223.903 272.303" stroke="#DEE4F2" stroke-width="1.9714" stroke-linecap="round" />
		<path d="M226.379 273.124L226.903 273.303" stroke="#DEE4F2" stroke-width="1.9714" stroke-linecap="round" />
		<path d="M220.379 274.124L220.903 274.303" stroke="#DEE4F2" stroke-width="1.9714" stroke-linecap="round" />
		<path d="M223.379 275.124L223.903 275.303" stroke="#DEE4F2" stroke-width="1.9714" stroke-linecap="round" />
		<path d="M161.877 185.885L161.877 166.857L60.5215 227.747L61.8778 245.857L161.877 185.885Z" fill="#F5F8FF" stroke="#DEE4F2" stroke-width="1.9714" />
		<path d="M235.518 307.217C235.518 307.648 234.174 307.998 232.518 307.998C230.861 307.998 229.518 307.648 229.518 307.217C229.518 306.786 230.861 306.437 232.518 306.437C234.174 306.437 235.518 306.786 235.518 307.217Z" fill="#D9D9D9" />
		<path d="M235.518 276.778C235.518 277.209 234.174 277.559 232.518 277.559C230.861 277.559 229.518 277.209 229.518 276.778C229.518 276.347 230.861 275.998 232.518 275.998C234.174 275.998 235.518 276.347 235.518 276.778Z" fill="#D9D9D9" />
		<path d="M229.518 276.794L235.518 276.778L235.518 307.217L229.518 307.217L229.518 276.794Z" fill="#D9D9D9" />
		<ellipse cx="232.518" cy="276.778" rx="3" ry="0.780488" fill="#B7B7B7" />
		<path d="M326.518 260.217C326.518 260.648 325.174 260.998 323.518 260.998C321.861 260.998 320.518 260.648 320.518 260.217C320.518 259.786 321.861 259.437 323.518 259.437C325.174 259.437 326.518 259.786 326.518 260.217Z" fill="#D9D9D9" />
		<path d="M326.518 229.778C326.518 230.209 325.174 230.559 323.518 230.559C321.861 230.559 320.518 230.209 320.518 229.778C320.518 229.347 321.861 228.998 323.518 228.998C325.174 228.998 326.518 229.347 326.518 229.778Z" fill="#D9D9D9" />
		<path d="M320.518 229.794L326.518 229.778L326.518 260.217L320.518 260.217L320.518 229.794Z" fill="#D9D9D9" />
		<ellipse cx="323.518" cy="229.778" rx="3" ry="0.780488" fill="#B7B7B7" />
		<path d="M79.5186 256.217C79.5186 256.648 78.1754 256.998 76.5186 256.998C74.8617 256.998 73.5186 256.648 73.5186 256.217C73.5186 255.786 74.8617 255.437 76.5186 255.437C78.1754 255.437 79.5186 255.786 79.5186 256.217Z" fill="#D9D9D9" />
		<path d="M79.5186 225.778C79.5186 226.209 78.1754 226.559 76.5186 226.559C74.8617 226.559 73.5186 226.209 73.5186 225.778C73.5186 225.347 74.8617 224.998 76.5186 224.998C78.1754 224.998 79.5186 225.347 79.5186 225.778Z" fill="#D9D9D9" />
		<path d="M73.5191 225.794L79.5186 225.778L79.5186 256.217L73.5186 256.217L73.5191 225.794Z" fill="#D9D9D9" />
		<ellipse cx="76.5186" cy="225.778" rx="3" ry="0.780488" fill="#B7B7B7" />
		<path d="M333.5 224.486L333.883 255.845L333.891 256.413L333.402 256.704L235.869 314.79L234.38 315.677L234.38 294.356L234.861 294.069L323.471 241.296C323.478 241.29 323.489 241.284 323.5 241.276C323.534 241.252 323.586 241.215 323.652 241.168C323.785 241.073 323.978 240.934 324.215 240.76C324.688 240.413 325.336 239.926 326.033 239.373C327.459 238.241 328.987 236.907 329.73 235.909C330.004 235.541 330.304 234.708 330.569 233.474C330.824 232.293 331.016 230.902 331.16 229.557C331.303 228.216 331.397 226.941 331.453 226C331.481 225.53 331.501 225.144 331.513 224.877C331.519 224.743 331.523 224.639 331.525 224.569C331.527 224.534 331.528 224.508 331.528 224.49C331.529 224.481 331.529 224.475 331.529 224.47L331.529 224.464L333.5 224.486Z" fill="white" />
		<path d="M333.5 224.486L333.883 255.845L333.891 256.413L333.402 256.704L235.869 314.79L234.38 315.677L234.38 294.356L234.861 294.069L323.471 241.296C323.478 241.29 323.489 241.284 323.5 241.276C323.534 241.252 323.586 241.215 323.652 241.168C323.785 241.073 323.978 240.934 324.215 240.76C324.688 240.413 325.336 239.926 326.033 239.373C327.459 238.241 328.987 236.907 329.73 235.909C330.004 235.541 330.304 234.708 330.569 233.474C330.824 232.293 331.016 230.902 331.16 229.557C331.303 228.216 331.397 226.941 331.453 226C331.481 225.53 331.501 225.144 331.513 224.877C331.519 224.743 331.523 224.639 331.525 224.569C331.527 224.534 331.528 224.508 331.528 224.49C331.529 224.481 331.529 224.475 331.529 224.47L331.529 224.464L333.5 224.486Z" fill="#9BB9FF" fill-opacity="0.1" />
		<path d="M333.5 224.486L333.883 255.845L333.891 256.413L333.402 256.704L235.869 314.79L234.38 315.677L234.38 294.356L234.861 294.069L323.471 241.296C323.478 241.29 323.489 241.284 323.5 241.276C323.534 241.252 323.586 241.215 323.652 241.168C323.785 241.073 323.978 240.934 324.215 240.76C324.688 240.413 325.336 239.926 326.033 239.373C327.459 238.241 328.987 236.907 329.73 235.909C330.004 235.541 330.304 234.708 330.569 233.474C330.824 232.293 331.016 230.902 331.16 229.557C331.303 228.216 331.397 226.941 331.453 226C331.481 225.53 331.501 225.144 331.513 224.877C331.519 224.743 331.523 224.639 331.525 224.569C331.527 224.534 331.528 224.508 331.528 224.49C331.529 224.481 331.529 224.475 331.529 224.47L331.529 224.464L333.5 224.486Z" stroke="#DEE4F2" stroke-width="1.9714" />
		<path d="M232.237 316.029L230.933 315.583L61.6963 257.732L61.0293 257.504L61.0293 229.016L62.5596 230.03L86.9531 246.205L231.564 294.726L232.237 294.951L232.237 316.029Z" fill="white" />
		<path d="M232.237 316.029L230.933 315.583L61.6963 257.732L61.0293 257.504L61.0293 229.016L62.5596 230.03L86.9531 246.205L231.564 294.726L232.237 294.951L232.237 316.029Z" fill="#9BB9FF" fill-opacity="0.1" />
		<path d="M232.237 316.029L230.933 315.583L61.6963 257.732L61.0293 257.504L61.0293 229.016L62.5596 230.03L86.9531 246.205L231.564 294.726L232.237 294.951L232.237 316.029Z" stroke="#DEE4F2" stroke-width="1.9714" />
		<path d="M126.273 264.358C126.591 264.29 126.989 264.426 127.783 264.698L157.482 274.864C157.915 275.012 158.132 275.087 158.294 275.219C158.456 275.351 158.581 275.525 158.653 275.722C158.726 275.918 158.726 276.148 158.726 276.605L158.726 278.284C158.726 279.123 158.726 279.543 158.559 279.822C158.392 280.099 158.117 280.296 157.801 280.364C157.483 280.432 157.086 280.296 156.292 280.025L153.563 279.094L153.562 279.133C153.519 279.93 153.497 280.33 153.324 280.594C153.152 280.856 152.881 281.039 152.573 281.1C152.264 281.162 151.885 281.033 151.129 280.775L150.02 280.396L150.02 280.512C150.02 281.351 150.019 281.77 149.852 282.049C149.685 282.326 149.411 282.522 149.095 282.591C148.777 282.659 148.379 282.524 147.585 282.253L131.53 276.771C131.097 276.623 130.88 276.549 130.718 276.417C130.555 276.284 130.43 276.111 130.357 275.914C130.285 275.717 130.285 275.488 130.285 275.03L130.285 273.659L129.522 273.399C129.089 273.251 128.872 273.177 128.71 273.045C128.547 272.912 128.422 272.739 128.35 272.542C128.277 272.345 128.277 272.115 128.277 271.657L128.277 270.461L126.593 269.887C126.159 269.739 125.943 269.664 125.78 269.532C125.617 269.4 125.493 269.226 125.42 269.029C125.347 268.833 125.348 268.603 125.348 268.145L125.348 266.438C125.348 265.598 125.348 265.178 125.516 264.899C125.683 264.622 125.957 264.426 126.273 264.358Z" fill="#2B2D33" />
		<path d="M142.145 269.614L130.761 276.445C130.747 276.435 130.731 276.428 130.718 276.417C130.652 276.363 130.594 276.301 130.542 276.235L141.782 269.49L142.145 269.614Z" fill="white" />
		<path d="M142.145 269.614L130.761 276.445C130.747 276.435 130.731 276.428 130.718 276.417C130.652 276.363 130.594 276.301 130.542 276.235L141.782 269.49L142.145 269.614Z" fill="#9BB9FF" fill-opacity="0.1" />
		<path d="M139.224 268.614L130.285 273.978L130.285 273.659L130.261 273.65L138.86 268.49L139.224 268.614Z" fill="white" />
		<path d="M139.224 268.614L130.285 273.978L130.285 273.659L130.261 273.65L138.86 268.49L139.224 268.614Z" fill="#9BB9FF" fill-opacity="0.1" />
		<path d="M134.496 266.996L128.277 270.729L128.277 270.461L128.199 270.434L134.134 266.872L134.496 266.996Z" fill="white" />
		<path d="M134.496 266.996L128.277 270.729L128.277 270.461L128.199 270.434L134.134 266.872L134.496 266.996Z" fill="#9BB9FF" fill-opacity="0.1" />
		<path d="M158.337 275.261C158.411 275.328 158.476 275.403 158.53 275.486L150.226 280.47L150.02 280.399L150.02 280.252L158.337 275.261Z" fill="white" />
		<path d="M158.337 275.261C158.411 275.328 158.476 275.403 158.53 275.486L150.226 280.47L150.02 280.399L150.02 280.252L158.337 275.261Z" fill="#9BB9FF" fill-opacity="0.1" />
		<path d="M158.707 275.988C158.716 276.081 158.723 276.188 158.725 276.32L153.907 279.211L153.579 279.099L153.582 279.063L158.707 275.988Z" fill="white" />
		<path d="M158.707 275.988C158.716 276.081 158.723 276.188 158.725 276.32L153.907 279.211L153.579 279.099L153.582 279.063L158.707 275.988Z" fill="#9BB9FF" fill-opacity="0.1" />
		<path d="M99.4091 256.406C101.244 257.024 102.713 259.091 102.713 261.023C102.713 262.955 101.225 264.018 99.4091 263.4C97.5931 262.781 96.1055 260.714 96.1055 258.782C96.1055 256.85 97.5931 255.788 99.4091 256.406Z" fill="#2B2D33" />
		<path d="M166.651 279.431C168.487 280.05 169.955 282.117 169.955 284.049C169.955 285.981 168.467 287.043 166.651 286.425C164.835 285.807 163.348 283.74 163.348 281.808C163.348 279.876 164.835 278.813 166.651 279.431Z" fill="#2B2D33" />
		<path d="M108.159 259.359C109.994 259.977 111.463 262.044 111.463 263.976C111.463 265.908 109.975 266.971 108.159 266.353C106.343 265.735 104.855 263.667 104.855 261.735C104.855 259.803 106.343 258.741 108.159 259.359Z" fill="#2B2D33" />
		<path d="M175.401 282.384C177.237 283.003 178.705 285.07 178.705 287.002C178.705 288.934 177.217 289.996 175.401 289.378C173.585 288.76 172.098 286.693 172.098 284.761C172.098 282.829 173.585 281.766 175.401 282.384Z" fill="#2B2D33" />
		<path d="M116.905 262.312C118.741 262.93 120.209 264.998 120.209 266.93C120.209 268.862 118.721 269.924 116.905 269.306C115.089 268.688 113.602 266.62 113.602 264.688C113.602 262.757 115.089 261.694 116.905 262.312Z" fill="#2B2D33" />
		<path d="M184.147 285.338C185.983 285.956 187.451 288.023 187.451 289.955C187.451 291.887 185.963 292.949 184.147 292.331C182.331 291.713 180.844 289.646 180.844 287.714C180.844 285.782 182.331 284.719 184.147 285.338Z" fill="#2B2D33" />
		<path d="M225.516 231.999L242.299 237.728" stroke="#DEE4F2" stroke-width="1.9714" stroke-linecap="round" />
		<path d="M229.516 228.999L246.299 234.728" stroke="#DEE4F2" stroke-width="1.9714" stroke-linecap="round" />
		<path d="M171.516 242.999L188.299 248.728" stroke="#DEE4F2" stroke-width="1.9714" stroke-linecap="round" />
		<path d="M94.5156 242.999L111.299 248.728" stroke="#DEE4F2" stroke-width="1.9714" stroke-linecap="round" />
		<path d="M139.516 228.999L147.907 231.864" stroke="#DEE4F2" stroke-width="1.9714" stroke-linecap="round" />
		<path d="M284.516 235.999L286.614 236.715" stroke="#DEE4F2" stroke-width="1.9714" stroke-linecap="round" />
		<path d="M138.516 204.999L139.04 205.178" stroke="#DEE4F2" stroke-width="1.9714" stroke-linecap="round" />
		<path d="M141.516 205.999L142.04 206.178" stroke="#DEE4F2" stroke-width="1.9714" stroke-linecap="round" />
		<path d="M135.516 206.999L136.04 207.178" stroke="#DEE4F2" stroke-width="1.9714" stroke-linecap="round" />
		<path d="M138.516 207.999L139.04 208.178" stroke="#DEE4F2" stroke-width="1.9714" stroke-linecap="round" />
		<path d="M132.516 208.999L133.04 209.178" stroke="#DEE4F2" stroke-width="1.9714" stroke-linecap="round" />
		<path d="M135.516 209.999L136.04 210.178" stroke="#DEE4F2" stroke-width="1.9714" stroke-linecap="round" />
		<path d="M129.516 210.999L130.04 211.178" stroke="#DEE4F2" stroke-width="1.9714" stroke-linecap="round" />
		<path d="M132.516 211.999L133.04 212.178" stroke="#DEE4F2" stroke-width="1.9714" stroke-linecap="round" />
		<path d="M211.379 231.124L211.903 231.303" stroke="#DEE4F2" stroke-width="1.9714" stroke-linecap="round" />
		<path d="M214.379 232.124L214.903 232.303" stroke="#DEE4F2" stroke-width="1.9714" stroke-linecap="round" />
		<path d="M208.379 233.124L208.903 233.303" stroke="#DEE4F2" stroke-width="1.9714" stroke-linecap="round" />
		<path d="M211.379 234.124L211.903 234.303" stroke="#DEE4F2" stroke-width="1.9714" stroke-linecap="round" />
		<path d="M205.379 235.124L205.903 235.303" stroke="#DEE4F2" stroke-width="1.9714" stroke-linecap="round" />
		<path d="M208.379 236.124L208.903 236.303" stroke="#DEE4F2" stroke-width="1.9714" stroke-linecap="round" />
		<path d="M202.379 237.124L202.903 237.303" stroke="#DEE4F2" stroke-width="1.9714" stroke-linecap="round" />
		<path d="M205.379 238.124L205.903 238.303" stroke="#DEE4F2" stroke-width="1.9714" stroke-linecap="round" />
		<path d="M181.379 258.124L181.903 258.303" stroke="#DEE4F2" stroke-width="1.9714" stroke-linecap="round" />
		<path d="M184.379 259.124L184.903 259.303" stroke="#DEE4F2" stroke-width="1.9714" stroke-linecap="round" />
		<path d="M178.379 260.124L178.903 260.303" stroke="#DEE4F2" stroke-width="1.9714" stroke-linecap="round" />
		<path d="M181.379 261.124L181.903 261.303" stroke="#DEE4F2" stroke-width="1.9714" stroke-linecap="round" />
		<path d="M175.379 262.124L175.903 262.303" stroke="#DEE4F2" stroke-width="1.9714" stroke-linecap="round" />
		<path d="M178.379 263.124L178.903 263.303" stroke="#DEE4F2" stroke-width="1.9714" stroke-linecap="round" />
		<path d="M172.379 264.124L172.903 264.303" stroke="#DEE4F2" stroke-width="1.9714" stroke-linecap="round" />
		<path d="M175.379 265.124L175.903 265.303" stroke="#DEE4F2" stroke-width="1.9714" stroke-linecap="round" />
		<path d="M130.379 240.124L130.903 240.303" stroke="#DEE4F2" stroke-width="1.9714" stroke-linecap="round" />
		<path d="M133.379 241.124L133.903 241.303" stroke="#DEE4F2" stroke-width="1.9714" stroke-linecap="round" />
		<path d="M127.379 242.124L127.903 242.303" stroke="#DEE4F2" stroke-width="1.9714" stroke-linecap="round" />
		<path d="M130.379 243.124L130.903 243.303" stroke="#DEE4F2" stroke-width="1.9714" stroke-linecap="round" />
		<path d="M124.379 244.124L124.903 244.303" stroke="#DEE4F2" stroke-width="1.9714" stroke-linecap="round" />
		<path d="M127.379 245.124L127.903 245.303" stroke="#DEE4F2" stroke-width="1.9714" stroke-linecap="round" />
		<path d="M121.379 246.124L121.903 246.303" stroke="#DEE4F2" stroke-width="1.9714" stroke-linecap="round" />
		<path d="M124.379 247.124L124.903 247.303" stroke="#DEE4F2" stroke-width="1.9714" stroke-linecap="round" />
		<path d="M275.379 235.124L275.903 235.303" stroke="#DEE4F2" stroke-width="1.9714" stroke-linecap="round" />
		<path d="M278.379 236.124L278.903 236.303" stroke="#DEE4F2" stroke-width="1.9714" stroke-linecap="round" />
		<path d="M272.379 237.124L272.903 237.303" stroke="#DEE4F2" stroke-width="1.9714" stroke-linecap="round" />
		<path d="M275.379 238.124L275.903 238.303" stroke="#DEE4F2" stroke-width="1.9714" stroke-linecap="round" />
		<path d="M269.379 239.124L269.903 239.303" stroke="#DEE4F2" stroke-width="1.9714" stroke-linecap="round" />
		<path d="M272.379 240.124L272.903 240.303" stroke="#DEE4F2" stroke-width="1.9714" stroke-linecap="round" />
		<path d="M266.379 241.124L266.903 241.303" stroke="#DEE4F2" stroke-width="1.9714" stroke-linecap="round" />
		<path d="M269.379 242.124L269.903 242.303" stroke="#DEE4F2" stroke-width="1.9714" stroke-linecap="round" />
		<path d="M100.516 238.541L116.854 244.118C117.136 244.215 117.446 244.18 117.7 244.024L127.516 237.999" stroke="#DEE4F2" stroke-width="1.9714" stroke-linecap="round" />
		<path d="M110.332 225.246L102.328 230.159C101.607 230.601 101.727 231.684 102.528 231.957L116.855 236.848C117.137 236.944 117.447 236.909 117.701 236.753L125.705 231.841C126.426 231.398 126.306 230.315 125.505 230.042L111.178 225.152C110.896 225.055 110.586 225.09 110.332 225.246Z" fill="white" />
		<path d="M110.332 225.246L102.328 230.159C101.607 230.601 101.727 231.684 102.528 231.957L116.855 236.848C117.137 236.944 117.447 236.909 117.701 236.753L125.705 231.841C126.426 231.398 126.306 230.315 125.505 230.042L111.178 225.152C110.896 225.055 110.586 225.09 110.332 225.246Z" fill="#9BB9FF" fill-opacity="0.1" />
		<path d="M110.332 225.246L102.328 230.159C101.607 230.601 101.727 231.684 102.528 231.957L116.855 236.848C117.137 236.944 117.447 236.909 117.701 236.753L125.705 231.841C126.426 231.398 126.306 230.315 125.505 230.042L111.178 225.152C110.896 225.055 110.586 225.09 110.332 225.246Z" fill="black" fill-opacity="0.2" />
		<path d="M110.332 225.246L102.328 230.159C101.607 230.601 101.727 231.684 102.528 231.957L116.855 236.848C117.137 236.944 117.447 236.909 117.701 236.753L125.705 231.841C126.426 231.398 126.306 230.315 125.505 230.042L111.178 225.152C110.896 225.055 110.586 225.09 110.332 225.246Z" stroke="#DEE4F2" stroke-width="1.9714" />
		<path d="M110.332 224.246L102.328 229.159C101.607 229.601 101.727 230.684 102.528 230.957L116.855 235.848C117.137 235.944 117.447 235.909 117.701 235.753L125.705 230.841C126.426 230.398 126.306 229.315 125.505 229.042L111.178 224.152C110.896 224.055 110.586 224.09 110.332 224.246Z" stroke="#DEE4F2" stroke-width="1.9714" />
		<path d="M96.5166 236.999L97.0411 237.178" stroke="#DEE4F2" stroke-width="1.9714" stroke-linecap="round" />
		<path d="M90.5156 241.999L91.0401 242.178" stroke="#DEE4F2" stroke-width="1.9714" stroke-linecap="round" />
		<path d="M219.22 236.085L211.216 240.998C210.495 241.44 210.615 242.523 211.416 242.796L225.743 247.687C226.025 247.783 226.335 247.748 226.589 247.593L234.593 242.68C235.314 242.237 235.194 241.154 234.393 240.881L220.066 235.991C219.784 235.894 219.474 235.929 219.22 236.085Z" fill="white" />
		<path d="M219.22 236.085L211.216 240.998C210.495 241.44 210.615 242.523 211.416 242.796L225.743 247.687C226.025 247.783 226.335 247.748 226.589 247.593L234.593 242.68C235.314 242.237 235.194 241.154 234.393 240.881L220.066 235.991C219.784 235.894 219.474 235.929 219.22 236.085Z" fill="#9BB9FF" fill-opacity="0.1" />
		<path d="M219.22 236.085L211.216 240.998C210.495 241.44 210.615 242.523 211.416 242.796L225.743 247.687C226.025 247.783 226.335 247.748 226.589 247.593L234.593 242.68C235.314 242.237 235.194 241.154 234.393 240.881L220.066 235.991C219.784 235.894 219.474 235.929 219.22 236.085Z" fill="black" fill-opacity="0.2" />
		<path d="M219.22 236.085L211.216 240.998C210.495 241.44 210.615 242.523 211.416 242.796L225.743 247.687C226.025 247.783 226.335 247.748 226.589 247.593L234.593 242.68C235.314 242.237 235.194 241.154 234.393 240.881L220.066 235.991C219.784 235.894 219.474 235.929 219.22 236.085Z" stroke="#DEE4F2" stroke-width="1.9714" />
		<path d="M219.22 235.085L211.216 239.998C210.495 240.44 210.615 241.523 211.416 241.796L225.743 246.687C226.025 246.783 226.335 246.748 226.589 246.593L234.593 241.68C235.314 241.237 235.194 240.154 234.393 239.881L220.066 234.991C219.784 234.894 219.474 234.929 219.22 235.085Z" stroke="#DEE4F2" stroke-width="1.9714" />
		<path d="M163.22 198.085L155.216 202.998C154.495 203.44 154.615 204.523 155.416 204.796L169.743 209.687C170.025 209.783 170.335 209.748 170.589 209.593L178.593 204.68C179.314 204.237 179.194 203.154 178.393 202.881L164.066 197.991C163.784 197.894 163.474 197.929 163.22 198.085Z" fill="white" />
		<path d="M163.22 198.085L155.216 202.998C154.495 203.44 154.615 204.523 155.416 204.796L169.743 209.687C170.025 209.783 170.335 209.748 170.589 209.593L178.593 204.68C179.314 204.237 179.194 203.154 178.393 202.881L164.066 197.991C163.784 197.894 163.474 197.929 163.22 198.085Z" fill="#9BB9FF" fill-opacity="0.1" />
		<path d="M163.22 198.085L155.216 202.998C154.495 203.44 154.615 204.523 155.416 204.796L169.743 209.687C170.025 209.783 170.335 209.748 170.589 209.593L178.593 204.68C179.314 204.237 179.194 203.154 178.393 202.881L164.066 197.991C163.784 197.894 163.474 197.929 163.22 198.085Z" fill="black" fill-opacity="0.2" />
		<path d="M163.22 198.085L155.216 202.998C154.495 203.44 154.615 204.523 155.416 204.796L169.743 209.687C170.025 209.783 170.335 209.748 170.589 209.593L178.593 204.68C179.314 204.237 179.194 203.154 178.393 202.881L164.066 197.991C163.784 197.894 163.474 197.929 163.22 198.085Z" stroke="#DEE4F2" stroke-width="1.9714" />
		<path d="M163.22 197.085L155.216 201.998C154.495 202.44 154.615 203.523 155.416 203.796L169.743 208.687C170.025 208.783 170.335 208.748 170.589 208.593L178.593 203.68C179.314 203.237 179.194 202.154 178.393 201.881L164.066 196.991C163.784 196.894 163.474 196.929 163.22 197.085Z" stroke="#DEE4F2" stroke-width="1.9714" />
		<path d="M153.221 219.085L145.217 223.998C144.496 224.44 144.616 225.523 145.417 225.796L151.352 227.822C151.634 227.918 151.944 227.884 152.198 227.728L160.202 222.815C160.923 222.372 160.803 221.29 160.002 221.017L154.067 218.991C153.785 218.894 153.475 218.929 153.221 219.085Z" fill="white" />
		<path d="M153.221 219.085L145.217 223.998C144.496 224.44 144.616 225.523 145.417 225.796L151.352 227.822C151.634 227.918 151.944 227.884 152.198 227.728L160.202 222.815C160.923 222.372 160.803 221.29 160.002 221.017L154.067 218.991C153.785 218.894 153.475 218.929 153.221 219.085Z" fill="#9BB9FF" fill-opacity="0.1" />
		<path d="M153.221 219.085L145.217 223.998C144.496 224.44 144.616 225.523 145.417 225.796L151.352 227.822C151.634 227.918 151.944 227.884 152.198 227.728L160.202 222.815C160.923 222.372 160.803 221.29 160.002 221.017L154.067 218.991C153.785 218.894 153.475 218.929 153.221 219.085Z" fill="black" fill-opacity="0.2" />
		<path d="M153.221 219.085L145.217 223.998C144.496 224.44 144.616 225.523 145.417 225.796L151.352 227.822C151.634 227.918 151.944 227.884 152.198 227.728L160.202 222.815C160.923 222.372 160.803 221.29 160.002 221.017L154.067 218.991C153.785 218.894 153.475 218.929 153.221 219.085Z" stroke="#DEE4F2" stroke-width="1.9714" />
		<path d="M153.221 218.085L145.217 222.998C144.496 223.44 144.616 224.523 145.417 224.796L151.352 226.822C151.634 226.918 151.944 226.884 152.198 226.728L160.202 221.815C160.923 221.372 160.803 220.29 160.002 220.017L154.067 217.991C153.785 217.894 153.475 217.929 153.221 218.085Z" stroke="#DEE4F2" stroke-width="1.9714" />
		<path d="M181.34 198.999L187.72 201.177C188.521 201.45 188.642 202.533 187.92 202.976L179.516 208.135" stroke="#DEE4F2" stroke-width="1.9714" stroke-linecap="round" />
		<path d="M253.377 272.124L253.901 272.303" stroke="#DEE4F2" stroke-width="1.9714" stroke-linecap="round" />
		<path d="M256.377 273.124L256.901 273.303" stroke="#DEE4F2" stroke-width="1.9714" stroke-linecap="round" />
		<path d="M250.377 274.124L250.901 274.303" stroke="#DEE4F2" stroke-width="1.9714" stroke-linecap="round" />
		<path d="M253.377 275.124L253.901 275.303" stroke="#DEE4F2" stroke-width="1.9714" stroke-linecap="round" />
		<path d="M247.377 276.124L247.901 276.303" stroke="#DEE4F2" stroke-width="1.9714" stroke-linecap="round" />
		<path d="M250.377 277.124L250.901 277.303" stroke="#DEE4F2" stroke-width="1.9714" stroke-linecap="round" />
		<path d="M244.377 278.124L244.901 278.303" stroke="#DEE4F2" stroke-width="1.9714" stroke-linecap="round" />
		<path d="M247.377 279.124L247.901 279.303" stroke="#DEE4F2" stroke-width="1.9714" stroke-linecap="round" />
		<path d="M259.082 260.085L251.078 264.998C250.357 265.441 250.477 266.523 251.278 266.797L265.605 271.687C265.887 271.783 266.197 271.749 266.451 271.593L274.455 266.68C275.176 266.237 275.056 265.155 274.255 264.881L259.928 259.991C259.646 259.895 259.336 259.929 259.082 260.085Z" fill="white" />
		<path d="M259.082 260.085L251.078 264.998C250.357 265.441 250.477 266.523 251.278 266.797L265.605 271.687C265.887 271.783 266.197 271.749 266.451 271.593L274.455 266.68C275.176 266.237 275.056 265.155 274.255 264.881L259.928 259.991C259.646 259.895 259.336 259.929 259.082 260.085Z" fill="#9BB9FF" fill-opacity="0.1" />
		<path d="M259.082 260.085L251.078 264.998C250.357 265.441 250.477 266.523 251.278 266.797L265.605 271.687C265.887 271.783 266.197 271.749 266.451 271.593L274.455 266.68C275.176 266.237 275.056 265.155 274.255 264.881L259.928 259.991C259.646 259.895 259.336 259.929 259.082 260.085Z" fill="black" fill-opacity="0.2" />
		<path d="M259.082 260.085L251.078 264.998C250.357 265.441 250.477 266.523 251.278 266.797L265.605 271.687C265.887 271.783 266.197 271.749 266.451 271.593L274.455 266.68C275.176 266.237 275.056 265.155 274.255 264.881L259.928 259.991C259.646 259.895 259.336 259.929 259.082 260.085Z" stroke="#DEE4F2" stroke-width="1.9714" />
		<path d="M259.082 259.085L251.078 263.998C250.357 264.441 250.477 265.523 251.278 265.797L265.605 270.687C265.887 270.783 266.197 270.749 266.451 270.593L274.455 265.68C275.176 265.237 275.056 264.155 274.255 263.881L259.928 258.991C259.646 258.895 259.336 258.929 259.082 259.085Z" stroke="#DEE4F2" stroke-width="1.9714" />
		<path d="M277.201 260.999L283.582 263.177C284.382 263.451 284.503 264.533 283.782 264.976L275.377 270.135" stroke="#DEE4F2" stroke-width="1.9714" stroke-linecap="round" />
		<path d="M292.34 238.999L298.72 241.177C299.521 241.45 299.642 242.533 298.92 242.976L290.516 248.135" stroke="#DEE4F2" stroke-width="1.9714" stroke-linecap="round" />
		<path d="M170.16 250.27L162.156 255.183C161.435 255.625 161.556 256.708 162.356 256.981L168.291 259.007C168.573 259.103 168.884 259.069 169.138 258.913L177.141 254C177.863 253.557 177.742 252.475 176.941 252.202L171.006 250.176C170.724 250.079 170.414 250.114 170.16 250.27Z" fill="white" />
		<path d="M170.16 250.27L162.156 255.183C161.435 255.625 161.556 256.708 162.356 256.981L168.291 259.007C168.573 259.103 168.884 259.069 169.138 258.913L177.141 254C177.863 253.557 177.742 252.475 176.941 252.202L171.006 250.176C170.724 250.079 170.414 250.114 170.16 250.27Z" fill="#9BB9FF" fill-opacity="0.1" />
		<path d="M170.16 250.27L162.156 255.183C161.435 255.625 161.556 256.708 162.356 256.981L168.291 259.007C168.573 259.103 168.884 259.069 169.138 258.913L177.141 254C177.863 253.557 177.742 252.475 176.941 252.202L171.006 250.176C170.724 250.079 170.414 250.114 170.16 250.27Z" fill="black" fill-opacity="0.2" />
		<path d="M170.16 250.27L162.156 255.183C161.435 255.625 161.556 256.708 162.356 256.981L168.291 259.007C168.573 259.103 168.884 259.069 169.138 258.913L177.141 254C177.863 253.557 177.742 252.475 176.941 252.202L171.006 250.176C170.724 250.079 170.414 250.114 170.16 250.27Z" stroke="#DEE4F2" stroke-width="1.9714" />
		<path d="M170.16 249.27L162.156 254.183C161.435 254.625 161.555 255.708 162.356 255.981L168.291 258.007C168.573 258.103 168.884 258.069 169.138 257.913L177.141 253C177.863 252.557 177.742 251.475 176.941 251.202L171.006 249.176C170.724 249.079 170.414 249.114 170.16 249.27Z" stroke="#DEE4F2" stroke-width="1.9714" />
		<path d="M158.732 249.999L150.327 255.158C149.606 255.601 149.726 256.683 150.527 256.957L165.299 261.999" stroke="#DEE4F2" stroke-width="1.9714" stroke-linecap="round" />
		<path d="M282.16 240.27L274.156 245.183C273.435 245.625 273.556 246.708 274.356 246.981L280.291 249.007C280.573 249.103 280.884 249.069 281.138 248.913L289.141 244C289.863 243.557 289.742 242.475 288.941 242.202L283.006 240.176C282.724 240.079 282.414 240.114 282.16 240.27Z" fill="white" />
		<path d="M282.16 240.27L274.156 245.183C273.435 245.625 273.556 246.708 274.356 246.981L280.291 249.007C280.573 249.103 280.884 249.069 281.138 248.913L289.141 244C289.863 243.557 289.742 242.475 288.941 242.202L283.006 240.176C282.724 240.079 282.414 240.114 282.16 240.27Z" fill="#9BB9FF" fill-opacity="0.1" />
		<path d="M282.16 240.27L274.156 245.183C273.435 245.625 273.556 246.708 274.356 246.981L280.291 249.007C280.573 249.103 280.884 249.069 281.138 248.913L289.141 244C289.863 243.557 289.742 242.475 288.941 242.202L283.006 240.176C282.724 240.079 282.414 240.114 282.16 240.27Z" fill="black" fill-opacity="0.2" />
		<path d="M282.16 240.27L274.156 245.183C273.435 245.625 273.556 246.708 274.356 246.981L280.291 249.007C280.573 249.103 280.884 249.069 281.138 248.913L289.141 244C289.863 243.557 289.742 242.475 288.941 242.202L283.006 240.176C282.724 240.079 282.414 240.114 282.16 240.27Z" stroke="#DEE4F2" stroke-width="1.9714" />
		<path d="M282.16 239.27L274.156 244.183C273.435 244.625 273.555 245.708 274.356 245.981L280.291 248.007C280.573 248.103 280.884 248.069 281.138 247.913L289.141 243C289.863 242.557 289.742 241.475 288.941 241.202L283.006 239.176C282.724 239.079 282.414 239.114 282.16 239.27Z" stroke="#DEE4F2" stroke-width="1.9714" />
		<path d="M218.16 263.27L210.156 268.183C209.435 268.625 209.556 269.708 210.356 269.981L216.291 272.007C216.573 272.103 216.884 272.069 217.138 271.913L225.141 267C225.863 266.557 225.742 265.475 224.941 265.202L219.006 263.176C218.724 263.079 218.414 263.114 218.16 263.27Z" fill="white" />
		<path d="M218.16 263.27L210.156 268.183C209.435 268.625 209.556 269.708 210.356 269.981L216.291 272.007C216.573 272.103 216.884 272.069 217.138 271.913L225.141 267C225.863 266.557 225.742 265.475 224.941 265.202L219.006 263.176C218.724 263.079 218.414 263.114 218.16 263.27Z" fill="#9BB9FF" fill-opacity="0.1" />
		<path d="M218.16 263.27L210.156 268.183C209.435 268.625 209.556 269.708 210.356 269.981L216.291 272.007C216.573 272.103 216.884 272.069 217.138 271.913L225.141 267C225.863 266.557 225.742 265.475 224.941 265.202L219.006 263.176C218.724 263.079 218.414 263.114 218.16 263.27Z" fill="black" fill-opacity="0.2" />
		<path d="M218.16 263.27L210.156 268.183C209.435 268.625 209.556 269.708 210.356 269.981L216.291 272.007C216.573 272.103 216.884 272.069 217.138 271.913L225.141 267C225.863 266.557 225.742 265.475 224.941 265.202L219.006 263.176C218.724 263.079 218.414 263.114 218.16 263.27Z" stroke="#DEE4F2" stroke-width="1.9714" />
		<path d="M218.16 262.27L210.156 267.183C209.435 267.625 209.555 268.708 210.356 268.981L216.291 271.007C216.573 271.103 216.884 271.069 217.138 270.913L225.141 266C225.863 265.557 225.742 264.475 224.941 264.202L219.006 262.176C218.724 262.079 218.414 262.114 218.16 262.27Z" stroke="#DEE4F2" stroke-width="1.9714" />
		<path d="M336.203 181.659L335.722 181.945L238.572 239.802L237.083 240.69L237.083 219.369L237.564 219.083L326.042 166.387L334.427 155.125L336.203 152.739L336.203 181.659Z" fill="white" />
		<path d="M336.203 181.659L335.722 181.945L238.572 239.802L237.083 240.69L237.083 219.369L237.564 219.083L326.042 166.387L334.427 155.125L336.203 152.739L336.203 181.659Z" fill="#9BB9FF" fill-opacity="0.1" />
		<path d="M336.203 181.659L335.722 181.945L238.572 239.802L237.083 240.69L237.083 219.369L237.564 219.083L326.042 166.387L334.427 155.125L336.203 152.739L336.203 181.659Z" stroke="#DEE4F2" stroke-width="1.9714" />
		<path d="M234.94 241.042L233.636 240.596L64.3994 182.746L63.7324 182.517L63.7324 154.029L65.2627 155.043L89.6562 171.218L234.268 219.739L234.94 219.964L234.94 241.042Z" fill="white" />
		<path d="M234.94 241.042L233.636 240.596L64.3994 182.746L63.7324 182.517L63.7324 154.029L65.2627 155.043L89.6562 171.218L234.268 219.739L234.94 219.964L234.94 241.042Z" fill="#9BB9FF" fill-opacity="0.1" />
		<path d="M234.94 241.042L233.636 240.596L64.3994 182.746L63.7324 182.517L63.7324 154.029L65.2627 155.043L89.6562 171.218L234.268 219.739L234.94 219.964L234.94 241.042Z" stroke="#DEE4F2" stroke-width="1.9714" />
		<path d="M159.931 91.1626L68.9005 146.862C61.6726 151.284 62.8765 162.129 70.8984 164.859L232.273 219.768C235.086 220.726 238.179 220.382 240.713 218.831L331.744 163.132C338.972 158.71 337.768 147.865 329.746 145.135L168.372 90.2255C165.559 89.2684 162.466 89.6117 159.931 91.1626Z" fill="white" />
		<path d="M159.931 91.1626L68.9005 146.862C61.6726 151.284 62.8765 162.129 70.8984 164.859L232.273 219.768C235.086 220.726 238.179 220.382 240.713 218.831L331.744 163.132C338.972 158.71 337.768 147.865 329.746 145.135L168.372 90.2255C165.559 89.2684 162.466 89.6117 159.931 91.1626Z" fill="#9BB9FF" fill-opacity="0.1" />
		<path d="M159.931 91.1626L68.9005 146.862C61.6726 151.284 62.8765 162.129 70.8984 164.859L232.273 219.768C235.086 220.726 238.179 220.382 240.713 218.831L331.744 163.132C338.972 158.71 337.768 147.865 329.746 145.135L168.372 90.2255C165.559 89.2684 162.466 89.6117 159.931 91.1626Z" stroke="#DEE4F2" stroke-width="1.9714" />
	</g>
	<defs>
		<clipPath id="clip0_2373_6256">
			<rect width="393" height="492" fill="white" />
		</clipPath>
	</defs>
</svg>
