<svg width="184" height="20" viewBox="0 0 184 20" fill="none" xmlns="http://www.w3.org/2000/svg">
<g clip-path="url(#clip0_2755_3898)">
<g clip-path="url(#clip1_2755_3898)">
<g clip-path="url(#clip2_2755_3898)">
<path d="M47.4768 5.16359H50.4386V6.57397C50.7481 5.81393 51.5943 4.90894 53.0321 4.90894C54.5836 4.90894 55.4846 5.64155 55.9391 6.65624C56.276 5.86486 57.1536 4.90894 58.6737 4.90894C61.0987 4.90894 62.0312 6.74243 62.0312 8.66212V19.7493H59.0694V9.28504C59.0694 8.43881 58.6462 7.73362 57.6316 7.73362C56.7305 7.73362 56.3074 8.41138 56.3074 9.31246V19.7493H53.3456V9.31246C53.3456 8.43881 52.895 7.73362 51.8803 7.73362C50.9479 7.73362 50.4425 8.46623 50.4425 9.31246V19.7493H47.4807V5.16359H47.4768Z" fill="#3366EE"/>
<path d="M65.7295 13.1439V11.761C65.7295 8.18019 67.9313 4.90497 72.2447 4.90497C76.5581 4.90497 78.7599 8.17627 78.7599 11.761V13.1439C78.7599 16.7248 76.5581 20 72.2447 20C67.9313 20 65.7295 16.7287 65.7295 13.1439ZM72.2447 17.1792C74.6972 17.1792 75.7981 15.3183 75.7981 13.1439V11.761C75.7981 9.59057 74.6972 7.69831 72.2447 7.69831C69.7922 7.69831 68.6913 9.58665 68.6913 11.761V13.1439C68.6913 15.3144 69.7922 17.1792 72.2447 17.1792Z" fill="#3366EE"/>
<path d="M83.5278 5.16359H86.4896V7.16555C87.0812 5.98239 88.519 4.90894 90.5797 4.90894C93.9647 4.90894 95.9666 7.27916 95.9666 10.2135V19.7493H93.0048V11.2008C93.0048 9.31246 92.0175 7.7297 89.7609 7.7297C87.5043 7.7297 86.4896 9.44958 86.4896 11.2008V19.7493H83.5278V5.16359Z" fill="#3366EE"/>
<path d="M100.789 13.1439V11.761C100.789 8.18019 103.073 4.90497 107.391 4.90497C111.285 4.90497 113.428 7.52985 113.655 10.6601H110.693C110.525 8.96765 109.451 7.69831 107.395 7.69831C104.942 7.69831 103.755 9.58665 103.755 11.761V13.1439C103.755 15.3144 104.938 17.1792 107.395 17.1792C109.314 17.1792 110.356 16.0509 110.638 14.5269H113.628C113.291 17.5436 111.175 20 107.395 20C103.077 20 100.793 16.7287 100.793 13.1439H100.789Z" fill="#3366EE"/>
<path d="M118.25 17.0656H123.441V2.67973H118.983V0H126.403V17.0656H131.199V19.7453H118.25V17.0656Z" fill="#3366EE"/>
<path d="M135.68 13.1439V11.761C135.68 8.18019 137.882 4.90497 142.196 4.90497C146.509 4.90497 148.711 8.17627 148.711 11.761V13.1439C148.711 16.7248 146.509 20 142.196 20C137.882 20 135.68 16.7287 135.68 13.1439ZM142.2 17.1792C144.652 17.1792 145.753 15.3183 145.753 13.1439V11.761C145.753 9.59057 144.652 7.69831 142.2 7.69831C139.747 7.69831 138.646 9.58665 138.646 11.761V13.1439C138.646 15.3144 139.747 17.1792 142.2 17.1792Z" fill="#3366EE"/>
<path d="M153.565 13.9079V5.16357H156.527V13.8257C156.527 15.9687 157.71 17.1832 159.716 17.1832C161.722 17.1832 162.846 15.9687 162.846 13.8257V5.16357H165.808V13.9079C165.808 17.2067 163.778 19.9726 159.716 19.9726C155.653 19.9726 153.565 17.2067 153.565 13.9079Z" fill="#3366EE"/>
<path d="M170.658 13.144V11.761C170.658 8.18022 172.66 4.905 176.95 4.905C178.556 4.905 179.825 5.44172 180.73 6.28795V0H183.692V19.7453H180.73V18.617C179.829 19.4633 178.56 20 176.95 20C172.66 20 170.658 16.7287 170.658 13.144ZM177.177 17.1792C179.63 17.1792 180.73 15.3183 180.73 13.144V11.761C180.73 9.5906 179.63 7.69833 177.177 7.69833C174.725 7.69833 173.624 9.58668 173.624 11.761V13.144C173.624 15.3144 174.725 17.1792 177.177 17.1792Z" fill="#3366EE"/>
<path d="M23.2221 11.1068C23.2221 13.9667 20.895 16.2938 18.035 16.2938V19.7493C22.799 19.7493 26.6775 15.8707 26.6775 11.1068H23.2221ZM16.3073 11.1068C16.3073 13.9667 13.9802 16.2938 11.1202 16.2938V19.7493C15.8842 19.7493 19.7627 15.8707 19.7627 11.1068H16.3073ZM24.9498 16.2899V19.7453H28.4053V16.2899H24.9498Z" fill="#3366EE"/>
<path d="M7.66478 19.7454C3.64519 19.7454 0.205424 16.6504 0.0056199 12.6347C-0.20202 8.41923 3.10063 4.90502 7.24166 4.77182C7.99778 3.55733 9.01248 2.52305 10.2231 1.73558C11.8097 0.70522 13.655 0.156738 15.5551 0.156738C18.082 0.156738 20.4679 1.11658 22.2779 2.82863C23.081 2.58573 23.9194 2.46428 24.7735 2.46428C29.5375 2.46428 33.416 6.34283 33.416 11.1068H29.9606C29.9606 8.24685 27.6334 5.91972 24.7735 5.91972C23.9939 5.91972 23.2495 6.08818 22.5521 6.42118L21.3259 7.00493L20.4679 5.95498C19.1594 4.35262 17.177 3.48681 15.0967 3.63568C12.7617 3.80023 10.7324 5.30855 9.74117 7.43196L9.27496 8.43098L8.02129 8.26643C7.83716 8.24293 7.66086 8.23117 7.4924 8.23117C5.14176 8.23117 3.25342 10.2566 3.47673 12.6543C3.67261 14.7424 5.51003 16.2978 7.60993 16.2978H11.128C11.128 18.2057 9.58055 19.7532 7.67261 19.7532L7.66478 19.7454Z" fill="#3366EE"/>
</g>
</g>
</g>
<defs>
<clipPath id="clip0_2755_3898">
<rect width="183.69" height="20" fill="white"/>
</clipPath>
<clipPath id="clip1_2755_3898">
<rect width="183.69" height="20" fill="white"/>
</clipPath>
<clipPath id="clip2_2755_3898">
<rect width="183.694" height="20" fill="white" transform="translate(-0.00219727)"/>
</clipPath>
</defs>
</svg>
