<svg width="80" height="80" viewBox="0 0 80 80" fill="none" xmlns="http://www.w3.org/2000/svg">
<rect width="80" height="80" fill="none"/>
<path d="M51.6068 42.1447C51.6068 47.1449 47.5381 51.2136 42.5379 51.2136V57.255C50.867 57.255 57.6482 50.4738 57.6482 42.1447H51.6068ZM39.5172 42.1447C39.5172 47.1449 35.4485 51.2136 30.4482 51.2136V57.255C38.7774 57.255 45.5586 50.4738 45.5586 42.1447H39.5172ZM54.6275 51.2067V57.2481H60.6689V51.2067H54.6275Z" fill="#3366EE"/>
<path d="M24.4063 57.248C17.3786 57.248 11.3646 51.8368 11.0153 44.8159C10.6522 37.4457 16.4265 31.3016 23.6665 31.0687C24.9885 28.9453 26.7626 27.137 28.8791 25.7602C31.6532 23.9588 34.8794 22.9998 38.2015 22.9998C42.6195 22.9998 46.7909 24.678 49.9555 27.6713C51.3597 27.2466 52.8255 27.0343 54.3187 27.0343C62.6479 27.0343 69.429 33.8154 69.429 42.1446H63.3876C63.3876 37.1443 59.3189 33.0756 54.3187 33.0756C52.9556 33.0756 51.6542 33.3702 50.435 33.9524L48.291 34.973L46.7909 33.1373C44.5032 30.3358 41.0372 28.822 37.4001 29.0823C33.3177 29.37 29.7696 32.0071 28.0366 35.7196L27.2215 37.4663L25.0296 37.1786C24.7077 37.1375 24.3995 37.1169 24.1049 37.1169C19.9951 37.1169 16.6936 40.6582 17.084 44.8502C17.4265 48.501 20.639 51.2203 24.3104 51.2203H30.4614C30.4614 54.5561 27.7558 57.2617 24.42 57.2617L24.4063 57.248Z" fill="#3366EE"/>
</svg>
