<svg width="313" height="352" viewBox="0 0 313 352" fill="none" xmlns="http://www.w3.org/2000/svg">
	<g clip-path="url(#clip0_2377_5677)">
		<rect width="312.115" height="352" rx="12.6619" fill="#EFF3FD" />
		<rect width="312.115" height="352" rx="12.6619" fill="none" />
		<g filter="url(#filter0_di_2377_5677)">
			<mask id="path-3-inside-1_2377_5677" fill="white">
				<path d="M160.631 70.0112L235.806 113.414L231.42 115.946L156.245 72.5435L160.631 70.0112Z" />
			</mask>
			<path d="M160.631 70.0112L235.806 113.414L231.42 115.946L156.245 72.5435L160.631 70.0112Z" fill="#DEE4F2" />
			<path d="M160.631 70.0112L160.083 70.3277L235.258 113.73L235.806 113.414L236.354 113.097L161.179 69.6946L160.631 70.0112Z" fill="#9BA4BA" mask="url(#path-3-inside-1_2377_5677)" />
			<path d="M232.066 111.48L235.904 113.696L231.726 116.108L227.888 113.892L232.066 111.48Z" fill="#DEE4F2" />
			<mask id="path-6-inside-2_2377_5677" fill="white">
				<path d="M227.946 113.859L231.784 116.075L177.313 147.524L173.475 145.308L227.946 113.859Z" />
			</mask>
			<g filter="url(#filter1_ii_2377_5677)">
				<path d="M227.946 113.859L231.784 116.075L177.313 147.524L173.475 145.308L227.946 113.859Z" fill="url(#paint0_linear_2377_5677)" />
			</g>
			<path d="M173.475 145.308L174.023 145.625L228.495 114.176L227.946 113.859L227.398 113.543L172.927 144.992L173.475 145.308Z" fill="#9BA4BA" mask="url(#path-6-inside-2_2377_5677)" />
			<mask id="path-8-inside-3_2377_5677" fill="white">
				<path d="M152.429 74.9309L220.814 114.413L216.428 116.946L148.043 77.4633L152.429 74.9309Z" />
			</mask>
			<path d="M152.429 74.9309L220.814 114.413L216.428 116.946L148.043 77.4633L152.429 74.9309Z" fill="#DEE4F2" />
			<path d="M152.429 74.9309L151.88 75.2475L220.266 114.73L220.814 114.413L221.362 114.097L152.977 74.6144L152.429 74.9309Z" fill="#9BA4BA" mask="url(#path-8-inside-3_2377_5677)" />
			<path d="M217.066 112.48L220.904 114.696L216.726 117.108L212.888 114.892L217.066 112.48Z" fill="#DEE4F2" />
			<mask id="path-11-inside-4_2377_5677" fill="white">
				<path d="M212.946 114.859L216.784 117.075L162.313 148.524L158.475 146.308L212.946 114.859Z" />
			</mask>
			<g filter="url(#filter2_ii_2377_5677)">
				<path d="M212.946 114.859L216.784 117.075L162.313 148.524L158.475 146.308L212.946 114.859Z" fill="url(#paint1_linear_2377_5677)" />
			</g>
			<path d="M158.475 146.308L159.023 146.625L213.495 115.176L212.946 114.859L212.398 114.543L157.927 145.992L158.475 146.308Z" fill="#9BA4BA" mask="url(#path-11-inside-4_2377_5677)" />
			<mask id="path-13-inside-5_2377_5677" fill="white">
				<path d="M271.142 111.259L274.98 113.475L179.905 168.366L176.067 166.15L271.142 111.259Z" />
			</mask>
			<g filter="url(#filter3_i_2377_5677)">
				<path d="M271.142 111.259L274.98 113.475L179.905 168.366L176.067 166.15L271.142 111.259Z" fill="url(#paint2_linear_2377_5677)" />
			</g>
			<path d="M176.067 166.15L176.616 166.466L271.69 111.575L271.142 111.259L270.593 110.942L175.519 165.833L176.067 166.15Z" fill="#9BA4BA" mask="url(#path-13-inside-5_2377_5677)" />
			<mask id="path-15-inside-6_2377_5677" fill="white">
				<path d="M278.034 114.463L281.872 116.679L185.499 172.32L181.661 170.104L278.034 114.463Z" />
			</mask>
			<g filter="url(#filter4_i_2377_5677)">
				<path d="M278.034 114.463L281.872 116.679L185.499 172.32L181.661 170.104L278.034 114.463Z" fill="url(#paint3_linear_2377_5677)" />
			</g>
			<path d="M181.661 170.104L182.21 170.421L278.582 114.78L278.034 114.463L277.486 114.147L181.113 169.788L181.661 170.104Z" fill="#9BA4BA" mask="url(#path-15-inside-6_2377_5677)" />
		</g>
		<g filter="url(#filter5_di_2377_5677)">
			<mask id="path-17-inside-7_2377_5677" fill="white">
				<path d="M141.056 206L144.894 208.216L95.2252 236.892L91.3872 234.676L141.056 206Z" />
			</mask>
			<g filter="url(#filter6_i_2377_5677)">
				<path d="M141.056 206L144.894 208.216L95.2252 236.892L91.3872 234.676L141.056 206Z" fill="url(#paint4_linear_2377_5677)" />
			</g>
			<path d="M91.3872 234.676L91.9355 234.992L141.604 206.316L141.056 206L140.507 205.683L90.839 234.359L91.3872 234.676Z" fill="#9BA4BA" mask="url(#path-17-inside-7_2377_5677)" />
			<path d="M133.014 253.346L136.852 255.562L132.673 257.974L128.836 255.758L133.014 253.346Z" fill="#DEE4F2" />
			<g filter="url(#filter7_ii_2377_5677)">
				<path d="M128.894 255.725L132.731 257.941L80.2242 288.256L80.2242 283.824L128.894 255.725Z" fill="url(#paint5_linear_2377_5677)" />
				<path d="M128.894 255.725L132.731 257.941L80.2242 288.256L80.2242 283.824L128.894 255.725Z" fill="url(#paint6_linear_2377_5677)" />
			</g>
			<mask id="path-21-inside-8_2377_5677" fill="white">
				<path d="M99.5352 233.8L136.736 255.278L132.35 257.811L95.149 236.332L99.5352 233.8Z" />
			</mask>
			<path d="M99.5352 233.8L136.736 255.278L132.35 257.811L95.149 236.332L99.5352 233.8Z" fill="#DEE4F2" />
			<path d="M99.5352 233.8L98.9869 234.117L136.188 255.595L136.736 255.278L137.285 254.962L100.083 233.484L99.5352 233.8Z" fill="#9BA4BA" mask="url(#path-21-inside-8_2377_5677)" />
			<mask id="path-23-inside-9_2377_5677" fill="white">
				<path d="M124.71 206L128.548 208.216L78.8795 236.892L75.0415 234.676L124.71 206Z" />
			</mask>
			<g filter="url(#filter8_i_2377_5677)">
				<path d="M124.71 206L128.548 208.216L78.8795 236.892L75.0415 234.676L124.71 206Z" fill="url(#paint7_linear_2377_5677)" />
			</g>
			<path d="M75.0415 234.676L75.5898 234.993L125.258 206.317L124.71 206L124.162 205.683L74.4933 234.36L75.0415 234.676Z" fill="#9BA4BA" mask="url(#path-23-inside-9_2377_5677)" />
			<path d="M116.668 253.347L120.506 255.562L116.328 257.975L112.49 255.759L116.668 253.347Z" fill="#DEE4F2" />
			<g filter="url(#filter9_ii_2377_5677)">
				<path d="M112.548 255.725L116.386 257.941L63.8785 288.256L63.8785 283.825L112.548 255.725Z" fill="url(#paint8_linear_2377_5677)" />
				<path d="M112.548 255.725L116.386 257.941L63.8785 288.256L63.8785 283.825L112.548 255.725Z" fill="url(#paint9_linear_2377_5677)" />
			</g>
			<mask id="path-27-inside-10_2377_5677" fill="white">
				<path d="M83.1895 233.8L120.391 255.279L116.004 257.811L78.8033 236.333L83.1895 233.8Z" />
			</mask>
			<path d="M83.1895 233.8L120.391 255.279L116.004 257.811L78.8033 236.333L83.1895 233.8Z" fill="#DEE4F2" />
			<path d="M83.1895 233.8L82.6412 234.117L119.842 255.595L120.391 255.279L120.939 254.962L83.7377 233.484L83.1895 233.8Z" fill="#9BA4BA" mask="url(#path-27-inside-10_2377_5677)" />
		</g>
		<g filter="url(#filter10_di_2377_5677)">
			<mask id="path-29-inside-11_2377_5677" fill="white">
				<path d="M250.258 193.836L330.306 240.052L325.92 242.584L245.872 196.368L250.258 193.836Z" />
			</mask>
			<path d="M250.258 193.836L330.306 240.052L325.92 242.584L245.872 196.368L250.258 193.836Z" fill="#DEE4F2" />
			<path d="M250.258 193.836L249.71 194.153L329.758 240.368L330.306 240.052L330.854 239.735L250.806 193.52L250.258 193.836Z" fill="#9BA4BA" mask="url(#path-29-inside-11_2377_5677)" />
			<mask id="path-31-inside-12_2377_5677" fill="white">
				<path d="M249.782 194.087L253.62 196.303L215.127 218.527L211.289 216.311L249.782 194.087Z" />
			</mask>
			<g filter="url(#filter11_i_2377_5677)">
				<path d="M249.782 194.087L253.62 196.303L215.127 218.527L211.289 216.311L249.782 194.087Z" fill="url(#paint10_linear_2377_5677)" />
			</g>
			<path d="M211.289 216.311L211.837 216.628L250.331 194.404L249.782 194.087L249.234 193.77L210.741 215.994L211.289 216.311Z" fill="#9BA4BA" mask="url(#path-31-inside-12_2377_5677)" />
			<mask id="path-33-inside-13_2377_5677" fill="white">
				<path d="M190.286 199.12L219.515 215.995L215.128 218.527L185.9 201.652L190.286 199.12Z" />
			</mask>
			<path d="M190.286 199.12L219.515 215.995L215.128 218.527L185.9 201.652L190.286 199.12Z" fill="#DEE4F2" />
			<path d="M190.286 199.12L189.738 199.436L218.966 216.311L219.515 215.995L220.063 215.678L190.834 198.803L190.286 199.12Z" fill="#9BA4BA" mask="url(#path-33-inside-13_2377_5677)" />
			<path d="M216.908 213.702L220.197 215.6L215.128 218.527L211.839 216.628L216.908 213.702Z" fill="#DEE4F2" />
		</g>
		<g filter="url(#filter12_di_2377_5677)">
			<mask id="path-36-inside-14_2377_5677" fill="white">
				<path d="M250.086 202.809L330.134 249.025L325.748 251.557L245.7 205.341L250.086 202.809Z" />
			</mask>
			<path d="M250.086 202.809L330.134 249.025L325.748 251.557L245.7 205.341L250.086 202.809Z" fill="#DEE4F2" />
			<path d="M250.086 202.809L249.538 203.126L329.586 249.341L330.134 249.025L330.682 248.708L250.634 202.493L250.086 202.809Z" fill="#9BA4BA" mask="url(#path-36-inside-14_2377_5677)" />
			<mask id="path-38-inside-15_2377_5677" fill="white">
				<path d="M249.61 203.06L253.448 205.276L214.955 227.5L211.117 225.284L249.61 203.06Z" />
			</mask>
			<g filter="url(#filter13_i_2377_5677)">
				<path d="M249.61 203.06L253.448 205.276L214.955 227.5L211.117 225.284L249.61 203.06Z" fill="url(#paint11_linear_2377_5677)" />
			</g>
			<path d="M211.117 225.284L211.666 225.6L250.159 203.376L249.61 203.06L249.062 202.743L210.569 224.967L211.117 225.284Z" fill="#9BA4BA" mask="url(#path-38-inside-15_2377_5677)" />
			<mask id="path-40-inside-16_2377_5677" fill="white">
				<path d="M181.653 203.208L219.343 224.968L214.956 227.5L177.267 205.74L181.653 203.208Z" />
			</mask>
			<path d="M181.653 203.208L219.343 224.968L214.956 227.5L177.267 205.74L181.653 203.208Z" fill="#DEE4F2" />
			<path d="M181.653 203.208L181.105 203.524L218.794 225.284L219.343 224.968L219.891 224.651L182.202 202.891L181.653 203.208Z" fill="#9BA4BA" mask="url(#path-40-inside-16_2377_5677)" />
			<path d="M215.784 222.125L220.024 224.573L214.956 227.5L210.715 225.051L215.784 222.125Z" fill="#DEE4F2" />
		</g>
		<g filter="url(#filter14_f_2377_5677)">
			<path d="M259.932 54.5184C258.946 53.9495 258.454 53.6651 258.256 53.3401C258.059 53.0157 258.059 52.6621 258.256 52.3376C258.454 52.0126 258.946 51.7282 259.932 51.1593L290.444 33.5428C291.429 32.974 291.922 32.6895 292.485 32.5754C293.047 32.4615 293.659 32.4615 294.221 32.5754C294.784 32.6895 295.277 32.974 296.262 33.5428L336.767 56.9281C337.752 57.4969 338.245 57.7814 338.442 58.1063C338.64 58.4308 338.64 58.7844 338.442 59.1089C338.245 59.4339 337.752 59.7183 336.767 60.2872L306.254 77.9037C305.269 78.4725 304.776 78.757 304.213 78.8711C303.651 78.985 303.039 78.985 302.477 78.8711C301.914 78.757 301.421 78.4725 300.436 77.9037L259.932 54.5184Z" fill="url(#paint12_linear_2377_5677)" fill-opacity="0.2" stroke="#9BA4BA" stroke-width="0.534887" />
			<rect width="42.6167" height="44.2495" rx="2.13955" transform="matrix(0.866025 -0.5 2.20305e-08 1 301.952 78.5708)" fill="url(#paint13_linear_2377_5677)" fill-opacity="0.2" stroke="#9BA4BA" stroke-width="0.534887" />
			<path d="M257.557 55.1282C257.557 53.9904 257.557 53.4216 257.739 53.0879C257.922 52.7548 258.228 52.578 258.607 52.5866C258.988 52.5953 259.48 52.8798 260.466 53.4486L300.113 76.339C301.098 76.9079 301.591 77.1923 301.971 77.6227C302.351 78.0524 302.657 78.5828 302.839 79.1265C303.022 79.671 303.022 80.2399 303.022 81.3776L303.022 119.677C303.022 120.815 303.022 121.383 302.839 121.717C302.657 122.05 302.351 122.227 301.971 122.218C301.591 122.21 301.098 121.925 300.113 121.356L260.466 98.466C259.48 97.8971 258.988 97.6127 258.607 97.1823C258.228 96.7525 257.922 96.2221 257.739 95.6784C257.557 95.1339 257.557 94.5651 257.557 93.4273L257.557 55.1282Z" fill="url(#paint14_linear_2377_5677)" fill-opacity="0.2" stroke="#9BA4BA" stroke-width="0.534887" />
		</g>
		<path d="M250.058 49.7947C250.058 48.448 250.058 47.7747 250.274 47.3798C250.386 47.1741 250.539 47.0188 250.723 46.9187C250.891 46.8269 251.086 46.7816 251.301 46.7865C251.751 46.7968 252.335 47.1335 253.501 47.8068L300.427 74.8999C301.594 75.5732 302.177 75.9098 302.627 76.4192C302.942 76.7756 303.214 77.1904 303.423 77.6282C303.512 77.8153 303.59 78.0065 303.654 78.1992C303.871 78.8437 303.871 79.517 303.871 80.8636L303.871 126.195C303.871 127.541 303.871 128.215 303.654 128.609C303.595 128.718 303.525 128.812 303.445 128.891C303.234 129.102 302.953 129.21 302.627 129.203C302.177 129.192 301.594 128.856 300.427 128.183L253.501 101.089C252.335 100.416 251.751 100.079 251.301 99.57C250.852 99.0614 250.49 98.4336 250.274 97.7901C250.058 97.1456 250.058 96.4723 250.058 95.1257L250.058 49.7947Z" fill="#DEE4F2" fill-opacity="0.6" />
		<path d="M288.983 24.2462L252.868 45.0971C251.701 45.7705 251.118 46.1071 250.884 46.4917C250.8 46.6306 250.746 46.7741 250.723 46.9187C250.891 46.8269 251.086 46.7816 251.301 46.7865C251.751 46.7968 252.335 47.1335 253.501 47.8068L300.427 74.8999C301.594 75.5732 302.177 75.9098 302.627 76.4192C302.942 76.7756 303.214 77.1904 303.423 77.6282C303.553 77.4321 303.696 77.2457 303.848 77.0729C304.298 76.5635 304.881 76.2269 306.048 75.5536L342.845 54.3087C344.011 53.6354 344.594 53.2988 345.044 53.2885C345.414 53.28 345.726 53.4207 345.945 53.6913C345.918 53.5654 345.867 53.4408 345.793 53.3196C345.559 52.935 344.976 52.5984 343.81 51.925L295.869 24.2462C294.703 23.5729 294.12 23.2362 293.453 23.1012C292.788 22.9663 292.063 22.9663 291.398 23.1012C290.732 23.2362 290.149 23.5729 288.983 24.2462Z" fill="#DEE4F2" fill-opacity="0.6" />
		<path d="M342.845 54.3087L306.048 75.5536C304.881 76.2269 304.298 76.5635 303.848 77.0729C303.696 77.2457 303.553 77.4321 303.423 77.6282C303.512 77.8153 303.59 78.0065 303.654 78.1992C303.871 78.8437 303.871 79.517 303.871 80.8636L303.871 126.195C303.871 127.541 303.871 128.215 303.654 128.609C303.595 128.718 303.525 128.812 303.445 128.891C303.569 128.932 303.704 128.951 303.848 128.948C304.298 128.937 304.881 128.601 306.048 127.927L342.845 106.683C344.011 106.009 344.594 105.673 345.044 105.163C345.493 104.655 345.856 104.027 346.072 103.383C346.288 102.739 346.288 102.065 346.288 100.719V56.2967C346.288 54.95 346.288 54.2767 346.072 53.8818C346.034 53.8125 345.991 53.7489 345.945 53.6913C345.726 53.4207 345.414 53.28 345.044 53.2885C344.594 53.2988 344.011 53.6354 342.845 54.3087Z" fill="#DEE4F2" fill-opacity="0.6" />
		<path d="M250.723 46.9187C250.891 46.8269 251.086 46.7816 251.301 46.7865C251.751 46.7968 252.335 47.1335 253.501 47.8068L300.427 74.8999C301.594 75.5732 302.177 75.9098 302.627 76.4192C302.942 76.7756 303.214 77.1905 303.423 77.6282M250.723 46.9187C250.539 47.0188 250.386 47.1741 250.274 47.3798C250.058 47.7747 250.058 48.4481 250.058 49.7947L250.058 95.1257C250.058 96.4723 250.058 97.1456 250.274 97.7901C250.49 98.4336 250.852 99.0614 251.301 99.57C251.751 100.079 252.335 100.416 253.501 101.089L300.427 128.183C301.594 128.856 302.177 129.192 302.627 129.203C302.953 129.21 303.234 129.102 303.445 128.891M250.723 46.9187C250.746 46.7741 250.8 46.6306 250.884 46.4917C251.118 46.1071 251.701 45.7705 252.868 45.0971L288.983 24.2462C290.149 23.5729 290.732 23.2362 291.398 23.1012C292.063 22.9663 292.788 22.9663 293.453 23.1012C294.12 23.2362 294.703 23.5729 295.869 24.2462L343.81 51.925C344.976 52.5984 345.559 52.935 345.793 53.3196C345.867 53.4408 345.918 53.5654 345.945 53.6913M303.423 77.6282C303.512 77.8153 303.59 78.0065 303.654 78.1992C303.871 78.8437 303.871 79.517 303.871 80.8636L303.871 126.195C303.871 127.541 303.871 128.215 303.654 128.609C303.595 128.718 303.525 128.812 303.445 128.891M303.423 77.6282C303.553 77.4321 303.696 77.2456 303.848 77.0729C304.298 76.5636 304.881 76.2269 306.048 75.5536L342.845 54.3087C344.011 53.6354 344.594 53.2988 345.044 53.2885C345.414 53.28 345.726 53.4207 345.945 53.6913M303.445 128.891C303.569 128.932 303.704 128.951 303.848 128.948C304.298 128.937 304.881 128.601 306.048 127.927L342.845 106.683C344.011 106.009 344.594 105.673 345.044 105.163C345.493 104.655 345.856 104.027 346.072 103.383C346.288 102.739 346.288 102.065 346.288 100.719V56.2967C346.288 54.95 346.288 54.2767 346.072 53.8818C346.034 53.8125 345.991 53.7489 345.945 53.6913" stroke="#EBF5FF" stroke-width="0.633094" />
		<g filter="url(#filter15_f_2377_5677)">
			<path d="M283.37 196.756C282.385 196.187 281.892 195.903 281.694 195.578C281.497 195.253 281.497 194.899 281.694 194.575C281.892 194.25 282.385 193.966 283.37 193.397L313.883 175.78C314.868 175.211 315.361 174.927 315.923 174.813C316.485 174.699 317.098 174.699 317.66 174.813C318.223 174.927 318.715 175.211 319.701 175.78L360.205 199.165C361.191 199.734 361.683 200.019 361.881 200.344C362.078 200.668 362.078 201.022 361.881 201.346C361.683 201.671 361.191 201.956 360.205 202.525L329.693 220.141C328.707 220.71 328.215 220.994 327.652 221.109C327.09 221.222 326.477 221.222 325.915 221.109C325.352 220.994 324.86 220.71 323.874 220.141L283.37 196.756Z" fill="url(#paint15_linear_2377_5677)" fill-opacity="0.2" stroke="#9BA4BA" stroke-width="0.534887" />
			<path d="M280.995 197.366C280.995 196.228 280.995 195.659 281.178 195.325C281.36 194.992 281.666 194.815 282.046 194.824C282.426 194.833 282.919 195.117 283.904 195.686L323.551 218.576C324.537 219.145 325.029 219.43 325.41 219.86C325.789 220.29 326.096 220.82 326.278 221.364C326.46 221.908 326.46 222.477 326.46 223.615L326.46 261.914C326.46 263.052 326.46 263.621 326.278 263.954C326.096 264.288 325.789 264.464 325.41 264.456C325.029 264.447 324.537 264.163 323.551 263.594L283.904 240.703C282.919 240.134 282.426 239.85 282.046 239.42C281.666 238.99 281.36 238.459 281.178 237.916C280.995 237.371 280.995 236.802 280.995 235.665L280.995 197.366Z" fill="url(#paint16_linear_2377_5677)" fill-opacity="0.2" stroke="#9BA4BA" stroke-width="0.534887" />
		</g>
		<path d="M273.496 192.032C273.496 190.685 273.496 190.012 273.712 189.617C273.825 189.412 273.977 189.256 274.161 189.156C274.33 189.064 274.525 189.019 274.74 189.024C275.19 189.034 275.773 189.371 276.939 190.044L323.866 217.137C325.032 217.811 325.615 218.147 326.065 218.657C326.38 219.013 326.652 219.428 326.861 219.866C326.951 220.053 327.028 220.244 327.093 220.437C327.309 221.081 327.309 221.754 327.309 223.101L327.309 268.432C327.309 269.779 327.309 270.452 327.093 270.847C327.034 270.955 326.964 271.049 326.884 271.129C326.672 271.339 326.392 271.448 326.065 271.44C325.615 271.43 325.032 271.093 323.866 270.42L276.939 243.327C275.773 242.654 275.19 242.317 274.74 241.807C274.29 241.299 273.928 240.671 273.712 240.028C273.496 239.383 273.496 238.71 273.496 237.363L273.496 192.032Z" fill="#DEE4F2" fill-opacity="0.6" />
		<path d="M312.421 166.484L276.306 187.335C275.14 188.008 274.557 188.345 274.323 188.729C274.238 188.868 274.184 189.011 274.161 189.156C274.33 189.064 274.525 189.019 274.74 189.024C275.19 189.034 275.773 189.371 276.939 190.044L323.866 217.137C325.032 217.811 325.615 218.147 326.065 218.657C326.38 219.013 326.652 219.428 326.861 219.866C326.991 219.67 327.134 219.483 327.287 219.31C327.737 218.801 328.32 218.464 329.486 217.791L366.283 196.546C367.449 195.873 368.032 195.536 368.483 195.526C368.853 195.517 369.164 195.658 369.383 195.929C369.356 195.803 369.306 195.678 369.232 195.557C368.998 195.172 368.415 194.836 367.249 194.162L319.307 166.484C318.141 165.81 317.558 165.474 316.892 165.339C316.227 165.204 315.502 165.204 314.837 165.339C314.17 165.474 313.587 165.81 312.421 166.484Z" fill="#DEE4F2" fill-opacity="0.6" />
		<path d="M366.283 196.546L329.486 217.791C328.32 218.464 327.737 218.801 327.287 219.31C327.134 219.483 326.991 219.67 326.861 219.866C326.951 220.053 327.028 220.244 327.093 220.437C327.309 221.081 327.309 221.754 327.309 223.101L327.309 268.432C327.309 269.779 327.309 270.452 327.093 270.847C327.034 270.955 326.964 271.049 326.884 271.129C327.008 271.169 327.143 271.188 327.287 271.185C327.737 271.175 328.32 270.838 329.486 270.165L366.283 248.92C367.449 248.247 368.032 247.91 368.483 247.401C368.932 246.892 369.294 246.264 369.51 245.621C369.726 244.976 369.726 244.303 369.726 242.956V198.534C369.726 197.187 369.726 196.514 369.51 196.119C369.472 196.05 369.43 195.986 369.383 195.929C369.164 195.658 368.853 195.517 368.483 195.526C368.032 195.536 367.449 195.873 366.283 196.546Z" fill="#DEE4F2" fill-opacity="0.6" />
		<path d="M274.161 189.156C274.33 189.064 274.525 189.019 274.74 189.024C275.19 189.034 275.773 189.371 276.939 190.044L323.866 217.137C325.032 217.811 325.615 218.147 326.065 218.657C326.38 219.013 326.652 219.428 326.861 219.866M274.161 189.156C273.977 189.256 273.825 189.412 273.712 189.617C273.496 190.012 273.496 190.685 273.496 192.032L273.496 237.363C273.496 238.71 273.496 239.383 273.712 240.028C273.928 240.671 274.29 241.299 274.74 241.807C275.19 242.317 275.773 242.654 276.939 243.327L323.866 270.42C325.032 271.093 325.615 271.43 326.065 271.44C326.392 271.448 326.672 271.339 326.884 271.129M274.161 189.156C274.184 189.011 274.238 188.868 274.323 188.729C274.557 188.345 275.14 188.008 276.306 187.335L312.421 166.484C313.587 165.81 314.17 165.474 314.837 165.339C315.502 165.204 316.227 165.204 316.892 165.339C317.558 165.474 318.141 165.81 319.307 166.484L367.249 194.162C368.415 194.836 368.998 195.172 369.232 195.557C369.306 195.678 369.356 195.803 369.383 195.929M326.861 219.866C326.951 220.053 327.028 220.244 327.093 220.437C327.309 221.081 327.309 221.754 327.309 223.101L327.309 268.432C327.309 269.779 327.309 270.452 327.093 270.847C327.034 270.955 326.964 271.049 326.884 271.129M326.861 219.866C326.991 219.67 327.134 219.483 327.287 219.31C327.737 218.801 328.32 218.464 329.486 217.791L366.283 196.546C367.449 195.873 368.032 195.536 368.483 195.526C368.853 195.517 369.164 195.658 369.383 195.929M326.884 271.129C327.008 271.169 327.143 271.188 327.287 271.185C327.737 271.175 328.32 270.838 329.486 270.165L366.283 248.92C367.449 248.247 368.032 247.91 368.483 247.401C368.932 246.892 369.294 246.264 369.51 245.621C369.726 244.976 369.726 244.303 369.726 242.956V198.534C369.726 197.187 369.726 196.514 369.51 196.119C369.472 196.05 369.43 195.986 369.383 195.929" stroke="#EBF5FF" stroke-width="0.633094" />
		<g filter="url(#filter16_f_2377_5677)">
			<path d="M85.8446 13.1587C84.8593 12.5898 84.3666 12.3054 84.169 11.9804C83.9716 11.6559 83.9716 11.3023 84.169 10.9778C84.3666 10.6529 84.8593 10.3685 85.8446 9.79958L116.357 -7.81691C117.343 -8.38579 117.835 -8.67022 118.398 -8.78434C118.96 -8.89829 119.573 -8.89829 120.135 -8.78434C120.697 -8.67022 121.19 -8.38579 122.175 -7.81691L162.68 15.5683C163.665 16.1372 164.158 16.4216 164.355 16.7466C164.553 17.0711 164.553 17.4247 164.355 17.7492C164.158 18.0741 163.665 18.3585 162.68 18.9274L132.167 36.5439C131.182 37.1128 130.689 37.3972 130.126 37.5113C129.564 37.6253 128.952 37.6253 128.39 37.5113C127.827 37.3972 127.334 37.1128 126.349 36.5439L85.8446 13.1587Z" fill="url(#paint17_linear_2377_5677)" fill-opacity="0.2" stroke="#9BA4BA" stroke-width="0.534887" />
			<rect width="42.6167" height="44.2495" rx="2.13955" transform="matrix(0.866025 -0.5 2.20305e-08 1 127.866 37.2111)" fill="url(#paint18_linear_2377_5677)" fill-opacity="0.2" stroke="#9BA4BA" stroke-width="0.534887" />
			<path d="M83.4697 13.7685C83.4697 12.6307 83.4697 12.0618 83.6523 11.7282C83.8346 11.395 84.1409 11.2182 84.5206 11.2269C84.9008 11.2356 85.3935 11.52 86.3788 12.0889L126.026 34.9793C127.011 35.5481 127.504 35.8326 127.884 36.263C128.264 36.6927 128.57 37.2231 128.753 37.7668C128.935 38.3113 128.935 38.8802 128.935 40.0179L128.935 78.317C128.935 79.4548 128.935 80.0237 128.753 80.3573C128.57 80.6905 128.264 80.8673 127.884 80.8586C127.504 80.8499 127.011 80.5655 126.026 79.9966L86.3788 57.1062C85.3935 56.5374 84.9008 56.2529 84.5206 55.8225C84.1409 55.3928 83.8346 54.8624 83.6523 54.3187C83.4697 53.7742 83.4697 53.2053 83.4697 52.0676L83.4697 13.7685Z" fill="url(#paint19_linear_2377_5677)" fill-opacity="0.2" stroke="#9BA4BA" stroke-width="0.534887" />
		</g>
		<path d="M75.9717 8.43495C75.9717 7.08831 75.9717 6.41499 76.1878 6.02008C76.3004 5.81441 76.4528 5.65908 76.6367 5.55899C76.8053 5.46718 77.0004 5.42185 77.2154 5.42676C77.6655 5.43706 78.2486 5.77372 79.4148 6.44703L126.341 33.5401C127.508 34.2135 128.091 34.5501 128.541 35.0595C128.856 35.4159 129.128 35.8307 129.337 36.2685C129.426 36.4555 129.504 36.6468 129.569 36.8395C129.785 37.4839 129.785 38.1572 129.785 39.5039L129.785 84.8349C129.785 86.1815 129.785 86.8548 129.569 87.2497C129.509 87.3578 129.439 87.4519 129.359 87.5315C129.148 87.7422 128.867 87.8505 128.541 87.843C128.091 87.8327 127.508 87.4961 126.341 86.8228L79.4148 59.7297C78.2486 59.0564 77.6655 58.7197 77.2154 58.2103C76.7661 57.7017 76.4036 57.0739 76.1878 56.4304C75.9717 55.7859 75.9717 55.1126 75.9717 53.7659L75.9717 8.43495Z" fill="#DEE4F2" fill-opacity="0.6" />
		<path d="M114.897 -17.1135L78.7818 3.7374C77.6155 4.41072 77.0324 4.74737 76.7985 5.132C76.714 5.2709 76.6601 5.41432 76.6367 5.55899C76.8053 5.46718 77.0004 5.42185 77.2154 5.42676C77.6655 5.43706 78.2486 5.77372 79.4148 6.44703L126.341 33.5401C127.508 34.2135 128.091 34.5501 128.541 35.0595C128.856 35.4159 129.128 35.8307 129.337 36.2685C129.467 36.0723 129.61 35.8859 129.762 35.7132C130.212 35.2038 130.795 34.8672 131.962 34.1938L168.759 12.949C169.925 12.2757 170.508 11.939 170.958 11.9287C171.329 11.9203 171.64 12.061 171.859 12.3315C171.832 12.2057 171.781 12.0811 171.707 11.9599C171.473 11.5753 170.89 11.2386 169.724 10.5653L121.783 -17.1135C120.617 -17.7869 120.034 -18.1235 119.367 -18.2586C118.702 -18.3935 117.977 -18.3935 117.312 -18.2586C116.646 -18.1235 116.063 -17.7869 114.897 -17.1135Z" fill="#DEE4F2" fill-opacity="0.6" />
		<path d="M168.759 12.949L131.962 34.1938C130.795 34.8672 130.212 35.2038 129.762 35.7132C129.61 35.8859 129.467 36.0723 129.337 36.2685C129.426 36.4555 129.504 36.6468 129.569 36.8395C129.785 37.4839 129.785 38.1572 129.785 39.5039L129.785 84.8349C129.785 86.1815 129.785 86.8548 129.569 87.2497C129.509 87.3578 129.439 87.4519 129.359 87.5315C129.483 87.572 129.618 87.5912 129.762 87.5879C130.212 87.5777 130.795 87.241 131.962 86.5677L168.759 65.3228C169.925 64.6495 170.508 64.3129 170.958 63.8035C171.408 63.2948 171.77 62.667 171.986 62.0235C172.202 61.3791 172.202 60.7057 172.202 59.3591V14.9369C172.202 13.5903 172.202 12.917 171.986 12.522C171.948 12.4528 171.905 12.3892 171.859 12.3315C171.64 12.061 171.329 11.9203 170.958 11.9287C170.508 11.939 169.925 12.2757 168.759 12.949Z" fill="#DEE4F2" fill-opacity="0.6" />
		<path d="M76.6367 5.55899C76.8053 5.46718 77.0004 5.42185 77.2154 5.42676C77.6655 5.43706 78.2486 5.77372 79.4148 6.44703L126.341 33.5401C127.508 34.2135 128.091 34.5501 128.541 35.0595C128.856 35.4159 129.128 35.8307 129.337 36.2685M76.6367 5.55899C76.4528 5.65908 76.3004 5.81441 76.1878 6.02008C75.9717 6.41499 75.9717 7.08831 75.9717 8.43495L75.9717 53.7659C75.9717 55.1126 75.9717 55.7859 76.1878 56.4304C76.4036 57.0739 76.7661 57.7017 77.2154 58.2103C77.6655 58.7197 78.2486 59.0564 79.4148 59.7297L126.341 86.8228C127.508 87.4961 128.091 87.8327 128.541 87.843C128.867 87.8505 129.148 87.7422 129.359 87.5315M76.6367 5.55899C76.6601 5.41432 76.714 5.2709 76.7985 5.132C77.0324 4.74737 77.6155 4.41071 78.7818 3.7374L114.897 -17.1135C116.063 -17.7869 116.646 -18.1235 117.312 -18.2586C117.977 -18.3935 118.702 -18.3935 119.367 -18.2586C120.034 -18.1235 120.617 -17.7869 121.783 -17.1135L169.724 10.5653C170.89 11.2386 171.473 11.5753 171.707 11.9599C171.781 12.0811 171.832 12.2057 171.859 12.3315M129.337 36.2685C129.426 36.4555 129.504 36.6468 129.569 36.8394C129.785 37.4839 129.785 38.1572 129.785 39.5039L129.785 84.8349C129.785 86.1815 129.785 86.8548 129.569 87.2497C129.509 87.3578 129.439 87.4519 129.359 87.5315M129.337 36.2685C129.467 36.0723 129.61 35.8859 129.762 35.7132C130.212 35.2038 130.795 34.8672 131.962 34.1938L168.759 12.949C169.925 12.2757 170.508 11.939 170.958 11.9287C171.329 11.9203 171.64 12.061 171.859 12.3315M129.359 87.5315C129.483 87.572 129.618 87.5912 129.762 87.5879C130.212 87.5777 130.795 87.241 131.962 86.5677L168.759 65.3228C169.925 64.6495 170.508 64.3129 170.958 63.8035C171.408 63.2948 171.77 62.667 171.986 62.0235C172.202 61.3791 172.202 60.7057 172.202 59.3591V14.9369C172.202 13.5903 172.202 12.917 171.986 12.522C171.948 12.4528 171.905 12.3892 171.859 12.3315" stroke="#EBF5FF" stroke-width="0.633094" />
		<g filter="url(#filter17_f_2377_5677)">
			<path d="M0.376832 264.497C-0.608485 263.928 -1.10114 263.643 -1.2988 263.319C-1.49616 262.994 -1.49616 262.64 -1.2988 262.316C-1.10114 261.991 -0.608486 261.707 0.376829 261.138L30.8895 243.521C31.8748 242.952 32.3675 242.668 32.9303 242.554C33.4923 242.44 34.1048 242.44 34.6668 242.554C35.2296 242.668 35.7223 242.952 36.7076 243.521L77.212 266.906C78.1974 267.475 78.69 267.76 78.8877 268.085C79.085 268.409 79.085 268.763 78.8877 269.087C78.69 269.412 78.1974 269.697 77.212 270.266L46.6994 287.882C45.7141 288.451 45.2214 288.735 44.6586 288.849C44.0966 288.963 43.4841 288.963 42.9221 288.849C42.3592 288.735 41.8666 288.451 40.8813 287.882L0.376832 264.497Z" fill="url(#paint20_linear_2377_5677)" fill-opacity="0.2" stroke="#9BA4BA" stroke-width="0.534887" />
			<rect width="42.6167" height="44.2495" rx="2.13955" transform="matrix(0.866025 -0.5 2.20305e-08 1 42.3984 288.549)" fill="url(#paint21_linear_2377_5677)" fill-opacity="0.2" stroke="#9BA4BA" stroke-width="0.534887" />
			<path d="M-1.99707 265.107C-1.99707 263.969 -1.99707 263.4 -1.81448 263.066C-1.63216 262.733 -1.32592 262.556 -0.946239 262.565C-0.565988 262.574 -0.0733298 262.858 0.911986 263.427L40.5592 286.317C41.5446 286.886 42.0372 287.171 42.4175 287.601C42.7972 288.031 43.1034 288.561 43.2857 289.105C43.4683 289.649 43.4683 290.218 43.4683 291.356L43.4683 329.655C43.4683 330.793 43.4683 331.362 43.2857 331.695C43.1034 332.029 42.7971 332.205 42.4175 332.197C42.0372 332.188 41.5446 331.904 40.5592 331.335L0.911984 308.444C-0.0733312 307.875 -0.565989 307.591 -0.94624 307.161C-1.32592 306.731 -1.63216 306.2 -1.81448 305.657C-1.99707 305.112 -1.99707 304.543 -1.99707 303.406L-1.99707 265.107Z" fill="url(#paint22_linear_2377_5677)" fill-opacity="0.2" stroke="#9BA4BA" stroke-width="0.534887" />
		</g>
		<path d="M-9.49609 259.773C-9.49609 258.426 -9.49609 257.753 -9.27997 257.358C-9.16742 257.153 -9.01497 256.997 -8.83109 256.897C-8.66243 256.805 -8.46733 256.76 -8.25233 256.765C-7.80226 256.775 -7.21915 257.112 -6.05293 257.785L40.8737 284.878C42.0399 285.552 42.623 285.888 43.0731 286.398C43.3879 286.754 43.6601 287.169 43.8691 287.607C43.9584 287.794 44.0361 287.985 44.1007 288.178C44.3169 288.822 44.3169 289.495 44.3169 290.842L44.3169 336.173C44.3169 337.52 44.3169 338.193 44.1007 338.588C44.0416 338.696 43.9715 338.79 43.8916 338.87C43.6798 339.08 43.3994 339.189 43.0731 339.181C42.623 339.171 42.0399 338.834 40.8737 338.161L-6.05293 311.068C-7.21915 310.394 -7.80226 310.058 -8.25233 309.548C-8.70172 309.04 -9.06418 308.412 -9.27997 307.768C-9.49609 307.124 -9.49609 306.451 -9.49609 305.104L-9.49609 259.773Z" fill="#DEE4F2" fill-opacity="0.6" />
		<path d="M29.4289 234.225L-6.68602 255.076C-7.85224 255.749 -8.43535 256.086 -8.6693 256.47C-8.75379 256.609 -8.80772 256.752 -8.83109 256.897C-8.66243 256.805 -8.46733 256.76 -8.25233 256.765C-7.80226 256.775 -7.21915 257.112 -6.05293 257.785L40.8737 284.878C42.0399 285.552 42.623 285.888 43.0731 286.398C43.3879 286.754 43.6601 287.169 43.8691 287.607C43.9993 287.41 44.1419 287.224 44.2944 287.051C44.7445 286.542 45.3276 286.205 46.4938 285.532L83.291 264.287C84.4572 263.614 85.0403 263.277 85.4904 263.267C85.8608 263.258 86.1721 263.399 86.391 263.67C86.3638 263.544 86.3133 263.419 86.2397 263.298C86.0057 262.913 85.4226 262.577 84.2564 261.903L36.3152 234.225C35.149 233.551 34.5659 233.215 33.8997 233.08C33.2345 232.945 32.5096 232.945 31.8444 233.08C31.1782 233.215 30.5951 233.551 29.4289 234.225Z" fill="#DEE4F2" fill-opacity="0.6" />
		<path d="M83.291 264.287L46.4938 285.532C45.3276 286.205 44.7445 286.542 44.2944 287.051C44.1419 287.224 43.9993 287.41 43.8691 287.607C43.9584 287.794 44.0361 287.985 44.1007 288.178C44.3169 288.822 44.3169 289.495 44.3169 290.842L44.3169 336.173C44.3169 337.52 44.3169 338.193 44.1007 338.588C44.0416 338.696 43.9715 338.79 43.8916 338.87C44.0156 338.91 44.1506 338.929 44.2944 338.926C44.7445 338.916 45.3276 338.579 46.4938 337.906L83.291 316.661C84.4572 315.988 85.0403 315.651 85.4904 315.142C85.9398 314.633 86.3022 314.005 86.518 313.362C86.7341 312.717 86.7341 312.044 86.7341 310.697V266.275C86.7341 264.928 86.7341 264.255 86.518 263.86C86.4801 263.791 86.4376 263.727 86.391 263.67C86.1721 263.399 85.8608 263.258 85.4904 263.267C85.0403 263.277 84.4572 263.614 83.291 264.287Z" fill="#DEE4F2" fill-opacity="0.6" />
		<path d="M-8.83109 256.897C-8.66243 256.805 -8.46733 256.76 -8.25233 256.765C-7.80226 256.775 -7.21915 257.112 -6.05293 257.785L40.8737 284.878C42.0399 285.552 42.623 285.888 43.0731 286.398C43.3879 286.754 43.6601 287.169 43.8691 287.607M-8.83109 256.897C-9.01497 256.997 -9.16742 257.153 -9.27997 257.358C-9.49609 257.753 -9.49609 258.426 -9.49609 259.773L-9.49609 305.104C-9.49609 306.451 -9.49609 307.124 -9.27997 307.768C-9.06418 308.412 -8.70172 309.04 -8.25233 309.548C-7.80226 310.058 -7.21915 310.394 -6.05293 311.068L40.8737 338.161C42.0399 338.834 42.623 339.171 43.0731 339.181C43.3994 339.189 43.6798 339.08 43.8916 338.87M-8.83109 256.897C-8.80772 256.752 -8.75379 256.609 -8.6693 256.47C-8.43535 256.086 -7.85224 255.749 -6.68602 255.076L29.4289 234.225C30.5951 233.551 31.1782 233.215 31.8444 233.08C32.5096 232.945 33.2345 232.945 33.8997 233.08C34.5659 233.215 35.149 233.551 36.3152 234.225L84.2564 261.903C85.4226 262.577 86.0057 262.913 86.2397 263.298C86.3133 263.419 86.3638 263.544 86.391 263.67M43.8691 287.607C43.9584 287.794 44.0361 287.985 44.1007 288.178C44.3169 288.822 44.3169 289.495 44.3169 290.842L44.3169 336.173C44.3169 337.52 44.3169 338.193 44.1007 338.588C44.0416 338.696 43.9715 338.79 43.8916 338.87M43.8691 287.607C43.9993 287.41 44.1419 287.224 44.2944 287.051C44.7445 286.542 45.3276 286.205 46.4938 285.532L83.291 264.287C84.4572 263.614 85.0403 263.277 85.4904 263.267C85.8608 263.258 86.1721 263.399 86.391 263.67M43.8916 338.87C44.0156 338.91 44.1506 338.929 44.2944 338.926C44.7445 338.916 45.3276 338.579 46.4938 337.906L83.291 316.661C84.4572 315.988 85.0403 315.651 85.4904 315.142C85.9397 314.633 86.3022 314.005 86.518 313.362C86.7341 312.717 86.7341 312.044 86.7341 310.697V266.275C86.7341 264.928 86.7341 264.255 86.518 263.86C86.4801 263.791 86.4376 263.727 86.391 263.67" stroke="#EBF5FF" stroke-width="0.633094" />
		<g filter="url(#filter18_f_2377_5677)">
			<path d="M170.046 296.785C169.06 296.216 168.568 295.931 168.37 295.606C168.173 295.282 168.173 294.928 168.37 294.604C168.568 294.279 169.06 293.994 170.046 293.426L200.558 275.809C201.544 275.24 202.036 274.956 202.599 274.842C203.161 274.728 203.774 274.728 204.336 274.842C204.899 274.956 205.391 275.24 206.377 275.809L246.881 299.194C247.866 299.763 248.359 300.048 248.557 300.373C248.754 300.697 248.754 301.051 248.557 301.375C248.359 301.7 247.866 301.985 246.881 302.553L216.368 320.17C215.383 320.739 214.89 321.023 214.328 321.137C213.766 321.251 213.153 321.251 212.591 321.137C212.028 321.023 211.536 320.739 210.55 320.17L170.046 296.785Z" fill="url(#paint23_linear_2377_5677)" fill-opacity="0.2" stroke="#9BA4BA" stroke-width="0.534887" />
			<rect width="42.6167" height="44.2495" rx="2.13955" transform="matrix(0.866025 -0.5 2.20305e-08 1 212.067 320.837)" fill="url(#paint24_linear_2377_5677)" fill-opacity="0.2" stroke="#9BA4BA" stroke-width="0.534887" />
			<path d="M167.672 297.394C167.672 296.257 167.672 295.688 167.854 295.354C168.037 295.021 168.343 294.844 168.723 294.853C169.103 294.862 169.596 295.146 170.581 295.715L210.228 318.605C211.214 319.174 211.706 319.458 212.086 319.889C212.466 320.319 212.772 320.849 212.955 321.393C213.137 321.937 213.137 322.506 213.137 323.644L213.137 361.943C213.137 363.081 213.137 363.65 212.955 363.983C212.772 364.316 212.466 364.493 212.086 364.485C211.706 364.476 211.214 364.191 210.228 363.622L170.581 340.732C169.596 340.163 169.103 339.879 168.723 339.448C168.343 339.019 168.037 338.488 167.854 337.945C167.672 337.4 167.672 336.831 167.672 335.694L167.672 297.394Z" fill="url(#paint25_linear_2377_5677)" fill-opacity="0.2" stroke="#9BA4BA" stroke-width="0.534887" />
		</g>
		<path d="M160.173 292.061C160.173 290.714 160.173 290.041 160.389 289.646C160.502 289.44 160.654 289.285 160.838 289.185C161.007 289.093 161.202 289.048 161.417 289.053C161.867 289.063 162.45 289.4 163.616 290.073L210.543 317.166C211.709 317.839 212.292 318.176 212.742 318.685C213.057 319.042 213.329 319.457 213.538 319.894C213.627 320.082 213.705 320.273 213.77 320.465C213.986 321.11 213.986 321.783 213.986 323.13L213.986 368.461C213.986 369.807 213.986 370.481 213.77 370.876C213.711 370.984 213.64 371.078 213.561 371.157C213.349 371.368 213.068 371.476 212.742 371.469C212.292 371.459 211.709 371.122 210.543 370.449L163.616 343.356C162.45 342.682 161.867 342.346 161.417 341.836C160.967 341.328 160.605 340.7 160.389 340.056C160.173 339.412 160.173 338.739 160.173 337.392L160.173 292.061Z" fill="#DEE4F2" fill-opacity="0.6" />
		<path d="M199.098 266.512L162.983 287.363C161.817 288.037 161.234 288.373 161 288.758C160.915 288.897 160.861 289.04 160.838 289.185C161.007 289.093 161.202 289.048 161.417 289.053C161.867 289.063 162.45 289.4 163.616 290.073L210.543 317.166C211.709 317.839 212.292 318.176 212.742 318.685C213.057 319.042 213.329 319.457 213.538 319.894C213.668 319.698 213.811 319.512 213.963 319.339C214.413 318.83 214.997 318.493 216.163 317.82L252.96 296.575C254.126 295.902 254.709 295.565 255.159 295.555C255.53 295.546 255.841 295.687 256.06 295.957C256.033 295.832 255.982 295.707 255.909 295.586C255.675 295.201 255.092 294.865 253.925 294.191L205.984 266.512C204.818 265.839 204.235 265.502 203.569 265.367C202.903 265.233 202.179 265.233 201.513 265.367C200.847 265.502 200.264 265.839 199.098 266.512Z" fill="#DEE4F2" fill-opacity="0.6" />
		<path d="M252.96 296.575L216.163 317.82C214.997 318.493 214.413 318.83 213.963 319.339C213.811 319.512 213.668 319.698 213.538 319.894C213.627 320.082 213.705 320.273 213.77 320.465C213.986 321.11 213.986 321.783 213.986 323.13L213.986 368.461C213.986 369.807 213.986 370.481 213.77 370.876C213.711 370.984 213.64 371.078 213.561 371.157C213.685 371.198 213.82 371.217 213.963 371.214C214.413 371.204 214.997 370.867 216.163 370.194L252.96 348.949C254.126 348.275 254.709 347.939 255.159 347.429C255.609 346.921 255.971 346.293 256.187 345.649C256.403 345.005 256.403 344.332 256.403 342.985V298.563C256.403 297.216 256.403 296.543 256.187 296.148C256.149 296.079 256.107 296.015 256.06 295.957C255.841 295.687 255.53 295.546 255.159 295.555C254.709 295.565 254.126 295.902 252.96 296.575Z" fill="#DEE4F2" fill-opacity="0.6" />
		<path d="M160.838 289.185C161.007 289.093 161.202 289.048 161.417 289.053C161.867 289.063 162.45 289.4 163.616 290.073L210.543 317.166C211.709 317.839 212.292 318.176 212.742 318.685C213.057 319.042 213.329 319.457 213.538 319.894M160.838 289.185C160.654 289.285 160.502 289.44 160.389 289.646C160.173 290.041 160.173 290.714 160.173 292.061L160.173 337.392C160.173 338.739 160.173 339.412 160.389 340.056C160.605 340.7 160.967 341.328 161.417 341.836C161.867 342.346 162.45 342.682 163.616 343.356L210.543 370.449C211.709 371.122 212.292 371.459 212.742 371.469C213.068 371.476 213.349 371.368 213.561 371.157M160.838 289.185C160.861 289.04 160.915 288.897 161 288.758C161.234 288.373 161.817 288.037 162.983 287.363L199.098 266.512C200.264 265.839 200.847 265.502 201.513 265.367C202.179 265.233 202.903 265.233 203.569 265.367C204.235 265.502 204.818 265.839 205.984 266.512L253.925 294.191C255.092 294.865 255.675 295.201 255.909 295.586C255.982 295.707 256.033 295.832 256.06 295.957M213.538 319.894C213.627 320.082 213.705 320.273 213.77 320.465C213.986 321.11 213.986 321.783 213.986 323.13L213.986 368.461C213.986 369.807 213.986 370.481 213.77 370.876C213.711 370.984 213.64 371.078 213.561 371.157M213.538 319.894C213.668 319.698 213.811 319.512 213.963 319.339C214.413 318.83 214.997 318.493 216.163 317.82L252.96 296.575C254.126 295.902 254.709 295.565 255.159 295.555C255.53 295.546 255.841 295.687 256.06 295.957M213.561 371.157C213.685 371.198 213.82 371.217 213.963 371.214C214.413 371.204 214.997 370.867 216.163 370.194L252.96 348.949C254.126 348.275 254.709 347.939 255.159 347.429C255.609 346.921 255.971 346.293 256.187 345.649C256.403 345.005 256.403 344.332 256.403 342.985V298.563C256.403 297.216 256.403 296.543 256.187 296.148C256.149 296.079 256.107 296.015 256.06 295.957" stroke="#EBF5FF" stroke-width="0.633094" />
		<g filter="url(#filter19_di_2377_5677)">
			<mask id="path-67-inside-17_2377_5677" fill="white">
				<path d="M86.0557 145.721L166.104 191.937L161.718 194.469L81.6695 148.253L86.0557 145.721Z" />
			</mask>
			<path d="M86.0557 145.721L166.104 191.937L161.718 194.469L81.6695 148.253L86.0557 145.721Z" fill="#DEE4F2" />
			<path d="M86.0557 145.721L85.5074 146.038L165.556 192.253L166.104 191.937L166.652 191.62L86.6039 145.404L86.0557 145.721Z" fill="#9BA4BA" mask="url(#path-67-inside-17_2377_5677)" />
			<mask id="path-69-inside-18_2377_5677" fill="white">
				<path d="M85.5801 145.972L89.418 148.188L50.9249 170.412L47.087 168.196L85.5801 145.972Z" />
			</mask>
			<g filter="url(#filter20_i_2377_5677)">
				<path d="M85.5801 145.972L89.418 148.188L50.9249 170.412L47.087 168.196L85.5801 145.972Z" fill="url(#paint26_linear_2377_5677)" />
			</g>
			<path d="M47.087 168.196L47.6353 168.512L86.1284 146.288L85.5801 145.972L85.0318 145.655L46.5387 167.879L47.087 168.196Z" fill="#9BA4BA" mask="url(#path-69-inside-18_2377_5677)" />
			<mask id="path-71-inside-19_2377_5677" fill="white">
				<path d="M26.084 151.005L55.3124 167.88L50.9262 170.412L21.6978 153.537L26.084 151.005Z" />
			</mask>
			<path d="M26.084 151.005L55.3124 167.88L50.9262 170.412L21.6978 153.537L26.084 151.005Z" fill="#DEE4F2" />
			<path d="M26.084 151.005L25.5357 151.321L54.7642 168.196L55.3124 167.88L55.8607 167.563L26.6323 150.688L26.084 151.005Z" fill="#9BA4BA" mask="url(#path-71-inside-19_2377_5677)" />
			<path d="M52.7061 165.587L55.9944 167.485L50.9256 170.412L47.6373 168.513L52.7061 165.587Z" fill="#DEE4F2" />
		</g>
		<g filter="url(#filter21_di_2377_5677)">
			<mask id="path-74-inside-20_2377_5677" fill="white">
				<path d="M85.8838 154.694L165.932 200.91L161.546 203.442L81.4976 157.226L85.8838 154.694Z" />
			</mask>
			<path d="M85.8838 154.694L165.932 200.91L161.546 203.442L81.4976 157.226L85.8838 154.694Z" fill="#DEE4F2" />
			<path d="M85.8838 154.694L85.3355 155.011L165.384 201.226L165.932 200.91L166.48 200.593L86.4321 154.377L85.8838 154.694Z" fill="#9BA4BA" mask="url(#path-74-inside-20_2377_5677)" />
			<mask id="path-76-inside-21_2377_5677" fill="white">
				<path d="M85.4082 154.945L89.2461 157.161L50.7531 179.385L46.9151 177.169L85.4082 154.945Z" />
			</mask>
			<g filter="url(#filter22_i_2377_5677)">
				<path d="M85.4082 154.945L89.2461 157.161L50.7531 179.385L46.9151 177.169L85.4082 154.945Z" fill="url(#paint27_linear_2377_5677)" />
			</g>
			<path d="M46.9151 177.169L47.4634 177.485L85.9565 155.261L85.4082 154.945L84.8599 154.628L46.3669 176.852L46.9151 177.169Z" fill="#9BA4BA" mask="url(#path-76-inside-21_2377_5677)" />
			<mask id="path-78-inside-22_2377_5677" fill="white">
				<path d="M17.4512 155.093L55.1404 176.853L50.7542 179.385L13.065 157.625L17.4512 155.093Z" />
			</mask>
			<path d="M17.4512 155.093L55.1404 176.853L50.7542 179.385L13.065 157.625L17.4512 155.093Z" fill="#DEE4F2" />
			<path d="M17.4512 155.093L16.9029 155.409L54.5922 177.169L55.1404 176.853L55.6887 176.536L17.9994 154.776L17.4512 155.093Z" fill="#9BA4BA" mask="url(#path-78-inside-22_2377_5677)" />
			<path d="M51.582 174.01L55.8222 176.458L50.7534 179.384L46.5132 176.936L51.582 174.01Z" fill="#DEE4F2" />
		</g>
		<g filter="url(#filter23_f_2377_5677)">
			<path d="M-47.7384 95.4609C-48.7237 94.892 -49.2164 94.6075 -49.414 94.2826C-49.6114 93.9581 -49.6114 93.6045 -49.414 93.28C-49.2164 92.9551 -48.7237 92.6706 -47.7384 92.1018L-17.2257 74.4853C-16.2404 73.9164 -15.7478 73.632 -15.1849 73.5178C-14.6229 73.4039 -14.0104 73.4039 -13.4484 73.5178C-12.8856 73.632 -12.3929 73.9164 -11.4076 74.4853L29.0968 97.8705C30.0821 98.4394 30.5748 98.7238 30.7724 99.0488C30.9698 99.3733 30.9698 99.7269 30.7724 100.051C30.5748 100.376 30.0821 100.661 29.0968 101.23L-1.41586 118.846C-2.40117 119.415 -2.89383 119.699 -3.45668 119.814C-4.01868 119.927 -4.63115 119.927 -5.19315 119.814C-5.756 119.699 -6.24865 119.415 -7.23397 118.846L-47.7384 95.4609Z" fill="url(#paint28_linear_2377_5677)" fill-opacity="0.2" stroke="#9BA4BA" stroke-width="0.534887" />
			<rect width="42.6167" height="44.2495" rx="2.13955" transform="matrix(0.866025 -0.5 2.20305e-08 1 -5.7168 119.513)" fill="url(#paint29_linear_2377_5677)" fill-opacity="0.2" stroke="#9BA4BA" stroke-width="0.534887" />
		</g>
		<path d="M-57.6113 90.7371C-57.6113 89.3905 -57.6113 88.7172 -57.3952 88.3223C-57.2827 88.1166 -57.1302 87.9613 -56.9463 87.8612C-56.7777 87.7694 -56.5826 87.724 -56.3676 87.7289C-55.9175 87.7392 -55.3344 88.0759 -54.1682 88.7492L-7.24154 115.842C-6.07532 116.516 -5.49221 116.852 -5.04214 117.362C-4.72729 117.718 -4.45512 118.133 -4.24615 118.571C-4.15685 118.758 -4.0791 118.949 -4.01449 119.142C-3.79837 119.786 -3.79837 120.459 -3.79837 121.806L-3.79838 167.137C-3.79838 168.484 -3.79838 169.157 -4.0145 169.552C-4.07362 169.66 -4.14376 169.754 -4.22367 169.834C-4.43543 170.044 -4.71588 170.153 -5.04214 170.145C-5.49221 170.135 -6.07532 169.798 -7.24154 169.125L-54.1682 142.032C-55.3344 141.359 -55.9175 141.022 -56.3676 140.512C-56.817 140.004 -57.1794 139.376 -57.3952 138.733C-57.6113 138.088 -57.6113 137.415 -57.6113 136.068L-57.6113 90.7371Z" fill="#DEE4F2" fill-opacity="0.6" />
		<path d="M-18.6864 65.1886L-54.8013 86.0396C-55.9675 86.7129 -56.5506 87.0496 -56.7845 87.4342C-56.869 87.5731 -56.923 87.7165 -56.9463 87.8612C-56.7777 87.7694 -56.5826 87.724 -56.3676 87.7289C-55.9175 87.7392 -55.3344 88.0759 -54.1682 88.7492L-7.24154 115.842C-6.07532 116.516 -5.49221 116.852 -5.04214 117.362C-4.72729 117.718 -4.45512 118.133 -4.24615 118.571C-4.11594 118.375 -3.97338 118.188 -3.82079 118.015C-3.37073 117.506 -2.78762 117.169 -1.6214 116.496L35.1757 95.2512C36.3419 94.5779 36.9251 94.2412 37.3751 94.2309C37.7456 94.2224 38.0569 94.3631 38.2758 94.6337C38.2486 94.5078 38.1981 94.3832 38.1244 94.2621C37.8905 93.8775 37.3074 93.5408 36.1411 92.8675L-11.8 65.1886C-12.9663 64.5153 -13.5494 64.1787 -14.2155 64.0436C-14.8807 63.9087 -15.6057 63.9087 -16.2709 64.0436C-16.937 64.1787 -17.5201 64.5153 -18.6864 65.1886Z" fill="#DEE4F2" fill-opacity="0.6" />
		<path d="M35.1757 95.2512L-1.6214 116.496C-2.78762 117.169 -3.37073 117.506 -3.82079 118.015C-3.97338 118.188 -4.11594 118.375 -4.24615 118.571C-4.15685 118.758 -4.0791 118.949 -4.01449 119.142C-3.79837 119.786 -3.79837 120.459 -3.79837 121.806L-3.79838 167.137C-3.79838 168.484 -3.79838 169.157 -4.0145 169.552C-4.07362 169.66 -4.14376 169.754 -4.22367 169.834C-4.09959 169.874 -3.96465 169.893 -3.82079 169.89C-3.37073 169.88 -2.78762 169.543 -1.6214 168.87L35.1757 147.625C36.3419 146.952 36.9251 146.615 37.3751 146.106C37.8245 145.597 38.187 144.969 38.4028 144.326C38.6189 143.681 38.6189 143.008 38.6189 141.661V97.2391C38.6189 95.8925 38.6189 95.2191 38.4028 94.8242C38.3649 94.7549 38.3224 94.6914 38.2758 94.6337C38.0569 94.3631 37.7456 94.2224 37.3751 94.2309C36.9251 94.2412 36.3419 94.5779 35.1757 95.2512Z" fill="#DEE4F2" fill-opacity="0.6" />
		<path d="M-56.9463 87.8612C-56.7777 87.7694 -56.5826 87.724 -56.3676 87.7289C-55.9175 87.7392 -55.3344 88.0759 -54.1682 88.7492L-7.24154 115.842C-6.07532 116.516 -5.49221 116.852 -5.04214 117.362C-4.72729 117.718 -4.45512 118.133 -4.24615 118.571M-56.9463 87.8612C-57.1302 87.9613 -57.2827 88.1166 -57.3952 88.3223C-57.6113 88.7172 -57.6113 89.3905 -57.6113 90.7371L-57.6113 136.068C-57.6113 137.415 -57.6113 138.088 -57.3952 138.733C-57.1794 139.376 -56.817 140.004 -56.3676 140.512C-55.9175 141.022 -55.3344 141.359 -54.1682 142.032L-7.24154 169.125C-6.07532 169.798 -5.49221 170.135 -5.04214 170.145C-4.71588 170.153 -4.43543 170.044 -4.22367 169.834M-56.9463 87.8612C-56.923 87.7165 -56.869 87.5731 -56.7845 87.4342C-56.5506 87.0496 -55.9675 86.7129 -54.8013 86.0396L-18.6864 65.1886C-17.5201 64.5153 -16.937 64.1787 -16.2708 64.0436C-15.6057 63.9087 -14.8807 63.9087 -14.2156 64.0436C-13.5494 64.1787 -12.9663 64.5153 -11.8 65.1886L36.1411 92.8675C37.3074 93.5408 37.8905 93.8775 38.1244 94.2621C38.1981 94.3833 38.2486 94.5078 38.2758 94.6337M-4.24615 118.571C-4.15685 118.758 -4.0791 118.949 -4.01449 119.142C-3.79837 119.786 -3.79837 120.459 -3.79837 121.806L-3.79838 167.137C-3.79838 168.484 -3.79838 169.157 -4.0145 169.552C-4.07362 169.66 -4.14376 169.754 -4.22367 169.834M-4.24615 118.571C-4.11595 118.375 -3.97338 118.188 -3.82079 118.015C-3.37073 117.506 -2.78762 117.169 -1.62139 116.496L35.1757 95.2512C36.3419 94.5779 36.9251 94.2412 37.3751 94.2309C37.7456 94.2224 38.0569 94.3631 38.2758 94.6337M-4.22367 169.834C-4.09959 169.874 -3.96465 169.893 -3.82079 169.89C-3.37073 169.88 -2.78762 169.543 -1.62139 168.87L35.1757 147.625C36.342 146.952 36.9251 146.615 37.3751 146.106C37.8245 145.597 38.187 144.969 38.4028 144.326C38.6189 143.681 38.6189 143.008 38.6189 141.661V97.2391C38.6189 95.8925 38.6189 95.2191 38.4028 94.8242C38.3649 94.7549 38.3224 94.6914 38.2758 94.6337" stroke="#EBF5FF" stroke-width="0.633094" />
		<g filter="url(#filter24_f_2377_5677)">
			<path d="M116.866 144.349C115.881 143.78 115.388 143.495 115.19 143.17C114.993 142.846 114.993 142.492 115.19 142.168C115.388 141.843 115.881 141.558 116.866 140.99L147.379 123.373C148.364 122.804 148.857 122.52 149.42 122.406C149.982 122.292 150.594 122.292 151.156 122.406C151.719 122.52 152.212 122.804 153.197 123.373L193.701 146.758C194.687 147.327 195.179 147.612 195.377 147.937C195.574 148.261 195.574 148.615 195.377 148.939C195.179 149.264 194.687 149.548 193.701 150.117L163.189 167.734C162.203 168.303 161.711 168.587 161.148 168.701C160.586 168.815 159.973 168.815 159.411 168.701C158.848 168.587 158.356 168.303 157.371 167.734L116.866 144.349Z" fill="url(#paint30_linear_2377_5677)" stroke="#045AAA" stroke-width="0.534887" />
			<rect width="42.6167" height="44.2495" rx="2.13955" transform="matrix(0.866025 -0.5 2.20305e-08 1 158.888 168.401)" fill="url(#paint31_linear_2377_5677)" stroke="#045AAA" stroke-width="0.534887" />
			<path d="M114.491 144.958C114.491 143.821 114.491 143.252 114.674 142.918C114.856 142.585 115.162 142.408 115.542 142.417C115.922 142.425 116.415 142.71 117.4 143.279L157.048 166.169C158.033 166.738 158.525 167.022 158.906 167.453C159.285 167.883 159.592 168.413 159.774 168.957C159.957 169.501 159.957 170.07 159.957 171.208L159.957 209.507C159.957 210.645 159.957 211.214 159.774 211.547C159.592 211.88 159.285 212.057 158.906 212.048C158.525 212.04 158.033 211.755 157.048 211.186L117.4 188.296C116.415 187.727 115.922 187.443 115.542 187.012C115.162 186.583 114.856 186.052 114.674 185.509C114.491 184.964 114.491 184.395 114.491 183.257L114.491 144.958Z" fill="url(#paint32_linear_2377_5677)" stroke="#045AAA" stroke-width="0.534887" />
		</g>
		<path d="M106.993 140.86C106.993 139.513 106.993 138.84 107.209 138.445C107.322 138.24 107.474 138.084 107.658 137.984C107.827 137.892 108.022 137.847 108.237 137.852C108.687 137.862 109.27 138.199 110.436 138.872L157.363 165.965C158.529 166.639 159.112 166.975 159.562 167.485C159.877 167.841 160.149 168.256 160.358 168.694C160.448 168.881 160.525 169.072 160.59 169.265C160.806 169.909 160.806 170.582 160.806 171.929L160.806 217.26C160.806 218.607 160.806 219.28 160.59 219.675C160.531 219.783 160.461 219.877 160.381 219.957C160.169 220.167 159.889 220.276 159.562 220.268C159.112 220.258 158.529 219.921 157.363 219.248L110.436 192.155C109.27 191.482 108.687 191.145 108.237 190.635C107.788 190.127 107.425 189.499 107.209 188.856C106.993 188.211 106.993 187.538 106.993 186.191L106.993 140.86Z" fill="url(#paint33_linear_2377_5677)" fill-opacity="0.3" />
		<path d="M106.993 140.86C106.993 139.513 106.993 138.84 107.209 138.445C107.322 138.24 107.474 138.084 107.658 137.984C107.827 137.892 108.022 137.847 108.237 137.852C108.687 137.862 109.27 138.199 110.436 138.872L157.363 165.965C158.529 166.639 159.112 166.975 159.562 167.485C159.877 167.841 160.149 168.256 160.358 168.694C160.448 168.881 160.525 169.072 160.59 169.265C160.806 169.909 160.806 170.582 160.806 171.929L160.806 217.26C160.806 218.607 160.806 219.28 160.59 219.675C160.531 219.783 160.461 219.877 160.381 219.957C160.169 220.167 159.889 220.276 159.562 220.268C159.112 220.258 158.529 219.921 157.363 219.248L110.436 192.155C109.27 191.482 108.687 191.145 108.237 190.635C107.788 190.127 107.425 189.499 107.209 188.856C106.993 188.211 106.993 187.538 106.993 186.191L106.993 140.86Z" fill="url(#paint34_radial_2377_5677)" fill-opacity="0.2" />
		<path d="M145.918 115.312L109.803 136.163C108.637 136.836 108.054 137.173 107.82 137.557C107.735 137.696 107.682 137.839 107.658 137.984C107.827 137.892 108.022 137.847 108.237 137.852C108.687 137.862 109.27 138.199 110.436 138.872L157.363 165.965C158.529 166.639 159.112 166.975 159.562 167.485C159.877 167.841 160.149 168.256 160.358 168.694C160.489 168.498 160.631 168.311 160.784 168.138C161.234 167.629 161.817 167.292 162.983 166.619L199.78 145.374C200.946 144.701 201.53 144.364 201.98 144.354C202.35 144.345 202.661 144.486 202.88 144.757C202.853 144.631 202.803 144.506 202.729 144.385C202.495 144 201.912 143.664 200.746 142.99L152.804 115.312C151.638 114.638 151.055 114.302 150.389 114.167C149.724 114.032 148.999 114.032 148.334 114.167C147.667 114.302 147.084 114.638 145.918 115.312Z" fill="url(#paint35_linear_2377_5677)" fill-opacity="0.3" />
		<path d="M145.918 115.312L109.803 136.163C108.637 136.836 108.054 137.173 107.82 137.557C107.735 137.696 107.682 137.839 107.658 137.984C107.827 137.892 108.022 137.847 108.237 137.852C108.687 137.862 109.27 138.199 110.436 138.872L157.363 165.965C158.529 166.639 159.112 166.975 159.562 167.485C159.877 167.841 160.149 168.256 160.358 168.694C160.489 168.498 160.631 168.311 160.784 168.138C161.234 167.629 161.817 167.292 162.983 166.619L199.78 145.374C200.946 144.701 201.53 144.364 201.98 144.354C202.35 144.345 202.661 144.486 202.88 144.757C202.853 144.631 202.803 144.506 202.729 144.385C202.495 144 201.912 143.664 200.746 142.99L152.804 115.312C151.638 114.638 151.055 114.302 150.389 114.167C149.724 114.032 148.999 114.032 148.334 114.167C147.667 114.302 147.084 114.638 145.918 115.312Z" fill="url(#paint36_radial_2377_5677)" fill-opacity="0.2" />
		<path d="M199.78 145.374L162.983 166.619C161.817 167.292 161.234 167.629 160.784 168.138C160.631 168.311 160.489 168.498 160.358 168.694C160.448 168.881 160.525 169.072 160.59 169.265C160.806 169.909 160.806 170.582 160.806 171.929L160.806 217.26C160.806 218.607 160.806 219.28 160.59 219.675C160.531 219.783 160.461 219.877 160.381 219.957C160.505 219.997 160.64 220.016 160.784 220.013C161.234 220.003 161.817 219.666 162.983 218.993L199.78 197.748C200.946 197.075 201.53 196.738 201.98 196.229C202.429 195.72 202.791 195.092 203.007 194.449C203.223 193.804 203.223 193.131 203.223 191.784V147.362C203.223 146.015 203.223 145.342 203.007 144.947C202.969 144.878 202.927 144.814 202.88 144.757C202.661 144.486 202.35 144.345 201.98 144.354C201.53 144.364 200.946 144.701 199.78 145.374Z" fill="url(#paint37_linear_2377_5677)" fill-opacity="0.3" />
		<path d="M199.78 145.374L162.983 166.619C161.817 167.292 161.234 167.629 160.784 168.138C160.631 168.311 160.489 168.498 160.358 168.694C160.448 168.881 160.525 169.072 160.59 169.265C160.806 169.909 160.806 170.582 160.806 171.929L160.806 217.26C160.806 218.607 160.806 219.28 160.59 219.675C160.531 219.783 160.461 219.877 160.381 219.957C160.505 219.997 160.64 220.016 160.784 220.013C161.234 220.003 161.817 219.666 162.983 218.993L199.78 197.748C200.946 197.075 201.53 196.738 201.98 196.229C202.429 195.72 202.791 195.092 203.007 194.449C203.223 193.804 203.223 193.131 203.223 191.784V147.362C203.223 146.015 203.223 145.342 203.007 144.947C202.969 144.878 202.927 144.814 202.88 144.757C202.661 144.486 202.35 144.345 201.98 144.354C201.53 144.364 200.946 144.701 199.78 145.374Z" fill="url(#paint38_radial_2377_5677)" fill-opacity="0.2" />
		<path d="M107.658 137.984C107.827 137.892 108.022 137.847 108.237 137.852C108.687 137.862 109.27 138.199 110.436 138.872L157.363 165.965C158.529 166.639 159.112 166.975 159.562 167.485C159.877 167.841 160.149 168.256 160.358 168.694M107.658 137.984C107.474 138.084 107.322 138.24 107.209 138.445C106.993 138.84 106.993 139.513 106.993 140.86L106.993 186.191C106.993 187.538 106.993 188.211 107.209 188.856C107.425 189.499 107.788 190.127 108.237 190.635C108.687 191.145 109.27 191.482 110.436 192.155L157.363 219.248C158.529 219.921 159.112 220.258 159.562 220.268C159.889 220.276 160.169 220.167 160.381 219.957M107.658 137.984C107.682 137.839 107.735 137.696 107.82 137.557C108.054 137.173 108.637 136.836 109.803 136.163L145.918 115.312C147.084 114.638 147.667 114.302 148.334 114.167C148.999 114.032 149.724 114.032 150.389 114.167C151.055 114.302 151.638 114.638 152.804 115.312L200.746 142.99C201.912 143.664 202.495 144 202.729 144.385C202.803 144.506 202.853 144.631 202.88 144.757M160.358 168.694C160.448 168.881 160.525 169.072 160.59 169.265C160.806 169.909 160.806 170.582 160.806 171.929L160.806 217.26C160.806 218.607 160.806 219.28 160.59 219.675C160.531 219.783 160.461 219.877 160.381 219.957M160.358 168.694C160.489 168.498 160.631 168.311 160.784 168.138C161.234 167.629 161.817 167.292 162.983 166.619L199.78 145.374C200.946 144.701 201.53 144.364 201.98 144.354C202.35 144.345 202.661 144.486 202.88 144.757M160.381 219.957C160.505 219.997 160.64 220.016 160.784 220.013C161.234 220.003 161.817 219.666 162.983 218.993L199.78 197.748C200.946 197.075 201.53 196.738 201.98 196.229C202.429 195.72 202.791 195.092 203.007 194.449C203.223 193.804 203.223 193.131 203.223 191.784V147.362C203.223 146.015 203.223 145.342 203.007 144.947C202.969 144.878 202.927 144.814 202.88 144.757" stroke="#6E9BFF" stroke-width="0.633094" />
	</g>
	<rect x="0.316547" y="0.316547" width="311.482" height="351.367" rx="12.3453" stroke="#DEE4F2" stroke-width="0.633094" />
	<defs>
		<filter id="filter0_di_2377_5677" x="145.511" y="70.0112" width="138.894" height="107.374" filterUnits="userSpaceOnUse" color-interpolation-filters="sRGB">
			<feFlood flood-opacity="0" result="BackgroundImageFix" />
			<feColorMatrix in="SourceAlpha" type="matrix" values="0 0 0 0 0 0 0 0 0 0 0 0 0 0 0 0 0 0 127 0" result="hardAlpha" />
			<feOffset dy="2.53237" />
			<feGaussianBlur stdDeviation="1.26619" />
			<feComposite in2="hardAlpha" operator="out" />
			<feColorMatrix type="matrix" values="0 0 0 0 0.85098 0 0 0 0 0.87451 0 0 0 0 0.92549 0 0 0 0.25 0" />
			<feBlend mode="normal" in2="BackgroundImageFix" result="effect1_dropShadow_2377_5677" />
			<feBlend mode="normal" in="SourceGraphic" in2="effect1_dropShadow_2377_5677" result="shape" />
			<feColorMatrix in="SourceAlpha" type="matrix" values="0 0 0 0 0 0 0 0 0 0 0 0 0 0 0 0 0 0 127 0" result="hardAlpha" />
			<feOffset dy="2.53237" />
			<feGaussianBlur stdDeviation="1.26619" />
			<feComposite in2="hardAlpha" operator="arithmetic" k2="-1" k3="1" />
			<feColorMatrix type="matrix" values="0 0 0 0 0.968627 0 0 0 0 0.976471 0 0 0 0 0.996078 0 0 0 0.72 0" />
			<feBlend mode="normal" in2="shape" result="effect2_innerShadow_2377_5677" />
		</filter>
		<filter id="filter1_ii_2377_5677" x="173.475" y="113.859" width="58.3096" height="36.1974" filterUnits="userSpaceOnUse" color-interpolation-filters="sRGB">
			<feFlood flood-opacity="0" result="BackgroundImageFix" />
			<feBlend mode="normal" in="SourceGraphic" in2="BackgroundImageFix" result="shape" />
			<feColorMatrix in="SourceAlpha" type="matrix" values="0 0 0 0 0 0 0 0 0 0 0 0 0 0 0 0 0 0 127 0" result="hardAlpha" />
			<feOffset dy="2.53237" />
			<feGaussianBlur stdDeviation="1.26619" />
			<feComposite in2="hardAlpha" operator="arithmetic" k2="-1" k3="1" />
			<feColorMatrix type="matrix" values="0 0 0 0 0.968627 0 0 0 0 0.976471 0 0 0 0 0.996078 0 0 0 0.26 0" />
			<feBlend mode="normal" in2="shape" result="effect1_innerShadow_2377_5677" />
			<feColorMatrix in="SourceAlpha" type="matrix" values="0 0 0 0 0 0 0 0 0 0 0 0 0 0 0 0 0 0 127 0" result="hardAlpha" />
			<feOffset dy="2.53237" />
			<feGaussianBlur stdDeviation="1.26619" />
			<feComposite in2="hardAlpha" operator="arithmetic" k2="-1" k3="1" />
			<feColorMatrix type="matrix" values="0 0 0 0 0.968627 0 0 0 0 0.976471 0 0 0 0 0.996078 0 0 0 0.26 0" />
			<feBlend mode="normal" in2="effect1_innerShadow_2377_5677" result="effect2_innerShadow_2377_5677" />
		</filter>
		<filter id="filter2_ii_2377_5677" x="158.475" y="114.859" width="58.3096" height="36.1974" filterUnits="userSpaceOnUse" color-interpolation-filters="sRGB">
			<feFlood flood-opacity="0" result="BackgroundImageFix" />
			<feBlend mode="normal" in="SourceGraphic" in2="BackgroundImageFix" result="shape" />
			<feColorMatrix in="SourceAlpha" type="matrix" values="0 0 0 0 0 0 0 0 0 0 0 0 0 0 0 0 0 0 127 0" result="hardAlpha" />
			<feOffset dy="2.53237" />
			<feGaussianBlur stdDeviation="1.26619" />
			<feComposite in2="hardAlpha" operator="arithmetic" k2="-1" k3="1" />
			<feColorMatrix type="matrix" values="0 0 0 0 0.968627 0 0 0 0 0.976471 0 0 0 0 0.996078 0 0 0 0.26 0" />
			<feBlend mode="normal" in2="shape" result="effect1_innerShadow_2377_5677" />
			<feColorMatrix in="SourceAlpha" type="matrix" values="0 0 0 0 0 0 0 0 0 0 0 0 0 0 0 0 0 0 127 0" result="hardAlpha" />
			<feOffset dy="2.53237" />
			<feGaussianBlur stdDeviation="1.26619" />
			<feComposite in2="hardAlpha" operator="arithmetic" k2="-1" k3="1" />
			<feColorMatrix type="matrix" values="0 0 0 0 0.968627 0 0 0 0 0.976471 0 0 0 0 0.996078 0 0 0 0.26 0" />
			<feBlend mode="normal" in2="effect1_innerShadow_2377_5677" result="effect2_innerShadow_2377_5677" />
		</filter>
		<filter id="filter3_i_2377_5677" x="176.067" y="111.259" width="98.9121" height="59.6393" filterUnits="userSpaceOnUse" color-interpolation-filters="sRGB">
			<feFlood flood-opacity="0" result="BackgroundImageFix" />
			<feBlend mode="normal" in="SourceGraphic" in2="BackgroundImageFix" result="shape" />
			<feColorMatrix in="SourceAlpha" type="matrix" values="0 0 0 0 0 0 0 0 0 0 0 0 0 0 0 0 0 0 127 0" result="hardAlpha" />
			<feOffset dy="2.53237" />
			<feGaussianBlur stdDeviation="1.26619" />
			<feComposite in2="hardAlpha" operator="arithmetic" k2="-1" k3="1" />
			<feColorMatrix type="matrix" values="0 0 0 0 0.968627 0 0 0 0 0.976471 0 0 0 0 0.996078 0 0 0 0.26 0" />
			<feBlend mode="normal" in2="shape" result="effect1_innerShadow_2377_5677" />
		</filter>
		<filter id="filter4_i_2377_5677" x="181.661" y="114.463" width="100.211" height="60.3891" filterUnits="userSpaceOnUse" color-interpolation-filters="sRGB">
			<feFlood flood-opacity="0" result="BackgroundImageFix" />
			<feBlend mode="normal" in="SourceGraphic" in2="BackgroundImageFix" result="shape" />
			<feColorMatrix in="SourceAlpha" type="matrix" values="0 0 0 0 0 0 0 0 0 0 0 0 0 0 0 0 0 0 127 0" result="hardAlpha" />
			<feOffset dy="2.53237" />
			<feGaussianBlur stdDeviation="1.26619" />
			<feComposite in2="hardAlpha" operator="arithmetic" k2="-1" k3="1" />
			<feColorMatrix type="matrix" values="0 0 0 0 0.968627 0 0 0 0 0.976471 0 0 0 0 0.996078 0 0 0 0.26 0" />
			<feBlend mode="normal" in2="shape" result="effect1_innerShadow_2377_5677" />
		</filter>
		<filter id="filter5_di_2377_5677" x="61.3465" y="206" width="86.0794" height="87.3214" filterUnits="userSpaceOnUse" color-interpolation-filters="sRGB">
			<feFlood flood-opacity="0" result="BackgroundImageFix" />
			<feColorMatrix in="SourceAlpha" type="matrix" values="0 0 0 0 0 0 0 0 0 0 0 0 0 0 0 0 0 0 127 0" result="hardAlpha" />
			<feOffset dy="2.53237" />
			<feGaussianBlur stdDeviation="1.26619" />
			<feComposite in2="hardAlpha" operator="out" />
			<feColorMatrix type="matrix" values="0 0 0 0 0.85098 0 0 0 0 0.87451 0 0 0 0 0.92549 0 0 0 0.25 0" />
			<feBlend mode="normal" in2="BackgroundImageFix" result="effect1_dropShadow_2377_5677" />
			<feBlend mode="normal" in="SourceGraphic" in2="effect1_dropShadow_2377_5677" result="shape" />
			<feColorMatrix in="SourceAlpha" type="matrix" values="0 0 0 0 0 0 0 0 0 0 0 0 0 0 0 0 0 0 127 0" result="hardAlpha" />
			<feOffset dy="2.53237" />
			<feGaussianBlur stdDeviation="1.26619" />
			<feComposite in2="hardAlpha" operator="arithmetic" k2="-1" k3="1" />
			<feColorMatrix type="matrix" values="0 0 0 0 0.968627 0 0 0 0 0.976471 0 0 0 0 0.996078 0 0 0 0.72 0" />
			<feBlend mode="normal" in2="shape" result="effect2_innerShadow_2377_5677" />
		</filter>
		<filter id="filter6_i_2377_5677" x="91.3877" y="206" width="53.5059" height="33.4243" filterUnits="userSpaceOnUse" color-interpolation-filters="sRGB">
			<feFlood flood-opacity="0" result="BackgroundImageFix" />
			<feBlend mode="normal" in="SourceGraphic" in2="BackgroundImageFix" result="shape" />
			<feColorMatrix in="SourceAlpha" type="matrix" values="0 0 0 0 0 0 0 0 0 0 0 0 0 0 0 0 0 0 127 0" result="hardAlpha" />
			<feOffset dy="2.53237" />
			<feGaussianBlur stdDeviation="1.26619" />
			<feComposite in2="hardAlpha" operator="arithmetic" k2="-1" k3="1" />
			<feColorMatrix type="matrix" values="0 0 0 0 0.968627 0 0 0 0 0.976471 0 0 0 0 0.996078 0 0 0 0.26 0" />
			<feBlend mode="normal" in2="shape" result="effect1_innerShadow_2377_5677" />
		</filter>
		<filter id="filter7_ii_2377_5677" x="80.2246" y="255.725" width="52.5068" height="35.0633" filterUnits="userSpaceOnUse" color-interpolation-filters="sRGB">
			<feFlood flood-opacity="0" result="BackgroundImageFix" />
			<feBlend mode="normal" in="SourceGraphic" in2="BackgroundImageFix" result="shape" />
			<feColorMatrix in="SourceAlpha" type="matrix" values="0 0 0 0 0 0 0 0 0 0 0 0 0 0 0 0 0 0 127 0" result="hardAlpha" />
			<feOffset dy="2.53237" />
			<feGaussianBlur stdDeviation="1.26619" />
			<feComposite in2="hardAlpha" operator="arithmetic" k2="-1" k3="1" />
			<feColorMatrix type="matrix" values="0 0 0 0 0.968627 0 0 0 0 0.976471 0 0 0 0 0.996078 0 0 0 0.26 0" />
			<feBlend mode="normal" in2="shape" result="effect1_innerShadow_2377_5677" />
			<feColorMatrix in="SourceAlpha" type="matrix" values="0 0 0 0 0 0 0 0 0 0 0 0 0 0 0 0 0 0 127 0" result="hardAlpha" />
			<feOffset dy="2.53237" />
			<feGaussianBlur stdDeviation="1.26619" />
			<feComposite in2="hardAlpha" operator="arithmetic" k2="-1" k3="1" />
			<feColorMatrix type="matrix" values="0 0 0 0 0.968627 0 0 0 0 0.976471 0 0 0 0 0.996078 0 0 0 0.26 0" />
			<feBlend mode="normal" in2="effect1_innerShadow_2377_5677" result="effect2_innerShadow_2377_5677" />
		</filter>
		<filter id="filter8_i_2377_5677" x="75.042" y="206" width="53.5059" height="33.4242" filterUnits="userSpaceOnUse" color-interpolation-filters="sRGB">
			<feFlood flood-opacity="0" result="BackgroundImageFix" />
			<feBlend mode="normal" in="SourceGraphic" in2="BackgroundImageFix" result="shape" />
			<feColorMatrix in="SourceAlpha" type="matrix" values="0 0 0 0 0 0 0 0 0 0 0 0 0 0 0 0 0 0 127 0" result="hardAlpha" />
			<feOffset dy="2.53237" />
			<feGaussianBlur stdDeviation="1.26619" />
			<feComposite in2="hardAlpha" operator="arithmetic" k2="-1" k3="1" />
			<feColorMatrix type="matrix" values="0 0 0 0 0.968627 0 0 0 0 0.976471 0 0 0 0 0.996078 0 0 0 0.26 0" />
			<feBlend mode="normal" in2="shape" result="effect1_innerShadow_2377_5677" />
		</filter>
		<filter id="filter9_ii_2377_5677" x="63.8789" y="255.725" width="52.5068" height="35.0633" filterUnits="userSpaceOnUse" color-interpolation-filters="sRGB">
			<feFlood flood-opacity="0" result="BackgroundImageFix" />
			<feBlend mode="normal" in="SourceGraphic" in2="BackgroundImageFix" result="shape" />
			<feColorMatrix in="SourceAlpha" type="matrix" values="0 0 0 0 0 0 0 0 0 0 0 0 0 0 0 0 0 0 127 0" result="hardAlpha" />
			<feOffset dy="2.53237" />
			<feGaussianBlur stdDeviation="1.26619" />
			<feComposite in2="hardAlpha" operator="arithmetic" k2="-1" k3="1" />
			<feColorMatrix type="matrix" values="0 0 0 0 0.968627 0 0 0 0 0.976471 0 0 0 0 0.996078 0 0 0 0.26 0" />
			<feBlend mode="normal" in2="shape" result="effect1_innerShadow_2377_5677" />
			<feColorMatrix in="SourceAlpha" type="matrix" values="0 0 0 0 0 0 0 0 0 0 0 0 0 0 0 0 0 0 127 0" result="hardAlpha" />
			<feOffset dy="2.53237" />
			<feGaussianBlur stdDeviation="1.26619" />
			<feComposite in2="hardAlpha" operator="arithmetic" k2="-1" k3="1" />
			<feColorMatrix type="matrix" values="0 0 0 0 0.968627 0 0 0 0 0.976471 0 0 0 0 0.996078 0 0 0 0.26 0" />
			<feBlend mode="normal" in2="effect1_innerShadow_2377_5677" result="effect2_innerShadow_2377_5677" />
		</filter>
		<filter id="filter10_di_2377_5677" x="183.368" y="193.836" width="149.47" height="53.813" filterUnits="userSpaceOnUse" color-interpolation-filters="sRGB">
			<feFlood flood-opacity="0" result="BackgroundImageFix" />
			<feColorMatrix in="SourceAlpha" type="matrix" values="0 0 0 0 0 0 0 0 0 0 0 0 0 0 0 0 0 0 127 0" result="hardAlpha" />
			<feOffset dy="2.53237" />
			<feGaussianBlur stdDeviation="1.26619" />
			<feComposite in2="hardAlpha" operator="out" />
			<feColorMatrix type="matrix" values="0 0 0 0 0.85098 0 0 0 0 0.87451 0 0 0 0 0.92549 0 0 0 0.25 0" />
			<feBlend mode="normal" in2="BackgroundImageFix" result="effect1_dropShadow_2377_5677" />
			<feBlend mode="normal" in="SourceGraphic" in2="effect1_dropShadow_2377_5677" result="shape" />
			<feColorMatrix in="SourceAlpha" type="matrix" values="0 0 0 0 0 0 0 0 0 0 0 0 0 0 0 0 0 0 127 0" result="hardAlpha" />
			<feOffset dy="2.53237" />
			<feGaussianBlur stdDeviation="1.26619" />
			<feComposite in2="hardAlpha" operator="arithmetic" k2="-1" k3="1" />
			<feColorMatrix type="matrix" values="0 0 0 0 0.968627 0 0 0 0 0.976471 0 0 0 0 0.996078 0 0 0 0.72 0" />
			<feBlend mode="normal" in2="shape" result="effect2_innerShadow_2377_5677" />
		</filter>
		<filter id="filter11_i_2377_5677" x="211.289" y="194.087" width="42.3311" height="26.9722" filterUnits="userSpaceOnUse" color-interpolation-filters="sRGB">
			<feFlood flood-opacity="0" result="BackgroundImageFix" />
			<feBlend mode="normal" in="SourceGraphic" in2="BackgroundImageFix" result="shape" />
			<feColorMatrix in="SourceAlpha" type="matrix" values="0 0 0 0 0 0 0 0 0 0 0 0 0 0 0 0 0 0 127 0" result="hardAlpha" />
			<feOffset dy="2.53237" />
			<feGaussianBlur stdDeviation="1.26619" />
			<feComposite in2="hardAlpha" operator="arithmetic" k2="-1" k3="1" />
			<feColorMatrix type="matrix" values="0 0 0 0 0.968627 0 0 0 0 0.976471 0 0 0 0 0.996078 0 0 0 0.26 0" />
			<feBlend mode="normal" in2="shape" result="effect1_innerShadow_2377_5677" />
		</filter>
		<filter id="filter12_di_2377_5677" x="174.735" y="202.809" width="157.931" height="53.8129" filterUnits="userSpaceOnUse" color-interpolation-filters="sRGB">
			<feFlood flood-opacity="0" result="BackgroundImageFix" />
			<feColorMatrix in="SourceAlpha" type="matrix" values="0 0 0 0 0 0 0 0 0 0 0 0 0 0 0 0 0 0 127 0" result="hardAlpha" />
			<feOffset dy="2.53237" />
			<feGaussianBlur stdDeviation="1.26619" />
			<feComposite in2="hardAlpha" operator="out" />
			<feColorMatrix type="matrix" values="0 0 0 0 0.85098 0 0 0 0 0.87451 0 0 0 0 0.92549 0 0 0 0.25 0" />
			<feBlend mode="normal" in2="BackgroundImageFix" result="effect1_dropShadow_2377_5677" />
			<feBlend mode="normal" in="SourceGraphic" in2="effect1_dropShadow_2377_5677" result="shape" />
			<feColorMatrix in="SourceAlpha" type="matrix" values="0 0 0 0 0 0 0 0 0 0 0 0 0 0 0 0 0 0 127 0" result="hardAlpha" />
			<feOffset dy="2.53237" />
			<feGaussianBlur stdDeviation="1.26619" />
			<feComposite in2="hardAlpha" operator="arithmetic" k2="-1" k3="1" />
			<feColorMatrix type="matrix" values="0 0 0 0 0.968627 0 0 0 0 0.976471 0 0 0 0 0.996078 0 0 0 0.72 0" />
			<feBlend mode="normal" in2="shape" result="effect2_innerShadow_2377_5677" />
		</filter>
		<filter id="filter13_i_2377_5677" x="211.117" y="203.06" width="42.3311" height="26.9722" filterUnits="userSpaceOnUse" color-interpolation-filters="sRGB">
			<feFlood flood-opacity="0" result="BackgroundImageFix" />
			<feBlend mode="normal" in="SourceGraphic" in2="BackgroundImageFix" result="shape" />
			<feColorMatrix in="SourceAlpha" type="matrix" values="0 0 0 0 0 0 0 0 0 0 0 0 0 0 0 0 0 0 127 0" result="hardAlpha" />
			<feOffset dy="2.53237" />
			<feGaussianBlur stdDeviation="1.26619" />
			<feComposite in2="hardAlpha" operator="arithmetic" k2="-1" k3="1" />
			<feColorMatrix type="matrix" values="0 0 0 0 0.968627 0 0 0 0 0.976471 0 0 0 0 0.996078 0 0 0 0.26 0" />
			<feBlend mode="normal" in2="shape" result="effect1_innerShadow_2377_5677" />
		</filter>
		<filter id="filter14_f_2377_5677" x="255.186" y="30.1613" width="86.0447" height="94.4959" filterUnits="userSpaceOnUse" color-interpolation-filters="sRGB">
			<feFlood flood-opacity="0" result="BackgroundImageFix" />
			<feBlend mode="normal" in="SourceGraphic" in2="BackgroundImageFix" result="shape" />
			<feGaussianBlur stdDeviation="1.06977" result="effect1_foregroundBlur_2377_5677" />
		</filter>
		<filter id="filter15_f_2377_5677" x="278.624" y="172.399" width="86.0447" height="94.4958" filterUnits="userSpaceOnUse" color-interpolation-filters="sRGB">
			<feFlood flood-opacity="0" result="BackgroundImageFix" />
			<feBlend mode="normal" in="SourceGraphic" in2="BackgroundImageFix" result="shape" />
			<feGaussianBlur stdDeviation="1.06977" result="effect1_foregroundBlur_2377_5677" />
		</filter>
		<filter id="filter16_f_2377_5677" x="81.0987" y="-11.1984" width="86.0457" height="94.4959" filterUnits="userSpaceOnUse" color-interpolation-filters="sRGB">
			<feFlood flood-opacity="0" result="BackgroundImageFix" />
			<feBlend mode="normal" in="SourceGraphic" in2="BackgroundImageFix" result="shape" />
			<feGaussianBlur stdDeviation="1.06977" result="effect1_foregroundBlur_2377_5677" />
		</filter>
		<filter id="filter17_f_2377_5677" x="-4.36806" y="240.14" width="86.0447" height="94.4959" filterUnits="userSpaceOnUse" color-interpolation-filters="sRGB">
			<feFlood flood-opacity="0" result="BackgroundImageFix" />
			<feBlend mode="normal" in="SourceGraphic" in2="BackgroundImageFix" result="shape" />
			<feGaussianBlur stdDeviation="1.06977" result="effect1_foregroundBlur_2377_5677" />
		</filter>
		<filter id="filter18_f_2377_5677" x="165.301" y="272.427" width="86.0447" height="94.4959" filterUnits="userSpaceOnUse" color-interpolation-filters="sRGB">
			<feFlood flood-opacity="0" result="BackgroundImageFix" />
			<feBlend mode="normal" in="SourceGraphic" in2="BackgroundImageFix" result="shape" />
			<feGaussianBlur stdDeviation="1.06977" result="effect1_foregroundBlur_2377_5677" />
		</filter>
		<filter id="filter19_di_2377_5677" x="19.1659" y="145.721" width="149.47" height="53.813" filterUnits="userSpaceOnUse" color-interpolation-filters="sRGB">
			<feFlood flood-opacity="0" result="BackgroundImageFix" />
			<feColorMatrix in="SourceAlpha" type="matrix" values="0 0 0 0 0 0 0 0 0 0 0 0 0 0 0 0 0 0 127 0" result="hardAlpha" />
			<feOffset dy="2.53237" />
			<feGaussianBlur stdDeviation="1.26619" />
			<feComposite in2="hardAlpha" operator="out" />
			<feColorMatrix type="matrix" values="0 0 0 0 0.85098 0 0 0 0 0.87451 0 0 0 0 0.92549 0 0 0 0.25 0" />
			<feBlend mode="normal" in2="BackgroundImageFix" result="effect1_dropShadow_2377_5677" />
			<feBlend mode="normal" in="SourceGraphic" in2="effect1_dropShadow_2377_5677" result="shape" />
			<feColorMatrix in="SourceAlpha" type="matrix" values="0 0 0 0 0 0 0 0 0 0 0 0 0 0 0 0 0 0 127 0" result="hardAlpha" />
			<feOffset dy="2.53237" />
			<feGaussianBlur stdDeviation="1.26619" />
			<feComposite in2="hardAlpha" operator="arithmetic" k2="-1" k3="1" />
			<feColorMatrix type="matrix" values="0 0 0 0 0.968627 0 0 0 0 0.976471 0 0 0 0 0.996078 0 0 0 0.72 0" />
			<feBlend mode="normal" in2="shape" result="effect2_innerShadow_2377_5677" />
		</filter>
		<filter id="filter20_i_2377_5677" x="47.0869" y="145.972" width="42.3311" height="26.9722" filterUnits="userSpaceOnUse" color-interpolation-filters="sRGB">
			<feFlood flood-opacity="0" result="BackgroundImageFix" />
			<feBlend mode="normal" in="SourceGraphic" in2="BackgroundImageFix" result="shape" />
			<feColorMatrix in="SourceAlpha" type="matrix" values="0 0 0 0 0 0 0 0 0 0 0 0 0 0 0 0 0 0 127 0" result="hardAlpha" />
			<feOffset dy="2.53237" />
			<feGaussianBlur stdDeviation="1.26619" />
			<feComposite in2="hardAlpha" operator="arithmetic" k2="-1" k3="1" />
			<feColorMatrix type="matrix" values="0 0 0 0 0.968627 0 0 0 0 0.976471 0 0 0 0 0.996078 0 0 0 0.26 0" />
			<feBlend mode="normal" in2="shape" result="effect1_innerShadow_2377_5677" />
		</filter>
		<filter id="filter21_di_2377_5677" x="10.5331" y="154.694" width="157.931" height="53.813" filterUnits="userSpaceOnUse" color-interpolation-filters="sRGB">
			<feFlood flood-opacity="0" result="BackgroundImageFix" />
			<feColorMatrix in="SourceAlpha" type="matrix" values="0 0 0 0 0 0 0 0 0 0 0 0 0 0 0 0 0 0 127 0" result="hardAlpha" />
			<feOffset dy="2.53237" />
			<feGaussianBlur stdDeviation="1.26619" />
			<feComposite in2="hardAlpha" operator="out" />
			<feColorMatrix type="matrix" values="0 0 0 0 0.85098 0 0 0 0 0.87451 0 0 0 0 0.92549 0 0 0 0.25 0" />
			<feBlend mode="normal" in2="BackgroundImageFix" result="effect1_dropShadow_2377_5677" />
			<feBlend mode="normal" in="SourceGraphic" in2="effect1_dropShadow_2377_5677" result="shape" />
			<feColorMatrix in="SourceAlpha" type="matrix" values="0 0 0 0 0 0 0 0 0 0 0 0 0 0 0 0 0 0 127 0" result="hardAlpha" />
			<feOffset dy="2.53237" />
			<feGaussianBlur stdDeviation="1.26619" />
			<feComposite in2="hardAlpha" operator="arithmetic" k2="-1" k3="1" />
			<feColorMatrix type="matrix" values="0 0 0 0 0.968627 0 0 0 0 0.976471 0 0 0 0 0.996078 0 0 0 0.72 0" />
			<feBlend mode="normal" in2="shape" result="effect2_innerShadow_2377_5677" />
		</filter>
		<filter id="filter22_i_2377_5677" x="46.915" y="154.945" width="42.3311" height="26.9722" filterUnits="userSpaceOnUse" color-interpolation-filters="sRGB">
			<feFlood flood-opacity="0" result="BackgroundImageFix" />
			<feBlend mode="normal" in="SourceGraphic" in2="BackgroundImageFix" result="shape" />
			<feColorMatrix in="SourceAlpha" type="matrix" values="0 0 0 0 0 0 0 0 0 0 0 0 0 0 0 0 0 0 127 0" result="hardAlpha" />
			<feOffset dy="2.53237" />
			<feGaussianBlur stdDeviation="1.26619" />
			<feComposite in2="hardAlpha" operator="arithmetic" k2="-1" k3="1" />
			<feColorMatrix type="matrix" values="0 0 0 0 0.968627 0 0 0 0 0.976471 0 0 0 0 0.996078 0 0 0 0.26 0" />
			<feBlend mode="normal" in2="shape" result="effect1_innerShadow_2377_5677" />
		</filter>
		<filter id="filter23_f_2377_5677" x="-52.4833" y="71.1037" width="86.0447" height="94.4959" filterUnits="userSpaceOnUse" color-interpolation-filters="sRGB">
			<feFlood flood-opacity="0" result="BackgroundImageFix" />
			<feBlend mode="normal" in="SourceGraphic" in2="BackgroundImageFix" result="shape" />
			<feGaussianBlur stdDeviation="1.06977" result="effect1_foregroundBlur_2377_5677" />
		</filter>
		<filter id="filter24_f_2377_5677" x="112.12" y="119.991" width="86.0457" height="94.4958" filterUnits="userSpaceOnUse" color-interpolation-filters="sRGB">
			<feFlood flood-opacity="0" result="BackgroundImageFix" />
			<feBlend mode="normal" in="SourceGraphic" in2="BackgroundImageFix" result="shape" />
			<feGaussianBlur stdDeviation="1.06977" result="effect1_foregroundBlur_2377_5677" />
		</filter>
		<linearGradient id="paint0_linear_2377_5677" x1="200.459" y1="133.093" x2="197.705" y2="127.962" gradientUnits="userSpaceOnUse">
			<stop stop-color="#DEE4F2" />
			<stop offset="1" stop-color="#7E879D" />
		</linearGradient>
		<linearGradient id="paint1_linear_2377_5677" x1="185.459" y1="134.093" x2="182.705" y2="128.962" gradientUnits="userSpaceOnUse">
			<stop stop-color="#DEE4F2" />
			<stop offset="1" stop-color="#7E879D" />
		</linearGradient>
		<linearGradient id="paint2_linear_2377_5677" x1="220.994" y1="143.576" x2="218.15" y2="138.44" gradientUnits="userSpaceOnUse">
			<stop stop-color="#DEE4F2" />
			<stop offset="1" stop-color="#7E879D" />
		</linearGradient>
		<linearGradient id="paint3_linear_2377_5677" x1="227.162" y1="147.199" x2="224.316" y2="142.063" gradientUnits="userSpaceOnUse">
			<stop stop-color="#DEE4F2" />
			<stop offset="1" stop-color="#7E879D" />
		</linearGradient>
		<linearGradient id="paint4_linear_2377_5677" x1="116.249" y1="223.686" x2="113.515" y2="218.556" gradientUnits="userSpaceOnUse">
			<stop stop-color="#DEE4F2" />
			<stop offset="1" stop-color="#7E879D" />
		</linearGradient>
		<linearGradient id="paint5_linear_2377_5677" x1="102.503" y1="274.327" x2="99.7563" y2="269.195" gradientUnits="userSpaceOnUse">
			<stop stop-color="#DEE4F2" />
			<stop offset="1" stop-color="#7E879D" />
		</linearGradient>
		<linearGradient id="paint6_linear_2377_5677" x1="102.503" y1="274.327" x2="99.7563" y2="269.195" gradientUnits="userSpaceOnUse">
			<stop stop-color="#DEE4F2" />
			<stop offset="1" stop-color="#7E879D" />
		</linearGradient>
		<linearGradient id="paint7_linear_2377_5677" x1="99.9036" y1="223.687" x2="97.1694" y2="218.556" gradientUnits="userSpaceOnUse">
			<stop stop-color="#DEE4F2" />
			<stop offset="1" stop-color="#7E879D" />
		</linearGradient>
		<linearGradient id="paint8_linear_2377_5677" x1="86.1571" y1="274.327" x2="83.4106" y2="269.196" gradientUnits="userSpaceOnUse">
			<stop stop-color="#DEE4F2" />
			<stop offset="1" stop-color="#7E879D" />
		</linearGradient>
		<linearGradient id="paint9_linear_2377_5677" x1="86.1571" y1="274.327" x2="83.4106" y2="269.196" gradientUnits="userSpaceOnUse">
			<stop stop-color="#DEE4F2" />
			<stop offset="1" stop-color="#7E879D" />
		</linearGradient>
		<linearGradient id="paint10_linear_2377_5677" x1="231.213" y1="208.173" x2="228.544" y2="203.048" gradientUnits="userSpaceOnUse">
			<stop stop-color="#DEE4F2" />
			<stop offset="1" stop-color="#7E879D" />
		</linearGradient>
		<linearGradient id="paint11_linear_2377_5677" x1="231.041" y1="217.146" x2="228.372" y2="212.02" gradientUnits="userSpaceOnUse">
			<stop stop-color="#DEE4F2" />
			<stop offset="1" stop-color="#7E879D" />
		</linearGradient>
		<linearGradient id="paint12_linear_2377_5677" x1="243.766" y1="47.1201" x2="277.926" y2="-5.18233" gradientUnits="userSpaceOnUse">
			<stop offset="0.11762" stop-color="#182C5B" />
			<stop offset="1" stop-color="#CAE6FF" />
		</linearGradient>
		<linearGradient id="paint13_linear_2377_5677" x1="-1.96534" y1="-11.0623" x2="68.7595" y2="-5.71489" gradientUnits="userSpaceOnUse">
			<stop offset="0.11762" stop-color="#182C5B" />
			<stop offset="1" stop-color="#CAE6FF" />
		</linearGradient>
		<linearGradient id="paint14_linear_2377_5677" x1="255.46" y1="39.3043" x2="334.439" y2="45.8667" gradientUnits="userSpaceOnUse">
			<stop offset="0.11762" stop-color="#182C5B" />
			<stop offset="1" stop-color="#CAE6FF" />
		</linearGradient>
		<linearGradient id="paint15_linear_2377_5677" x1="267.205" y1="189.358" x2="301.364" y2="137.055" gradientUnits="userSpaceOnUse">
			<stop offset="0.11762" stop-color="#182C5B" />
			<stop offset="1" stop-color="#CAE6FF" />
		</linearGradient>
		<linearGradient id="paint16_linear_2377_5677" x1="278.898" y1="181.542" x2="357.877" y2="188.104" gradientUnits="userSpaceOnUse">
			<stop offset="0.11762" stop-color="#182C5B" />
			<stop offset="1" stop-color="#CAE6FF" />
		</linearGradient>
		<linearGradient id="paint17_linear_2377_5677" x1="69.6795" y1="5.76038" x2="103.839" y2="-46.5421" gradientUnits="userSpaceOnUse">
			<stop offset="0.11762" stop-color="#182C5B" />
			<stop offset="1" stop-color="#CAE6FF" />
		</linearGradient>
		<linearGradient id="paint18_linear_2377_5677" x1="-1.96534" y1="-11.0623" x2="68.7595" y2="-5.71489" gradientUnits="userSpaceOnUse">
			<stop offset="0.11762" stop-color="#182C5B" />
			<stop offset="1" stop-color="#CAE6FF" />
		</linearGradient>
		<linearGradient id="paint19_linear_2377_5677" x1="81.373" y1="-2.05547" x2="160.352" y2="4.50696" gradientUnits="userSpaceOnUse">
			<stop offset="0.11762" stop-color="#182C5B" />
			<stop offset="1" stop-color="#CAE6FF" />
		</linearGradient>
		<linearGradient id="paint20_linear_2377_5677" x1="-15.7883" y1="257.099" x2="18.3711" y2="204.796" gradientUnits="userSpaceOnUse">
			<stop offset="0.11762" stop-color="#182C5B" />
			<stop offset="1" stop-color="#CAE6FF" />
		</linearGradient>
		<linearGradient id="paint21_linear_2377_5677" x1="-1.96534" y1="-11.0623" x2="68.7595" y2="-5.71489" gradientUnits="userSpaceOnUse">
			<stop offset="0.11762" stop-color="#182C5B" />
			<stop offset="1" stop-color="#CAE6FF" />
		</linearGradient>
		<linearGradient id="paint22_linear_2377_5677" x1="-4.09378" y1="249.283" x2="74.885" y2="255.845" gradientUnits="userSpaceOnUse">
			<stop offset="0.11762" stop-color="#182C5B" />
			<stop offset="1" stop-color="#CAE6FF" />
		</linearGradient>
		<linearGradient id="paint23_linear_2377_5677" x1="153.881" y1="289.386" x2="188.04" y2="237.084" gradientUnits="userSpaceOnUse">
			<stop offset="0.11762" stop-color="#182C5B" />
			<stop offset="1" stop-color="#CAE6FF" />
		</linearGradient>
		<linearGradient id="paint24_linear_2377_5677" x1="-1.96534" y1="-11.0623" x2="68.7595" y2="-5.71489" gradientUnits="userSpaceOnUse">
			<stop offset="0.11762" stop-color="#182C5B" />
			<stop offset="1" stop-color="#CAE6FF" />
		</linearGradient>
		<linearGradient id="paint25_linear_2377_5677" x1="165.575" y1="281.57" x2="244.554" y2="288.133" gradientUnits="userSpaceOnUse">
			<stop offset="0.11762" stop-color="#182C5B" />
			<stop offset="1" stop-color="#CAE6FF" />
		</linearGradient>
		<linearGradient id="paint26_linear_2377_5677" x1="67.0108" y1="160.058" x2="64.3421" y2="154.932" gradientUnits="userSpaceOnUse">
			<stop stop-color="#DEE4F2" />
			<stop offset="1" stop-color="#7E879D" />
		</linearGradient>
		<linearGradient id="paint27_linear_2377_5677" x1="66.8389" y1="169.03" x2="64.1702" y2="163.905" gradientUnits="userSpaceOnUse">
			<stop stop-color="#DEE4F2" />
			<stop offset="1" stop-color="#7E879D" />
		</linearGradient>
		<linearGradient id="paint28_linear_2377_5677" x1="-63.9035" y1="88.0626" x2="-29.7441" y2="35.7601" gradientUnits="userSpaceOnUse">
			<stop offset="0.11762" stop-color="#182C5B" />
			<stop offset="1" stop-color="#CAE6FF" />
		</linearGradient>
		<linearGradient id="paint29_linear_2377_5677" x1="-1.96534" y1="-11.0623" x2="68.7595" y2="-5.71489" gradientUnits="userSpaceOnUse">
			<stop offset="0.11762" stop-color="#182C5B" />
			<stop offset="1" stop-color="#CAE6FF" />
		</linearGradient>
		<linearGradient id="paint30_linear_2377_5677" x1="100.701" y1="136.95" x2="134.86" y2="84.6479" gradientUnits="userSpaceOnUse">
			<stop offset="0.11762" stop-color="#3064DC" />
			<stop offset="1" stop-color="#075DAC" />
		</linearGradient>
		<linearGradient id="paint31_linear_2377_5677" x1="-1.96534" y1="-11.0623" x2="68.7595" y2="-5.71489" gradientUnits="userSpaceOnUse">
			<stop offset="0.11762" stop-color="#3064DC" />
			<stop offset="1" stop-color="#075DAC" />
		</linearGradient>
		<linearGradient id="paint32_linear_2377_5677" x1="112.395" y1="129.134" x2="191.373" y2="135.697" gradientUnits="userSpaceOnUse">
			<stop offset="0.11762" stop-color="#3064DC" />
			<stop offset="1" stop-color="#075DAC" />
		</linearGradient>
		<linearGradient id="paint33_linear_2377_5677" x1="102.555" y1="87.5147" x2="262.359" y2="98.8822" gradientUnits="userSpaceOnUse">
			<stop offset="0.11762" stop-color="#3064DC" />
			<stop offset="1" stop-color="#075DAC" />
		</linearGradient>
		<radialGradient id="paint34_radial_2377_5677" cx="0" cy="0" r="1" gradientUnits="userSpaceOnUse" gradientTransform="translate(132.95 193.094) rotate(-148.173) scale(64.8264 58.739)">
			<stop stop-opacity="0" />
			<stop offset="1" stop-color="#FEFEFE" />
		</radialGradient>
		<linearGradient id="paint35_linear_2377_5677" x1="102.555" y1="87.5147" x2="262.359" y2="98.8822" gradientUnits="userSpaceOnUse">
			<stop offset="0.11762" stop-color="#3064DC" />
			<stop offset="1" stop-color="#075DAC" />
		</linearGradient>
		<radialGradient id="paint36_radial_2377_5677" cx="0" cy="0" r="1" gradientUnits="userSpaceOnUse" gradientTransform="translate(132.95 193.094) rotate(-148.173) scale(64.8264 58.739)">
			<stop stop-opacity="0" />
			<stop offset="1" stop-color="#FEFEFE" />
		</radialGradient>
		<linearGradient id="paint37_linear_2377_5677" x1="102.555" y1="87.5147" x2="262.359" y2="98.8822" gradientUnits="userSpaceOnUse">
			<stop offset="0.11762" stop-color="#3064DC" />
			<stop offset="1" stop-color="#075DAC" />
		</linearGradient>
		<radialGradient id="paint38_radial_2377_5677" cx="0" cy="0" r="1" gradientUnits="userSpaceOnUse" gradientTransform="translate(132.95 193.094) rotate(-148.173) scale(64.8264 58.739)">
			<stop stop-opacity="0" />
			<stop offset="1" stop-color="#FEFEFE" />
		</radialGradient>
		<clipPath id="clip0_2377_5677">
			<rect width="312.115" height="352" rx="12.6619" fill="white" />
		</clipPath>
	</defs>
</svg>
