<svg width="24" height="24" viewBox="0 0 24 24" fill="none" xmlns="http://www.w3.org/2000/svg">
	<path d="M8.48633 15.1338C8.92202 15.4994 9.13986 15.6829 9.38965 15.8037C9.52516 15.8692 9.66756 15.9211 9.81348 15.958C10.0824 16.026 10.3669 16.0254 10.9355 16.0254H12.7344C13.3033 16.0254 13.5883 16.0261 13.8574 15.958C14.0032 15.9211 14.1448 15.8692 14.2803 15.8037C14.5302 15.6829 14.7487 15.4995 15.1846 15.1338L15.2041 15.1162C15.258 15.2073 15.291 15.3123 15.291 15.4258V20.5293C15.2907 21.1284 14.518 21.3695 14.1768 20.877L11.7471 17.3691L9.31738 20.877C8.97614 21.3695 8.2034 21.1284 8.20312 20.5293V15.4258C8.20321 15.2717 8.26138 15.1319 8.35547 15.0244L8.48633 15.1338Z" fill="#1B45C3" />
	<path d="M10.8768 3.48458C11.3566 3.30993 11.5966 3.22261 11.8444 3.19743C11.9788 3.18378 12.1142 3.18378 12.2486 3.19743C12.4965 3.22261 12.7364 3.30993 13.2162 3.48458L15.174 4.19714C15.6538 4.37178 15.8937 4.45911 16.0998 4.59913C16.2115 4.67506 16.3152 4.76211 16.4094 4.85896C16.5831 5.03755 16.7107 5.25866 16.9661 5.70088L18.0077 7.50514C18.2631 7.94737 18.3907 8.16848 18.4586 8.40818C18.4953 8.53816 18.5189 8.67154 18.5287 8.80626C18.547 9.05471 18.5027 9.30614 18.414 9.80902L18.0522 11.8607C17.9635 12.3636 17.9192 12.6151 17.8171 12.8423C17.7617 12.9655 17.694 13.0828 17.615 13.1924C17.4693 13.3944 17.2737 13.5585 16.8825 13.8867L15.2865 15.2259C14.8954 15.5541 14.6998 15.7183 14.4755 15.8267C14.3539 15.8855 14.2266 15.9318 14.0957 15.9649C13.8542 16.026 13.5988 16.026 13.0882 16.026H11.0048C10.4942 16.026 10.2389 16.026 9.99737 15.9649C9.86641 15.9318 9.73915 15.8855 9.61752 15.8267C9.39324 15.7183 9.19766 15.5541 8.80649 15.2259L7.21053 13.8867C6.81936 13.5585 6.62378 13.3944 6.47806 13.1924C6.39904 13.0828 6.33132 12.9655 6.27594 12.8423C6.17383 12.6151 6.12949 12.3636 6.04082 11.8607L5.67904 9.80902C5.59037 9.30614 5.54604 9.05471 5.56428 8.80626C5.57418 8.67154 5.59769 8.53816 5.63448 8.40818C5.7023 8.16848 5.82996 7.94737 6.08528 7.50514L7.12697 5.70088C7.38229 5.25866 7.50995 5.03755 7.68362 4.85896C7.7778 4.76211 7.88154 4.67506 7.99327 4.59913C8.19931 4.45911 8.43923 4.37178 8.91907 4.19714L10.8768 3.48458Z" stroke="#1B45C3" />
	<path d="M12.9942 13.0676C13.1458 13.5987 13.7076 13.9155 14.1916 13.6495C14.6185 13.4149 15.0061 13.1108 15.3375 12.7475C15.8949 12.1366 16.2713 11.3827 16.4247 10.5701C16.578 9.75752 16.5022 8.91829 16.2059 8.14629C15.9095 7.37428 15.4041 6.69997 14.7464 6.19876C14.0887 5.69756 13.3044 5.38923 12.4815 5.30827C11.6585 5.22732 10.8292 5.37692 10.0865 5.74035C9.34365 6.10378 8.71662 6.66671 8.27548 7.36616C8.01318 7.78205 7.82276 8.23646 7.70981 8.71038C7.58176 9.24761 8.03627 9.7052 8.58853 9.71049L11.2982 9.73649C11.7412 9.74074 12.1286 10.0359 12.2502 10.4619L12.9942 13.0676Z" fill="#1B45C3" />
</svg>
